<svg width="183" height="120" viewBox="0 0 195 120" fill="none" xmlns="http://www.w3.org/2000/svg">
<g filter="url(#filter0_d)">
<g filter="url(#filter1_ii)">
<path fill-rule="evenodd" clip-rule="evenodd" d="M160.054 34.9592C166.691 34.9592 172.072 29.5786 172.072 22.9413C172.072 16.3039 166.691 10.9233 160.054 10.9233C153.417 10.9233 148.036 16.3039 148.036 22.9413C148.036 29.5786 153.417 34.9592 160.054 34.9592Z" fill="url(#paint0_linear)"/>
</g>
<path fill-rule="evenodd" clip-rule="evenodd" d="M160.054 34.9592C166.691 34.9592 172.072 29.5786 172.072 22.9413C172.072 16.3039 166.691 10.9233 160.054 10.9233C153.417 10.9233 148.036 16.3039 148.036 22.9413C148.036 29.5786 153.417 34.9592 160.054 34.9592Z" stroke="black" stroke-opacity="0.3" stroke-width="0.273134"/>
<path d="M163.76 22.3568L159.469 26.6482L161.227 28.4057L165.518 24.1143L163.76 22.3568Z" fill="#3913B8"/>
<path fill-rule="evenodd" clip-rule="evenodd" d="M154.7 18.053L158.488 21.841C158.48 21.881 158.475 21.9224 158.475 21.9649C158.475 22.2968 158.744 22.5658 159.076 22.5658C159.408 22.5658 159.677 22.2968 159.677 21.9649C159.677 21.6331 159.408 21.364 159.076 21.364C159.033 21.364 158.991 21.3685 158.951 21.3771L155.162 17.5881L161.808 18.8458H161.813L162.982 23.1395L160.251 25.8708L155.957 24.6964L154.7 18.053Z" fill="white"/>
</g>
<g clip-path="url(#clip0)">
<g clip-path="url(#clip1)">
<path d="M14.4549 21.0911C16.1418 21.0911 17.1938 20.1162 17.1938 18.6652V14.3801H15.8244V18.5427C15.8244 19.3907 15.3346 19.9303 14.4549 19.9303C13.5753 19.9303 13.081 19.3907 13.081 18.5427V14.3801H11.7116V18.6652C11.7116 20.1207 12.7772 21.0911 14.4549 21.0911ZM18.7808 20.9233H20.1502V14.3801H18.7808V20.9233ZM24.1315 20.9233H26.7071C28.6659 20.9233 29.7769 19.7262 29.7769 17.6132V17.6041C29.7769 15.5545 28.6523 14.3801 26.7071 14.3801H24.1315V20.9233ZM25.5009 19.7943V15.5092H26.4894C27.6774 15.5092 28.3803 16.2801 28.3803 17.6268V17.6359C28.3803 19.0325 27.7001 19.7943 26.4894 19.7943H25.5009ZM31.0783 20.9233H35.4132V19.7943H32.4477V18.1392H35.2454V17.0872H32.4477V15.5092H35.4132V14.3801H31.0783V20.9233ZM39.1949 21.0911C40.8274 21.0911 41.834 20.2704 41.834 18.9735V18.969C41.834 17.9487 41.2309 17.3955 39.8479 17.1099L39.1541 16.9693C38.3833 16.8106 38.0659 16.5567 38.0659 16.1304V16.1259C38.0659 15.6362 38.5148 15.3278 39.1904 15.3233C39.8796 15.3233 40.3331 15.6498 40.4102 16.1168L40.4192 16.1712H41.707L41.7025 16.1123C41.6163 15.0195 40.7185 14.2123 39.1904 14.2123C37.7394 14.2123 36.6965 15.0149 36.6965 16.2302V16.2347C36.6965 17.2278 37.2814 17.8626 38.6417 18.1392L39.331 18.2798C40.1426 18.4475 40.4646 18.6879 40.4646 19.1186V19.1232C40.4646 19.6265 39.9613 19.9756 39.2312 19.9756C38.4649 19.9756 37.9344 19.6446 37.8845 19.1549L37.88 19.1096H36.5604L36.565 19.1821C36.642 20.3429 37.6306 21.0911 39.1949 21.0911ZM43.1309 20.9233H44.5003V14.3801H43.1309V20.9233ZM48.935 21.0911C50.7215 21.0911 51.837 20.0028 51.837 18.2661V17.4363H49.0891V18.4339H50.5039L50.4993 18.5564C50.4721 19.3816 49.8555 19.9303 48.9576 19.9303C47.8784 19.9303 47.1937 19.0551 47.1937 17.6359V17.6268C47.1937 16.2347 47.8467 15.3732 48.9032 15.3732C49.6695 15.3732 50.2273 15.7586 50.4132 16.407L50.4223 16.4524H51.7826L51.7735 16.407C51.5785 15.1011 50.4495 14.2123 48.9032 14.2123C46.9987 14.2123 45.7971 15.5409 45.7971 17.6404V17.6495C45.7971 19.7807 46.9897 21.0911 48.935 21.0911ZM53.152 20.9233H54.4625V16.738H54.535L57.564 20.9233H58.6976V14.3801H57.3872V18.5473H57.3146L54.2947 14.3801H53.152V20.9233Z" fill="white"/>
<path d="M13.603 33.3401C14.7195 33.3401 15.5344 32.7021 15.6801 31.7416V31.7208H14.9103L14.9033 31.7346C14.7612 32.2999 14.2653 32.6535 13.603 32.6535C12.7014 32.6535 12.1397 31.908 12.1397 30.7221V30.7152C12.1397 29.5258 12.7014 28.7803 13.5995 28.7803C14.2584 28.7803 14.7612 29.1791 14.9068 29.7928V29.8032H15.6766L15.6801 29.7859C15.5483 28.7907 14.7022 28.0937 13.5995 28.0937C12.2091 28.0937 11.3456 29.0993 11.3456 30.7152V30.7221C11.3456 32.3345 12.2125 33.3401 13.603 33.3401ZM18.1975 33.2916C19.1614 33.2916 19.6816 32.7368 19.8064 32.2409L19.8133 32.2097L19.0886 32.2132L19.0748 32.2409C18.9846 32.4351 18.6968 32.6743 18.2148 32.6743C17.5941 32.6743 17.1988 32.2548 17.185 31.5335H19.855V31.27C19.855 30.1396 19.21 29.3802 18.1593 29.3802C17.1087 29.3802 16.429 30.1673 16.429 31.3428V31.3463C16.429 32.5391 17.0948 33.2916 18.1975 33.2916ZM18.1628 29.9974C18.6725 29.9974 19.0505 30.3234 19.1094 30.9961H17.1954C17.2612 30.3476 17.6496 29.9974 18.1628 29.9974ZM20.7496 33.2188H21.502V30.9683C21.502 30.4239 21.8939 30.0702 22.4695 30.0702C22.6116 30.0702 22.7399 30.0876 22.8752 30.1153V29.4218C22.7989 29.4045 22.6671 29.3871 22.5458 29.3871C22.043 29.3871 21.6927 29.6229 21.5575 30.0217H21.502V29.453H20.7496V33.2188ZM25.2088 33.243C25.3545 33.243 25.4932 33.2257 25.6145 33.2049V32.605C25.5105 32.6154 25.4446 32.6189 25.3302 32.6189C24.9592 32.6189 24.8066 32.4524 24.8066 32.0467V30.046H25.6145V29.453H24.8066V28.5029H24.0403V29.453H23.4508V30.046H24.0403V32.227C24.0403 32.9518 24.3801 33.243 25.2088 33.243ZM26.8836 28.7803C27.1402 28.7803 27.3552 28.5688 27.3552 28.3122C27.3552 28.0521 27.1402 27.8406 26.8836 27.8406C26.6236 27.8406 26.412 28.0521 26.412 28.3122C26.412 28.5688 26.6236 28.7803 26.8836 28.7803ZM26.5057 33.2188H27.2547V29.453H26.5057V33.2188ZM28.6174 33.2188H29.3664V30.046H30.1951V29.453H29.3594V29.0924C29.3594 28.711 29.5224 28.5098 29.9385 28.5098C30.0564 28.5098 30.157 28.5168 30.2263 28.5272V27.9759C30.098 27.955 29.9524 27.9412 29.7825 27.9412C28.9988 27.9412 28.6174 28.3087 28.6174 29.0577V29.453H27.9967V30.046H28.6174V33.2188ZM31.433 28.7803C31.6896 28.7803 31.9046 28.5688 31.9046 28.3122C31.9046 28.0521 31.6896 27.8406 31.433 27.8406C31.173 27.8406 30.9614 28.0521 30.9614 28.3122C30.9614 28.5688 31.173 28.7803 31.433 28.7803ZM31.0551 33.2188H31.804V29.453H31.0551V33.2188ZM34.4844 33.2916C35.4172 33.2916 35.9547 32.7888 36.0899 32.0571L36.0968 32.0259H35.3756L35.3687 32.0433C35.2473 32.449 34.956 32.6639 34.4844 32.6639C33.8638 32.6639 33.4789 32.1577 33.4789 31.3255V31.3185C33.4789 30.5071 33.8568 30.0078 34.4844 30.0078C34.9838 30.0078 35.2889 30.2852 35.3721 30.6562L35.3756 30.6667L36.0968 30.6632V30.6458C35.9928 29.9142 35.4276 29.3802 34.481 29.3802C33.3818 29.3802 32.7125 30.1257 32.7125 31.3185V31.3255C32.7125 32.5426 33.3852 33.2916 34.4844 33.2916ZM37.9832 33.2812C38.4825 33.2812 38.8778 33.0662 39.0997 32.6848H39.1587V33.2188H39.9042V30.6424C39.9042 29.8518 39.3702 29.3802 38.4236 29.3802C37.5671 29.3802 36.9741 29.7928 36.884 30.4101L36.8805 30.4343H37.6052L37.6087 30.4205C37.6988 30.1535 37.9728 30.0009 38.3889 30.0009C38.8986 30.0009 39.1587 30.2297 39.1587 30.6424V30.9753L38.1392 31.0342C37.2411 31.0897 36.7349 31.4815 36.7349 32.1542V32.1612C36.7349 32.8443 37.2654 33.2812 37.9832 33.2812ZM37.4839 32.1299V32.123C37.4839 31.7832 37.7196 31.5959 38.2398 31.5647L39.1587 31.5058V31.8283C39.1587 32.3137 38.746 32.6813 38.1843 32.6813C37.7786 32.6813 37.4839 32.4767 37.4839 32.1299ZM42.3869 33.243C42.5326 33.243 42.6713 33.2257 42.7926 33.2049V32.605C42.6886 32.6154 42.6227 32.6189 42.5083 32.6189C42.1373 32.6189 41.9847 32.4524 41.9847 32.0467V30.046H42.7926V29.453H41.9847V28.5029H41.2184V29.453H40.6289V30.046H41.2184V32.227C41.2184 32.9518 41.5582 33.243 42.3869 33.243ZM45.2095 33.2916C46.1735 33.2916 46.6936 32.7368 46.8184 32.2409L46.8254 32.2097L46.1007 32.2132L46.0868 32.2409C45.9966 32.4351 45.7088 32.6743 45.2268 32.6743C44.6062 32.6743 44.2109 32.2548 44.197 31.5335H46.867V31.27C46.867 30.1396 46.222 29.3802 45.1714 29.3802C44.1207 29.3802 43.4411 30.1673 43.4411 31.3428V31.3463C43.4411 32.5391 44.1068 33.2916 45.2095 33.2916ZM45.1748 29.9974C45.6846 29.9974 46.0625 30.3234 46.1215 30.9961H44.2074C44.2733 30.3476 44.6616 29.9974 45.1748 29.9974Z" fill="white" fill-opacity="0.6"/>
</g>
<g clip-path="url(#clip2)">
<rect x="10.9226" y="64.4578" width="58.997" height="2.18507" rx="1.09254" fill="white" fill-opacity="0.3"/>
<rect x="10.9226" y="71.0129" width="31.6836" height="2.18507" rx="1.09254" fill="white" fill-opacity="0.3"/>
<rect x="10.9226" y="77.5681" width="42.609" height="2.18507" rx="1.09254" fill="white" fill-opacity="0.3"/>
<g clip-path="url(#clip3)">
<rect x="10.9226" y="84.1235" width="31.6836" height="2.18507" rx="1.09254" fill="white" fill-opacity="0.3"/>
<rect x="10.9226" y="99.4189" width="45.3403" height="4.37015" rx="2.18507" fill="white" fill-opacity="0.6"/>
</g>
</g>
</g>
<g clip-path="url(#clip4)">
<rect x="124.002" y="86.3083" width="37.1463" height="2.18507" rx="1.09254" fill="white" fill-opacity="0.3"/>
<rect x="124.002" y="92.8635" width="20.7582" height="2.18507" rx="1.09254" fill="white" fill-opacity="0.3"/>
<g clip-path="url(#clip5)">
<rect x="124.002" y="99.4187" width="28.9522" height="4.37015" rx="2.18507" fill="white" fill-opacity="0.6"/>
</g>
</g>
<defs>
<filter id="filter0_d" x="126.049" y="-0.138509" width="68.0105" height="68.0105" filterUnits="userSpaceOnUse" color-interpolation-filters="sRGB">
<feFlood flood-opacity="0" result="BackgroundImageFix"/>
<feColorMatrix in="SourceAlpha" type="matrix" values="0 0 0 0 0 0 0 0 0 0 0 0 0 0 0 0 0 0 127 0"/>
<feOffset dy="10.9254"/>
<feGaussianBlur stdDeviation="10.9254"/>
<feColorMatrix type="matrix" values="0 0 0 0 0 0 0 0 0 0 0 0 0 0 0 0 0 0 0.3 0"/>
<feBlend mode="normal" in2="BackgroundImageFix" result="effect1_dropShadow"/>
<feBlend mode="normal" in="SourceGraphic" in2="effect1_dropShadow" result="shape"/>
</filter>
<filter id="filter1_ii" x="147.9" y="10.7869" width="24.309" height="24.309" filterUnits="userSpaceOnUse" color-interpolation-filters="sRGB">
<feFlood flood-opacity="0" result="BackgroundImageFix"/>
<feBlend mode="normal" in="SourceGraphic" in2="BackgroundImageFix" result="shape"/>
<feColorMatrix in="SourceAlpha" type="matrix" values="0 0 0 0 0 0 0 0 0 0 0 0 0 0 0 0 0 0 127 0" result="hardAlpha"/>
<feOffset dx="-0.546269" dy="-0.546269"/>
<feComposite in2="hardAlpha" operator="arithmetic" k2="-1" k3="1"/>
<feColorMatrix type="matrix" values="0 0 0 0 1 0 0 0 0 1 0 0 0 0 1 0 0 0 0.25 0"/>
<feBlend mode="normal" in2="shape" result="effect1_innerShadow"/>
<feColorMatrix in="SourceAlpha" type="matrix" values="0 0 0 0 0 0 0 0 0 0 0 0 0 0 0 0 0 0 127 0" result="hardAlpha"/>
<feOffset dx="0.546269" dy="0.546269"/>
<feComposite in2="hardAlpha" operator="arithmetic" k2="-1" k3="1"/>
<feColorMatrix type="matrix" values="0 0 0 0 1 0 0 0 0 1 0 0 0 0 1 0 0 0 0.25 0"/>
<feBlend mode="normal" in2="effect1_innerShadow" result="effect2_innerShadow"/>
</filter>
<linearGradient id="paint0_linear" x1="148.036" y1="10.9233" x2="148.036" y2="34.9592" gradientUnits="userSpaceOnUse">
<stop stop-color="#FF5252"/>
<stop offset="1" stop-color="#FF72B6"/>
</linearGradient>
<clipPath id="clip0">
<rect width="58.997" height="92.8657" fill="white" transform="translate(10.9226 10.9233)"/>
</clipPath>
<clipPath id="clip1">
<rect width="48.6179" height="24.5821" fill="white" transform="translate(10.9226 10.9233)"/>
</clipPath>
<clipPath id="clip2">
<rect width="58.997" height="39.3313" fill="white" transform="translate(10.9226 64.4578)"/>
</clipPath>
<clipPath id="clip3">
<rect width="45.3403" height="19.6657" fill="white" transform="translate(10.9226 84.1235)"/>
</clipPath>
<clipPath id="clip4">
<rect width="37.1463" height="17.4806" fill="white" transform="translate(124.002 86.3083)"/>
</clipPath>
<clipPath id="clip5">
<rect width="28.9522" height="4.37015" fill="white" transform="translate(124.002 99.4187)"/>
</clipPath>
</defs>
</svg>
