<svg width="399" height="274" viewBox="0 0 399 274" fill="none" xmlns="http://www.w3.org/2000/svg">
<g filter="url(#filter0_bi)">
<g clip-path="url(#clip0)">
<rect x="13.6921" y="13.6921" width="45.4121" height="4.37707" rx="2.18853" fill="white" fill-opacity="0.6"/>
<g clip-path="url(#clip1)">
<circle cx="26.0151" cy="50.3921" r="12.323" fill="#FF5A6D"/>
<path d="M26.2746 55.1775H27.478V45.5301H26.2813L23.714 47.3753V48.6456L26.1676 46.8672H26.2746V55.1775Z" fill="white"/>
<g clip-path="url(#clip2)">
<g clip-path="url(#clip3)">
<path d="M52.9228 48.4153H54.2165V41.1797H52.9228V48.4153ZM55.8712 48.4153H57.1197V45.2212C57.1197 44.3989 57.581 43.8774 58.3231 43.8774C59.0803 43.8774 59.4263 44.3086 59.4263 45.161V48.4153H60.6748V44.8702C60.6748 43.5665 60.0079 42.8294 58.7844 42.8294C57.9922 42.8294 57.4657 43.1854 57.205 43.7721H57.1197V42.9347H55.8712V48.4153ZM64.3051 48.4404C64.5458 48.4404 64.7765 48.4203 64.957 48.3852V47.4225C64.8065 47.4375 64.7113 47.4425 64.5358 47.4425C64.0143 47.4425 63.7987 47.2119 63.7987 46.6653V43.9025H64.957V42.9347H63.7987V41.5909H62.5301V42.9347H61.6777V43.9025H62.5301V46.9612C62.5301 48.0192 63.0465 48.4404 64.3051 48.4404ZM66.2005 48.4153H67.449V45.2312C67.449 44.449 67.9956 43.9526 68.828 43.9526C69.0436 43.9526 69.2492 43.9827 69.4497 44.0228V42.9046C69.3294 42.8695 69.1338 42.8445 68.9433 42.8445C68.2212 42.8445 67.7198 43.1905 67.5343 43.7771H67.449V42.9347H66.2005V48.4153ZM72.6989 48.5256C74.3386 48.5256 75.3364 47.4526 75.3364 45.6775V45.6675C75.3364 43.9025 74.3336 42.8294 72.6989 42.8294C71.0693 42.8294 70.0615 43.9075 70.0615 45.6675V45.6775C70.0615 47.4526 71.0543 48.5256 72.6989 48.5256ZM72.6989 47.5127C71.8315 47.5127 71.3351 46.8358 71.3351 45.6825V45.6725C71.3351 44.5192 71.8315 43.8373 72.6989 43.8373C73.5614 43.8373 74.0578 44.5192 74.0578 45.6725V45.6825C74.0578 46.8358 73.5664 47.5127 72.6989 47.5127ZM81.4839 48.4404C81.7246 48.4404 81.9552 48.4203 82.1357 48.3852V47.4225C81.9853 47.4375 81.89 47.4425 81.7145 47.4425C81.1931 47.4425 80.9774 47.2119 80.9774 46.6653V43.9025H82.1357V42.9347H80.9774V41.5909H79.7088V42.9347H78.8564V43.9025H79.7088V46.9612C79.7088 48.0192 80.2253 48.4404 81.4839 48.4404ZM85.6958 48.5256C87.3355 48.5256 88.3333 47.4526 88.3333 45.6775V45.6675C88.3333 43.9025 87.3305 42.8294 85.6958 42.8294C84.0662 42.8294 83.0584 43.9075 83.0584 45.6675V45.6775C83.0584 47.4526 84.0512 48.5256 85.6958 48.5256ZM85.6958 47.5127C84.8284 47.5127 84.332 46.8358 84.332 45.6825V45.6725C84.332 44.5192 84.8284 43.8373 85.6958 43.8373C86.5583 43.8373 87.0547 44.5192 87.0547 45.6725V45.6825C87.0547 46.8358 86.5633 47.5127 85.6958 47.5127ZM92.9665 42.0171C93.3726 42.0171 93.7086 41.6912 93.7086 41.28C93.7086 40.8739 93.3726 40.5429 92.9665 40.5429C92.5553 40.5429 92.2194 40.8739 92.2194 41.28C92.2194 41.6912 92.5553 42.0171 92.9665 42.0171ZM92.3397 48.4153H93.5882V42.9347H92.3397V48.4153ZM98.3718 48.5958C100.483 48.5958 101.792 47.1266 101.792 44.8V44.79C101.792 42.4584 100.478 40.9992 98.3718 40.9992C96.2709 40.9992 94.9471 42.4584 94.9471 44.79V44.8C94.9471 47.1266 96.2508 48.5958 98.3718 48.5958ZM98.3718 47.4776C97.0681 47.4776 96.2658 46.4246 96.2658 44.8V44.79C96.2658 43.1554 97.0882 42.1174 98.3718 42.1174C99.6555 42.1174 100.473 43.1554 100.473 44.79V44.8C100.473 46.4246 99.6605 47.4776 98.3718 47.4776ZM105.788 48.5958C107.523 48.5958 108.611 47.7133 108.611 46.3043V46.2993C108.611 45.2062 107.974 44.5944 106.45 44.2735L105.673 44.1081C104.77 43.9175 104.404 43.5966 104.404 43.0852V43.0801C104.404 42.4634 104.976 42.0873 105.778 42.0873C106.605 42.0823 107.142 42.4834 107.232 43.045L107.242 43.1052H108.481L108.476 43.04C108.385 41.8767 107.387 40.9992 105.783 40.9992C104.218 40.9992 103.105 41.8717 103.105 43.1654V43.1704C103.105 44.2485 103.747 44.9404 105.226 45.2513L106.003 45.4118C106.936 45.6123 107.312 45.9282 107.312 46.4497V46.4547C107.312 47.0765 106.7 47.5077 105.828 47.5077C104.91 47.5077 104.264 47.1066 104.203 46.4998L104.198 46.4497H102.945L102.95 46.5199C103.04 47.7684 104.108 48.5958 105.788 48.5958ZM112.803 48.4153H115.515C117.682 48.4153 118.92 47.0865 118.92 44.7699V44.7599C118.92 42.4935 117.667 41.1797 115.515 41.1797H112.803V48.4153ZM114.096 47.3272V42.2678H115.345C116.764 42.2678 117.601 43.1905 117.601 44.78V44.79C117.601 46.4146 116.784 47.3272 115.345 47.3272H114.096ZM122.621 48.5256C124.11 48.5256 124.842 47.6682 125.017 46.9612L125.033 46.916H123.844L123.829 46.9511C123.709 47.2018 123.323 47.5428 122.646 47.5428C121.798 47.5428 121.267 46.9712 121.252 45.9884H125.083V45.5772C125.083 43.9225 124.12 42.8294 122.56 42.8294C121.001 42.8294 120.003 43.9576 120.003 45.6825V45.6875C120.003 47.4325 120.991 48.5256 122.621 48.5256ZM122.576 43.8072C123.273 43.8072 123.779 44.2535 123.864 45.151H121.262C121.357 44.2785 121.879 43.8072 122.576 43.8072ZM128.402 48.5256C129.751 48.5256 130.729 47.8286 130.729 46.7857V46.7756C130.729 45.9784 130.222 45.5221 129.149 45.2814L128.262 45.0858C127.67 44.9504 127.439 44.7549 127.439 44.434V44.429C127.439 44.0178 127.84 43.747 128.397 43.747C128.984 43.747 129.345 44.0278 129.435 44.3738L129.44 44.3889H130.613V44.3788C130.533 43.4913 129.736 42.8294 128.402 42.8294C127.108 42.8294 126.206 43.5114 126.206 44.4992V44.5042C126.206 45.3115 126.702 45.8029 127.745 46.0335L128.633 46.2341C129.234 46.3695 129.475 46.5801 129.475 46.901V46.911C129.475 47.3222 129.044 47.603 128.422 47.603C127.8 47.603 127.434 47.3372 127.304 46.9561L127.299 46.9461H126.06V46.9561C126.166 47.8838 127.008 48.5256 128.402 48.5256ZM132.629 42.0171C133.035 42.0171 133.371 41.6912 133.371 41.28C133.371 40.8739 133.035 40.5429 132.629 40.5429C132.218 40.5429 131.882 40.8739 131.882 41.28C131.882 41.6912 132.218 42.0171 132.629 42.0171ZM132.002 48.4153H133.251V42.9347H132.002V48.4153ZM137.142 50.3407C138.741 50.3407 139.754 49.5435 139.754 48.2799V42.9347H138.506V43.8373H138.441C138.13 43.2155 137.538 42.8445 136.781 42.8445C135.367 42.8445 134.504 43.9376 134.504 45.5221V45.5321C134.504 47.0865 135.367 48.1596 136.756 48.1596C137.513 48.1596 138.11 47.8386 138.426 47.252H138.511V48.3C138.511 49.0019 138.014 49.3981 137.162 49.3981C136.465 49.3981 136.049 49.1524 135.964 48.8014L135.959 48.7863H134.71L134.705 48.8014C134.83 49.724 135.698 50.3407 137.142 50.3407ZM137.142 47.1667C136.274 47.1667 135.783 46.4998 135.783 45.5321V45.5221C135.783 44.5543 136.274 43.8824 137.142 43.8824C138.004 43.8824 138.531 44.5543 138.531 45.5221V45.5321C138.531 46.4998 138.009 47.1667 137.142 47.1667ZM141.284 48.4153H142.532V45.2212C142.532 44.3989 142.993 43.8774 143.736 43.8774C144.493 43.8774 144.839 44.3086 144.839 45.161V48.4153H146.087V44.8702C146.087 43.5665 145.42 42.8294 144.197 42.8294C143.405 42.8294 142.878 43.1854 142.617 43.7721H142.532V42.9347H141.284V48.4153Z" fill="white"/>
<rect x="178.507" y="38.0691" width="28.7536" height="13.6922" rx="3.42305" fill="#FF5A6D"/>
<path d="M185.609 48.5903C186.926 48.5903 187.877 47.669 187.877 46.4088V46.4001C187.877 45.2007 187.021 44.3142 185.826 44.3142C184.97 44.3142 184.405 44.7618 184.175 45.2659H184.092C184.11 43.9492 184.544 42.841 185.639 42.841C186.23 42.841 186.639 43.1452 186.813 43.6232L186.83 43.6667H187.795L187.786 43.6145C187.578 42.6672 186.752 42.0153 185.644 42.0153C184.092 42.0153 183.167 43.2669 183.167 45.3876V45.3963C183.167 47.7038 184.349 48.5903 185.609 48.5903ZM184.284 46.4088V46.4045C184.284 45.6483 184.857 45.1008 185.609 45.1008C186.37 45.1008 186.917 45.657 186.917 46.4262V46.4349C186.917 47.1867 186.335 47.7733 185.6 47.7733C184.862 47.7733 184.284 47.1736 184.284 46.4088ZM189.842 44.2925C190.202 44.2925 190.476 44.01 190.476 43.658C190.476 43.3017 190.202 43.0235 189.842 43.0235C189.481 43.0235 189.203 43.3017 189.203 43.658C189.203 44.01 189.481 44.2925 189.842 44.2925ZM189.842 47.5778C190.202 47.5778 190.476 47.2953 190.476 46.9433C190.476 46.587 190.202 46.3089 189.842 46.3089C189.481 46.3089 189.203 46.587 189.203 46.9433C189.203 47.2953 189.481 47.5778 189.842 47.5778ZM194.109 48.5903C195.552 48.5903 196.425 47.3257 196.425 45.305V45.2963C196.425 43.2756 195.552 42.0153 194.109 42.0153C192.662 42.0153 191.793 43.2756 191.793 45.2963V45.305C191.793 47.3257 192.662 48.5903 194.109 48.5903ZM194.109 47.782C193.266 47.782 192.775 46.839 192.775 45.305V45.2963C192.775 43.7623 193.266 42.828 194.109 42.828C194.948 42.828 195.443 43.7623 195.443 45.2963V45.305C195.443 46.839 194.948 47.782 194.109 47.782ZM199.928 48.5556C201.323 48.5556 202.305 47.8081 202.305 46.7434V46.7347C202.305 45.9438 201.736 45.3137 200.914 45.1355V45.1138C201.618 44.9139 202.075 44.3881 202.075 43.7232V43.7145C202.075 42.7541 201.18 42.0501 199.928 42.0501C198.681 42.0501 197.781 42.7541 197.781 43.7145V43.7232C197.781 44.3881 198.242 44.9139 198.946 45.1138V45.1355C198.125 45.3137 197.555 45.9438 197.555 46.7347V46.7434C197.555 47.8081 198.537 48.5556 199.928 48.5556ZM199.928 44.7879C199.228 44.7879 198.746 44.3794 198.746 43.8057V43.7971C198.746 43.2234 199.228 42.8236 199.928 42.8236C200.628 42.8236 201.11 43.2234 201.11 43.7971V43.8057C201.11 44.3794 200.632 44.7879 199.928 44.7879ZM199.928 47.7733C199.128 47.7733 198.559 47.317 198.559 46.6826V46.6739C198.559 46.0307 199.124 45.5657 199.928 45.5657C200.736 45.5657 201.301 46.0307 201.301 46.6739V46.6826C201.301 47.317 200.732 47.7733 199.928 47.7733Z" fill="white"/>
</g>
<g clip-path="url(#clip4)">
<rect x="52.0303" y="57.2383" width="116.384" height="3.42305" rx="1.71153" fill="#FF5A6D"/>
<rect x="52.7148" y="57.9229" width="15.0614" height="2.05383" rx="1.02692" fill="white"/>
</g>
<rect x="52.0303" y="66.1382" width="95.9614" height="2.78149" rx="1.39075" fill="white" fill-opacity="0.3"/>
<rect x="52.0303" y="74.3965" width="119" height="3" rx="1.5" fill="white" fill-opacity="0.3"/>
</g>
</g>
<g clip-path="url(#clip5)">
<circle cx="26.0151" cy="109.719" r="12.323" fill="black" fill-opacity="0.2"/>
<path d="M23.301 114.504H29.5454V113.421H24.9724V113.314L27.1653 111.048C28.9103 109.249 29.3849 108.447 29.3849 107.344V107.33C29.3849 105.773 28.0946 104.629 26.4098 104.629C24.5646 104.629 23.2408 105.86 23.2341 107.571L23.2475 107.578L24.3974 107.585L24.4041 107.571C24.4041 106.435 25.173 105.679 26.3296 105.679C27.4662 105.679 28.1548 106.441 28.1548 107.457V107.471C28.1548 108.313 27.7938 108.815 26.5636 110.145L23.301 113.675V114.504Z" fill="white"/>
<g clip-path="url(#clip6)">
<g clip-path="url(#clip7)">
<path d="M52.9228 107.743H55.6355C57.8017 107.743 59.0402 106.414 59.0402 104.097V104.087C59.0402 101.821 57.7866 100.507 55.6355 100.507H52.9228V107.743ZM54.2165 106.655V101.595H55.465C56.8841 101.595 57.7214 102.518 57.7214 104.107V104.117C57.7214 105.742 56.9041 106.655 55.465 106.655H54.2165ZM62.7407 107.853C64.2299 107.853 64.962 106.996 65.1375 106.289L65.1525 106.243H63.9642L63.9491 106.279C63.8288 106.529 63.4427 106.87 62.7657 106.87C61.9183 106.87 61.3868 106.299 61.3718 105.316H65.2027V104.905C65.2027 103.25 64.2399 102.157 62.6805 102.157C61.1211 102.157 60.1232 103.285 60.1232 105.01V105.015C60.1232 106.76 61.1111 107.853 62.7407 107.853ZM62.6955 103.135C63.3925 103.135 63.899 103.581 63.9842 104.478H61.3818C61.4771 103.606 61.9986 103.135 62.6955 103.135ZM68.5221 107.853C69.8709 107.853 70.8487 107.156 70.8487 106.113V106.103C70.8487 105.306 70.3423 104.849 69.2692 104.609L68.3817 104.413C67.79 104.278 67.5594 104.082 67.5594 103.761V103.756C67.5594 103.345 67.9605 103.074 68.5171 103.074C69.1037 103.074 69.4648 103.355 69.555 103.701L69.56 103.716H70.7334V103.706C70.6531 102.819 69.8559 102.157 68.5221 102.157C67.2284 102.157 66.3259 102.839 66.3259 103.827V103.832C66.3259 104.639 66.8223 105.13 67.8652 105.361L68.7527 105.561C69.3545 105.697 69.5951 105.907 69.5951 106.228V106.238C69.5951 106.65 69.1639 106.93 68.5421 106.93C67.9204 106.93 67.5543 106.665 67.424 106.284L67.419 106.274H66.1804V106.284C66.2857 107.211 67.1281 107.853 68.5221 107.853ZM72.7491 101.345C73.1552 101.345 73.4912 101.019 73.4912 100.607C73.4912 100.201 73.1552 99.8703 72.7491 99.8703C72.3379 99.8703 72.002 100.201 72.002 100.607C72.002 101.019 72.3379 101.345 72.7491 101.345ZM72.1223 107.743H73.3709V102.262H72.1223V107.743ZM77.2619 109.668C78.8614 109.668 79.8743 108.871 79.8743 107.607V102.262H78.6258V103.165H78.5606C78.2497 102.543 77.658 102.172 76.9009 102.172C75.4869 102.172 74.6244 103.265 74.6244 104.849V104.859C74.6244 106.414 75.4869 107.487 76.8758 107.487C77.633 107.487 78.2296 107.166 78.5455 106.579H78.6308V107.627C78.6308 108.329 78.1344 108.725 77.282 108.725C76.585 108.725 76.1688 108.48 76.0836 108.129L76.0785 108.114H74.83L74.825 108.129C74.9503 109.051 75.8178 109.668 77.2619 109.668ZM77.2619 106.494C76.3944 106.494 75.903 105.827 75.903 104.859V104.849C75.903 103.882 76.3944 103.21 77.2619 103.21C78.1243 103.21 78.6508 103.882 78.6508 104.849V104.859C78.6508 105.827 78.1294 106.494 77.2619 106.494ZM81.4037 107.743H82.6522V104.549C82.6522 103.726 83.1135 103.205 83.8556 103.205C84.6128 103.205 84.9588 103.636 84.9588 104.488V107.743H86.2073V104.198C86.2073 102.894 85.5404 102.157 84.3169 102.157C83.5247 102.157 82.9982 102.513 82.7374 103.099H82.6522V102.262H81.4037V107.743ZM93.6434 107.923C95.5739 107.923 96.8074 106.725 96.8074 104.854V103.952H93.8039V104.94H95.5388L95.5338 105.09C95.5187 106.118 94.7666 106.805 93.6635 106.805C92.3748 106.805 91.5625 105.777 91.5625 104.117V104.107C91.5625 102.473 92.3598 101.445 93.6233 101.445C94.551 101.445 95.2129 101.906 95.4485 102.698L95.4636 102.748H96.7472L96.7422 102.698C96.4965 101.284 95.2931 100.327 93.6233 100.327C91.5625 100.327 90.2438 101.806 90.2438 104.117V104.127C90.2438 106.464 91.5475 107.923 93.6434 107.923ZM99.9964 107.853C100.789 107.853 101.345 107.497 101.601 106.91H101.686V107.743H102.935V102.262H101.686V105.456C101.686 106.279 101.255 106.8 100.448 106.8C99.6956 106.8 99.3797 106.369 99.3797 105.521V102.262H98.1311V105.807C98.1311 107.111 98.7629 107.853 99.9964 107.853ZM105.101 101.345C105.507 101.345 105.843 101.019 105.843 100.607C105.843 100.201 105.507 99.8703 105.101 99.8703C104.69 99.8703 104.354 100.201 104.354 100.607C104.354 101.019 104.69 101.345 105.101 101.345ZM104.474 107.743H105.723V102.262H104.474V107.743ZM109.233 107.833C110.005 107.833 110.597 107.482 110.897 106.885H110.983V107.743H112.236V100.141H110.983V103.135H110.897C110.612 102.543 109.985 102.172 109.233 102.172C107.844 102.172 106.986 103.255 106.986 105V105.01C106.986 106.745 107.859 107.833 109.233 107.833ZM109.624 106.78C108.771 106.78 108.255 106.113 108.255 105.01V105C108.255 103.897 108.776 103.225 109.624 103.225C110.471 103.225 111.003 103.902 111.003 105V105.01C111.003 106.108 110.476 106.78 109.624 106.78ZM116.152 107.853C117.642 107.853 118.374 106.996 118.549 106.289L118.564 106.243H117.376L117.361 106.279C117.24 106.529 116.854 106.87 116.177 106.87C115.33 106.87 114.798 106.299 114.783 105.316H118.614V104.905C118.614 103.25 117.652 102.157 116.092 102.157C114.533 102.157 113.535 103.285 113.535 105.01V105.015C113.535 106.76 114.523 107.853 116.152 107.853ZM116.107 103.135C116.804 103.135 117.311 103.581 117.396 104.478H114.793C114.889 103.606 115.41 103.135 116.107 103.135ZM119.913 107.743H121.162V100.141H119.913V107.743ZM123.383 101.345C123.789 101.345 124.125 101.019 124.125 100.607C124.125 100.201 123.789 99.8703 123.383 99.8703C122.972 99.8703 122.636 100.201 122.636 100.607C122.636 101.019 122.972 101.345 123.383 101.345ZM122.756 107.743H124.005V102.262H122.756V107.743ZM125.539 107.743H126.787V104.549C126.787 103.726 127.249 103.205 127.991 103.205C128.748 103.205 129.094 103.636 129.094 104.488V107.743H130.343V104.198C130.343 102.894 129.676 102.157 128.452 102.157C127.66 102.157 127.133 102.513 126.873 103.099H126.787V102.262H125.539V107.743ZM134.163 107.853C135.653 107.853 136.385 106.996 136.56 106.289L136.575 106.243H135.387L135.372 106.279C135.252 106.529 134.865 106.87 134.188 106.87C133.341 106.87 132.81 106.299 132.795 105.316H136.625V104.905C136.625 103.25 135.663 102.157 134.103 102.157C132.544 102.157 131.546 103.285 131.546 105.01V105.015C131.546 106.76 132.534 107.853 134.163 107.853ZM134.118 103.135C134.815 103.135 135.322 103.581 135.407 104.478H132.805C132.9 103.606 133.421 103.135 134.118 103.135ZM139.945 107.853C141.294 107.853 142.271 107.156 142.271 106.113V106.103C142.271 105.306 141.765 104.849 140.692 104.609L139.804 104.413C139.213 104.278 138.982 104.082 138.982 103.761V103.756C138.982 103.345 139.383 103.074 139.94 103.074C140.526 103.074 140.888 103.355 140.978 103.701L140.983 103.716H142.156V103.706C142.076 102.819 141.279 102.157 139.945 102.157C138.651 102.157 137.749 102.839 137.749 103.827V103.832C137.749 104.639 138.245 105.13 139.288 105.361L140.175 105.561C140.777 105.697 141.018 105.907 141.018 106.228V106.238C141.018 106.65 140.587 106.93 139.965 106.93C139.343 106.93 138.977 106.665 138.847 106.284L138.842 106.274H137.603V106.284C137.708 107.211 138.551 107.853 139.945 107.853Z" fill="white"/>
<rect x="178.507" y="97.3965" width="28.7536" height="13.6922" rx="3.42305" fill="black" fill-opacity="0.2"/>
<path d="M185.44 101.343C184.123 101.343 183.167 102.264 183.167 103.524V103.533C183.167 104.732 184.027 105.619 185.222 105.619C186.074 105.619 186.643 105.171 186.869 104.667H186.956C186.934 105.984 186.504 107.092 185.405 107.092C184.818 107.092 184.41 106.788 184.231 106.31L184.218 106.266H183.249L183.262 106.319C183.467 107.266 184.292 107.918 185.405 107.918C186.956 107.918 187.882 106.666 187.882 104.541V104.532C187.882 102.229 186.695 101.343 185.44 101.343ZM185.435 104.832C184.679 104.832 184.127 104.276 184.127 103.507V103.498C184.127 102.746 184.714 102.16 185.448 102.16C186.187 102.16 186.765 102.759 186.765 103.524V103.529C186.765 104.285 186.187 104.832 185.435 104.832ZM189.816 103.62C190.176 103.62 190.45 103.337 190.45 102.985C190.45 102.629 190.176 102.351 189.816 102.351C189.455 102.351 189.177 102.629 189.177 102.985C189.177 103.337 189.455 103.62 189.816 103.62ZM189.816 106.905C190.176 106.905 190.45 106.623 190.45 106.271C190.45 105.914 190.176 105.636 189.816 105.636C189.455 105.636 189.177 105.914 189.177 106.271C189.177 106.623 189.455 106.905 189.816 106.905ZM194.083 107.918C195.526 107.918 196.399 106.653 196.399 104.632V104.624C196.399 102.603 195.526 101.343 194.083 101.343C192.636 101.343 191.767 102.603 191.767 104.624V104.632C191.767 106.653 192.636 107.918 194.083 107.918ZM194.083 107.109C193.24 107.109 192.749 106.166 192.749 104.632V104.624C192.749 103.09 193.24 102.155 194.083 102.155C194.922 102.155 195.417 103.09 195.417 104.624V104.632C195.417 106.166 194.922 107.109 194.083 107.109ZM197.651 107.766H201.875V106.936H198.976V106.849L200.306 105.523C201.445 104.393 201.775 103.846 201.775 103.133V103.12C201.775 102.086 200.914 101.343 199.745 101.343C198.485 101.343 197.599 102.151 197.594 103.298L197.603 103.307H198.516L198.52 103.294C198.52 102.607 198.989 102.147 199.693 102.147C200.38 102.147 200.801 102.599 200.801 103.211V103.224C200.801 103.733 200.562 104.054 199.732 104.919L197.651 107.105V107.766Z" fill="white"/>
</g>
<g clip-path="url(#clip8)">
<rect x="52.0304" y="116.566" width="123.23" height="3.42305" rx="1.71153" fill="black" fill-opacity="0.2"/>
<rect x="52.715" y="117.25" width="8.21532" height="2.05383" rx="1.02692" fill="white"/>
</g>
<rect x="52.0303" y="125.466" width="105" height="3" rx="1.5" fill="white" fill-opacity="0.3"/>
<rect x="52.0303" y="133.942" width="66" height="3" rx="1.5" fill="white" fill-opacity="0.3"/>
<rect x="52.0303" y="142.419" width="66" height="3" rx="1.5" fill="white" fill-opacity="0.3"/>
</g>
</g>
<g clip-path="url(#clip9)">
<circle cx="26.0151" cy="177.742" r="12.323" fill="black" fill-opacity="0.2"/>
<path d="M26.4232 182.688C28.3553 182.688 29.7727 181.498 29.7727 179.887V179.874C29.7727 178.503 28.8167 177.627 27.4127 177.507V177.48C28.6161 177.226 29.4585 176.41 29.4585 175.22V175.207C29.4585 173.743 28.2484 172.72 26.4098 172.72C24.6047 172.72 23.3612 173.77 23.2074 175.341L23.2007 175.408H24.3573L24.364 175.341C24.4643 174.365 25.2733 173.763 26.4098 173.763C27.5865 173.763 28.2484 174.345 28.2484 175.354V175.368C28.2484 176.33 27.4461 177.039 26.2962 177.039H25.1395V178.055H26.3497C27.7002 178.055 28.5492 178.717 28.5492 179.9V179.914C28.5492 180.937 27.6868 181.645 26.4232 181.645C25.1395 181.645 24.2637 180.99 24.1701 180.041L24.1634 179.974H23.0068L23.0135 180.054C23.1405 181.578 24.4309 182.688 26.4232 182.688Z" fill="white"/>
<g clip-path="url(#clip10)">
<g clip-path="url(#clip11)">
<path d="M55.9414 175.946C57.6111 175.946 58.8095 174.978 59.0001 173.529V173.494H57.7315L57.7264 173.519C57.5409 174.317 56.859 174.828 55.9414 174.828C54.7079 174.828 53.9407 173.8 53.9407 172.15V172.14C53.9407 170.496 54.7079 169.468 55.9364 169.468C56.849 169.468 57.5409 170.034 57.7264 170.892L57.7315 170.912H59.0001V170.872C58.8296 169.393 57.581 168.35 55.9364 168.35C53.8855 168.35 52.6169 169.799 52.6169 172.145V172.155C52.6169 174.492 53.8906 175.946 55.9414 175.946ZM62.6805 175.876C64.3202 175.876 65.318 174.803 65.318 173.028V173.018C65.318 171.253 64.3151 170.18 62.6805 170.18C61.0509 170.18 60.043 171.258 60.043 173.018V173.028C60.043 174.803 61.0358 175.876 62.6805 175.876ZM62.6805 174.863C61.813 174.863 61.3166 174.186 61.3166 173.033V173.023C61.3166 171.87 61.813 171.188 62.6805 171.188C63.543 171.188 64.0394 171.87 64.0394 173.023V173.033C64.0394 174.186 63.548 174.863 62.6805 174.863ZM66.6217 175.766H67.8702V168.164H66.6217V175.766ZM71.8164 175.876C73.4561 175.876 74.4539 174.803 74.4539 173.028V173.018C74.4539 171.253 73.4511 170.18 71.8164 170.18C70.1868 170.18 69.179 171.258 69.179 173.018V173.028C69.179 174.803 70.1718 175.876 71.8164 175.876ZM71.8164 174.863C70.949 174.863 70.4526 174.186 70.4526 173.033V173.023C70.4526 171.87 70.949 171.188 71.8164 171.188C72.6789 171.188 73.1753 171.87 73.1753 173.023V173.033C73.1753 174.186 72.6839 174.863 71.8164 174.863ZM75.7075 175.766H76.956V172.582C76.956 171.799 77.5026 171.303 78.3349 171.303C78.5506 171.303 78.7561 171.333 78.9567 171.373V170.255C78.8364 170.22 78.6408 170.195 78.4503 170.195C77.7282 170.195 77.2268 170.541 77.0413 171.127H76.956V170.285H75.7075V175.766ZM81.9302 175.876C83.279 175.876 84.2568 175.179 84.2568 174.136V174.126C84.2568 173.329 83.7503 172.872 82.6773 172.632L81.7898 172.436C81.1981 172.301 80.9674 172.105 80.9674 171.784V171.779C80.9674 171.368 81.3686 171.097 81.9251 171.097C82.5118 171.097 82.8728 171.378 82.9631 171.724L82.9681 171.739H84.1414V171.729C84.0612 170.842 83.2639 170.18 81.9302 170.18C80.6365 170.18 79.7339 170.862 79.7339 171.85V171.855C79.7339 172.662 80.2303 173.153 81.2733 173.384L82.1608 173.584C82.7625 173.72 83.0032 173.93 83.0032 174.251V174.261C83.0032 174.673 82.572 174.953 81.9502 174.953C81.3284 174.953 80.9624 174.688 80.832 174.306L80.827 174.296H79.5885V174.306C79.6938 175.234 80.5362 175.876 81.9302 175.876ZM89.7473 175.856C90.4694 175.856 91.051 175.545 91.3519 175.013H91.4371V175.766H92.6706V172.02C92.6706 170.862 91.8784 170.18 90.4694 170.18C89.1657 170.18 88.2832 170.792 88.1628 171.714L88.1578 171.759H89.3362L89.3412 171.739C89.4665 171.378 89.8376 171.173 90.4092 171.173C91.0811 171.173 91.4371 171.473 91.4371 172.02V172.491L90.0281 172.577C88.6944 172.657 87.9472 173.228 87.9472 174.206V174.216C87.9472 175.214 88.7044 175.856 89.7473 175.856ZM89.1807 174.156V174.146C89.1807 173.695 89.5067 173.439 90.2036 173.394L91.4371 173.314V173.755C91.4371 174.407 90.8806 174.898 90.1284 174.898C89.5769 174.898 89.1807 174.622 89.1807 174.156ZM94.1699 175.766H95.4184V172.572C95.4184 171.749 95.8798 171.228 96.6219 171.228C97.379 171.228 97.725 171.659 97.725 172.511V175.766H98.9735V172.221C98.9735 170.917 98.3066 170.18 97.0832 170.18C96.2909 170.18 95.7644 170.536 95.5037 171.122H95.4184V170.285H94.1699V175.766ZM102.423 175.856C103.196 175.856 103.787 175.505 104.088 174.908H104.173V175.766H105.427V168.164H104.173V171.158H104.088C103.802 170.566 103.175 170.195 102.423 170.195C101.034 170.195 100.177 171.278 100.177 173.023V173.033C100.177 174.768 101.049 175.856 102.423 175.856ZM102.814 174.803C101.962 174.803 101.446 174.136 101.446 173.033V173.023C101.446 171.92 101.967 171.248 102.814 171.248C103.662 171.248 104.193 171.925 104.193 173.023V173.033C104.193 174.131 103.667 174.803 102.814 174.803ZM112.958 175.946C114.889 175.946 116.122 174.748 116.122 172.877V171.975H113.119V172.963H114.854L114.849 173.113C114.834 174.141 114.081 174.828 112.978 174.828C111.69 174.828 110.877 173.8 110.877 172.14V172.13C110.877 170.496 111.675 169.468 112.938 169.468C113.866 169.468 114.528 169.929 114.763 170.721L114.778 170.771H116.062L116.057 170.721C115.811 169.307 114.608 168.35 112.938 168.35C110.877 168.35 109.559 169.829 109.559 172.14V172.15C109.559 174.487 110.862 175.946 112.958 175.946ZM117.496 175.766H118.745V172.582C118.745 171.799 119.291 171.303 120.124 171.303C120.339 171.303 120.545 171.333 120.745 171.373V170.255C120.625 170.22 120.429 170.195 120.239 170.195C119.517 170.195 119.015 170.541 118.83 171.127H118.745V170.285H117.496V175.766ZM123.192 175.856C123.914 175.856 124.496 175.545 124.797 175.013H124.882V175.766H126.116V172.02C126.116 170.862 125.323 170.18 123.914 170.18C122.611 170.18 121.728 170.792 121.608 171.714L121.603 171.759H122.781L122.786 171.739C122.911 171.378 123.283 171.173 123.854 171.173C124.526 171.173 124.882 171.473 124.882 172.02V172.491L123.473 172.577C122.139 172.657 121.392 173.228 121.392 174.206V174.216C121.392 175.214 122.149 175.856 123.192 175.856ZM122.626 174.156V174.146C122.626 173.695 122.952 173.439 123.649 173.394L124.882 173.314V173.755C124.882 174.407 124.326 174.898 123.573 174.898C123.022 174.898 122.626 174.622 122.626 174.156ZM129.59 175.856C130.363 175.856 130.954 175.505 131.255 174.908H131.34V175.766H132.594V168.164H131.34V171.158H131.255C130.969 170.566 130.343 170.195 129.59 170.195C128.202 170.195 127.344 171.278 127.344 173.023V173.033C127.344 174.768 128.217 175.856 129.59 175.856ZM129.982 174.803C129.129 174.803 128.613 174.136 128.613 173.033V173.023C128.613 171.92 129.134 171.248 129.982 171.248C130.829 171.248 131.36 171.925 131.36 173.023V173.033C131.36 174.131 130.834 174.803 129.982 174.803ZM134.805 169.367C135.211 169.367 135.547 169.042 135.547 168.63C135.547 168.224 135.211 167.893 134.805 167.893C134.394 167.893 134.058 168.224 134.058 168.63C134.058 169.042 134.394 169.367 134.805 169.367ZM134.178 175.766H135.427V170.285H134.178V175.766ZM139.308 175.876C140.797 175.876 141.529 175.019 141.705 174.311L141.72 174.266H140.532L140.516 174.301C140.396 174.552 140.01 174.893 139.333 174.893C138.486 174.893 137.954 174.322 137.939 173.339H141.77V172.928C141.77 171.273 140.807 170.18 139.248 170.18C137.688 170.18 136.691 171.308 136.691 173.033V173.038C136.691 174.783 137.678 175.876 139.308 175.876ZM139.263 171.158C139.96 171.158 140.466 171.604 140.552 172.501H137.949C138.044 171.629 138.566 171.158 139.263 171.158ZM143.019 175.766H144.267V172.572C144.267 171.749 144.728 171.228 145.471 171.228C146.228 171.228 146.574 171.659 146.574 172.511V175.766H147.822V172.221C147.822 170.917 147.155 170.18 145.932 170.18C145.14 170.18 144.613 170.536 144.352 171.122H144.267V170.285H143.019V175.766ZM151.453 175.791C151.693 175.791 151.924 175.771 152.104 175.736V174.773C151.954 174.788 151.859 174.793 151.683 174.793C151.162 174.793 150.946 174.562 150.946 174.016V171.253H152.104V170.285H150.946V168.941H149.677V170.285H148.825V171.253H149.677V174.311C149.677 175.37 150.194 175.791 151.453 175.791ZM155.349 175.876C156.697 175.876 157.675 175.179 157.675 174.136V174.126C157.675 173.329 157.169 172.872 156.096 172.632L155.208 172.436C154.616 172.301 154.386 172.105 154.386 171.784V171.779C154.386 171.368 154.787 171.097 155.344 171.097C155.93 171.097 156.291 171.378 156.382 171.724L156.387 171.739H157.56V171.729C157.48 170.842 156.682 170.18 155.349 170.18C154.055 170.18 153.152 170.862 153.152 171.85V171.855C153.152 172.662 153.649 173.153 154.692 173.384L155.579 173.584C156.181 173.72 156.422 173.93 156.422 174.251V174.261C156.422 174.673 155.99 174.953 155.369 174.953C154.747 174.953 154.381 174.688 154.25 174.306L154.245 174.296H153.007V174.306C153.112 175.234 153.955 175.876 155.349 175.876Z" fill="white"/>
<rect x="178.507" y="165.419" width="27.3844" height="13.6922" rx="3.42305" fill="black" fill-opacity="0.2"/>
<path d="M185.44 169.366C184.123 169.366 183.167 170.287 183.167 171.547V171.556C183.167 172.755 184.027 173.642 185.222 173.642C186.074 173.642 186.643 173.194 186.869 172.69H186.956C186.934 174.007 186.504 175.115 185.405 175.115C184.818 175.115 184.41 174.811 184.231 174.333L184.218 174.289H183.249L183.262 174.341C183.467 175.289 184.292 175.941 185.405 175.941C186.956 175.941 187.882 174.689 187.882 172.564V172.555C187.882 170.252 186.695 169.366 185.44 169.366ZM185.435 172.855C184.679 172.855 184.127 172.299 184.127 171.53V171.521C184.127 170.769 184.714 170.183 185.448 170.183C186.187 170.183 186.765 170.782 186.765 171.547V171.552C186.765 172.308 186.187 172.855 185.435 172.855ZM189.816 171.643C190.176 171.643 190.45 171.36 190.45 171.008C190.45 170.652 190.176 170.374 189.816 170.374C189.455 170.374 189.177 170.652 189.177 171.008C189.177 171.36 189.455 171.643 189.816 171.643ZM189.816 174.928C190.176 174.928 190.45 174.646 190.45 174.294C190.45 173.937 190.176 173.659 189.816 173.659C189.455 173.659 189.177 173.937 189.177 174.294C189.177 174.646 189.455 174.928 189.816 174.928ZM194.07 175.906C195.4 175.906 196.343 175.132 196.343 174.055V174.046C196.343 173.168 195.726 172.612 194.804 172.529V172.508C195.569 172.347 196.126 171.825 196.126 171.047V171.039C196.126 170.07 195.309 169.4 194.061 169.4C192.836 169.4 192.002 170.1 191.906 171.156L191.902 171.204H192.814L192.819 171.16C192.879 170.569 193.366 170.2 194.061 170.2C194.77 170.2 195.178 170.556 195.178 171.165V171.173C195.178 171.756 194.691 172.177 193.974 172.177H193.24V172.933H194.005C194.839 172.933 195.352 173.329 195.352 174.037V174.046C195.352 174.663 194.835 175.093 194.07 175.093C193.292 175.093 192.766 174.693 192.706 174.124L192.701 174.081H191.771L191.776 174.133C191.858 175.171 192.732 175.906 194.07 175.906ZM199.115 175.789H200.089V169.518H199.115L197.464 170.691V171.647L199.042 170.522H199.115V175.789Z" fill="white"/>
</g>
<g clip-path="url(#clip12)">
<rect x="52.0304" y="184.589" width="123.23" height="3.42305" rx="1.71153" fill="black" fill-opacity="0.2"/>
<rect x="52.715" y="185.273" width="49.2919" height="2.05383" rx="1.02692" fill="white"/>
</g>
<rect x="52.0303" y="193.489" width="95.9614" height="2.78149" rx="1.39075" fill="white" fill-opacity="0.3"/>
<rect x="52.0303" y="201.747" width="111" height="3" rx="1.5" fill="white" fill-opacity="0.3"/>
<rect x="52.0303" y="210.224" width="61" height="3" rx="1.5" fill="white" fill-opacity="0.3"/>
</g>
</g>
</g>
<g clip-path="url(#clip13)">
<rect x="220.953" y="13.6921" width="164.306" height="246.46" rx="6.8461" fill="white"/>
<rect x="220.953" y="13.6921" width="164.306" height="246.46" rx="6.8461" fill="#007AFF"/>
<path opacity="0.43" d="M251.419 87.7725C246.638 92.357 242.881 100.521 245.714 105.178C247.321 107.82 250.577 108.556 261.7 109.143C282.232 110.226 297.819 109.123 299.252 109.017C313.646 107.95 311.397 107.498 321.31 107.01C332.522 106.458 337.641 106.926 346.28 104.84C353.222 103.164 357.231 102.196 361.216 98.7299C370.077 91.021 369.864 78.7468 369.828 76.7197C369.78 73.9378 369.239 64.3628 362.173 56.6235C351.528 44.9654 331.596 43.5163 321.023 51.3602C308.643 60.5453 316.158 77.234 304.994 83.1792C295.138 88.4284 285.456 77.4555 263.553 81.9262C260.297 82.5909 255.504 83.8554 251.419 87.7725Z" fill="#491EB8"/>
<path opacity="0.2" d="M244.739 120.905C243.25 120.905 242.044 120.546 241.231 119.622C238.915 116.988 240.445 110.437 244.206 106.877C248.278 103.025 253.996 103.844 263.468 105.203C266.751 105.674 270.472 106.207 274.728 106.632C284.012 107.558 293.638 107.715 303.338 107.098C303.389 107.095 303.431 107.133 303.434 107.183C303.437 107.232 303.399 107.275 303.35 107.278C293.64 107.895 284.004 107.738 274.71 106.811C270.45 106.386 266.727 105.852 263.443 105.381C254.024 104.031 248.338 103.215 244.33 107.008C240.63 110.509 239.106 116.932 241.367 119.503C243.378 121.791 248.003 120.447 253.359 118.891C254.819 118.467 256.328 118.028 257.855 117.643C269.347 114.743 276.043 116.394 282.52 117.991C288.326 119.422 294.331 120.902 303.853 119.248C313.587 117.556 319.742 113.922 325.172 110.715C331.476 106.993 336.455 104.053 344.323 106.055C348.442 107.103 351.484 109.061 353.929 110.634C356.969 112.589 359.37 114.133 362.26 113.03C365.045 111.967 367.226 108.838 368.401 104.219C369.46 100.059 369.592 94.9686 368.755 90.6025C366.29 77.7467 353.701 69.3551 343.108 67.9864C336.78 67.1683 333.123 69.0535 328.889 71.2361C324.913 73.2854 320.406 75.6083 312.766 75.9759C304.817 76.3588 300.037 74.3589 294.973 72.2424C290.524 70.3832 285.925 68.4605 278.884 68.1469C278.835 68.1445 278.796 68.1026 278.799 68.0528C278.801 68.0044 278.84 67.9667 278.888 67.9667C278.89 67.9667 278.891 67.9667 278.893 67.9669C285.965 68.282 290.579 70.2109 295.042 72.0761C300.087 74.1845 304.852 76.175 312.757 75.7961C320.358 75.4301 324.846 73.1168 328.806 71.0759C333.067 68.8798 336.748 66.9833 343.131 67.8075C353.787 69.1844 366.451 77.6295 368.932 90.5688C369.774 94.9595 369.64 100.079 368.576 104.263C367.386 108.941 365.166 112.114 362.325 113.198C359.348 114.335 356.914 112.768 353.832 110.785C351.271 109.138 348.369 107.271 344.279 106.23C336.482 104.246 331.531 107.169 325.264 110.871C319.82 114.085 313.65 117.728 303.884 119.425C294.325 121.087 288.301 119.602 282.477 118.166C275.724 116.501 269.347 114.929 257.899 117.818C256.376 118.202 254.868 118.64 253.41 119.064C250.104 120.024 247.073 120.905 244.739 120.905Z" fill="#76F7FF"/>
<path d="M330.985 98.9291C339.74 98.9291 346.837 91.8321 346.837 83.0773C346.837 74.3225 339.74 67.2253 330.985 67.2253C322.23 67.2253 315.133 74.3225 315.133 83.0773C315.133 91.8321 322.23 98.9291 330.985 98.9291Z" fill="#B3CAF8"/>
<path d="M340.796 97.8105H316.93V114.525H340.796V97.8105Z" fill="#76F7FF"/>
<path opacity="0.43" d="M293.265 71.8172C298.339 71.8172 302.453 67.7036 302.453 62.6291C302.453 57.5546 298.339 53.4409 293.265 53.4409C288.19 53.4409 284.076 57.5546 284.076 62.6291C284.076 67.7036 288.19 71.8172 293.265 71.8172Z" fill="#76F7FF"/>
<path d="M300.07 115.351C298.486 115.351 297.198 114.073 297.187 112.487C297.176 110.895 298.458 109.595 300.05 109.584L310.758 109.512L311.499 96.7376C311.591 95.1478 312.951 93.9319 314.545 94.0264C316.134 94.1186 317.348 95.482 317.256 97.0719L316.455 110.862C316.313 113.318 314.275 115.254 311.815 115.271L300.09 115.351C300.083 115.351 300.076 115.351 300.07 115.351Z" fill="#B3825D"/>
<path d="M329.326 115.254C327.787 115.254 326.51 114.038 326.448 112.486C326.384 110.894 327.622 109.553 329.213 109.489L339.516 109.077V96.9045C339.516 95.3121 340.806 94.0212 342.399 94.0212C343.991 94.0212 345.282 95.3121 345.282 96.9045V109.774C345.282 112.49 343.156 114.702 340.442 114.811L329.444 115.251C329.405 115.253 329.366 115.254 329.326 115.254Z" fill="#B3825D"/>
<path d="M363.359 118.12H247.876C247.03 118.12 246.344 117.434 246.344 116.588C246.344 115.742 247.03 115.056 247.876 115.056H363.359C364.205 115.056 364.891 115.742 364.891 116.588C364.891 117.434 364.205 118.12 363.359 118.12Z" fill="#18204D"/>
<path d="M310.82 100.366C310.82 89.9124 318.217 85.3503 327.856 85.3503C337.495 85.3503 345.725 89.9124 345.725 100.366" fill="#76F7FF"/>
<path d="M324.024 72.4354C324.78 72.4354 325.393 71.8223 325.393 71.066C325.393 70.3098 324.78 69.6968 324.024 69.6968C323.268 69.6968 322.655 70.3098 322.655 71.066C322.655 71.8223 323.268 72.4354 324.024 72.4354Z" fill="#F05936"/>
<path d="M331.661 72.4354C332.417 72.4354 333.03 71.8223 333.03 71.066C333.03 70.3098 332.417 69.6968 331.661 69.6968C330.905 69.6968 330.292 70.3098 330.292 71.066C330.292 71.8223 330.905 72.4354 331.661 72.4354Z" fill="#F05936"/>
<path d="M331.66 76.2125V87.7179C331.66 89.803 329.969 91.4933 327.884 91.4933C325.799 91.4933 324.108 89.803 324.108 87.7179V76.2125C324.108 75.432 324.344 74.7072 324.75 74.1056C325.428 73.0987 326.579 72.4365 327.884 72.4365C328.927 72.4365 329.87 72.8591 330.554 73.5425C331.237 74.2259 331.66 75.1697 331.66 76.2125Z" fill="#B3825D"/>
<path d="M331.659 74.5091L331.039 78.6572C331.039 80.717 330.228 83.4599 328.234 83.6452C324.556 83.9872 324.108 81.9549 324.108 79.8696V72.4022C324.849 71.3953 326.106 70.7332 327.533 70.7332C328.673 70.7332 329.704 71.1557 330.451 71.8391C331.197 72.5226 331.659 73.4663 331.659 74.5091Z" fill="#303030"/>
<path d="M328.097 82.8949H327.67C325.703 82.8949 324.108 81.2999 324.108 79.3325V69.4923C324.108 67.5249 325.703 65.9299 327.67 65.9299H328.097C330.064 65.9299 331.659 67.5249 331.659 69.4923V79.3325C331.659 81.2999 330.064 82.8949 328.097 82.8949Z" fill="#B3825D"/>
<path d="M324.646 68.4523L331.156 68.4285C332.529 68.4229 332.643 63.69 330.362 64.2574L329.933 64.5238C329.408 64.1524 328.78 63.9541 328.138 63.9568L324.628 63.9786C323.602 63.9828 322.774 64.8177 322.778 65.8436C322.782 66.8695 323.62 68.4564 324.646 68.4523Z" fill="#76F7FF"/>
<path d="M325.574 71.7824C325.772 71.7824 325.933 71.622 325.933 71.4241C325.933 71.2263 325.772 71.0659 325.574 71.0659C325.377 71.0659 325.216 71.2263 325.216 71.4241C325.216 71.622 325.377 71.7824 325.574 71.7824Z" fill="#303030"/>
<path d="M328.766 71.7824C328.964 71.7824 329.124 71.622 329.124 71.4241C329.124 71.2263 328.964 71.0659 328.766 71.0659C328.568 71.0659 328.408 71.2263 328.408 71.4241C328.408 71.622 328.568 71.7824 328.766 71.7824Z" fill="#303030"/>
<path d="M326.997 76.6159C326.879 76.6159 326.759 76.5749 326.654 76.4958C326.478 76.3643 326.356 76.1448 326.335 75.9224C326.304 75.5972 326.427 75.2933 326.547 74.9994L326.58 74.9169C326.907 74.1003 327.098 73.2411 327.148 72.3628L327.327 72.3729C327.277 73.2706 327.082 74.1491 326.747 74.9837L326.714 75.0672C326.602 75.341 326.487 75.6239 326.514 75.9055C326.53 76.0759 326.627 76.2512 326.761 76.3515C326.828 76.401 326.933 76.454 327.06 76.4297L327.095 76.6065C327.063 76.6129 327.03 76.6159 326.997 76.6159Z" fill="#303030"/>
<path d="M326.952 78.7468C326.738 78.7468 326.585 78.7119 326.572 78.7085L326.613 78.5332C326.619 78.5346 327.277 78.6831 327.748 78.3278C328.049 78.1012 328.214 77.7161 328.239 77.1838L328.419 77.1922C328.391 77.7815 328.201 78.2123 327.856 78.4726C327.56 78.6951 327.211 78.7468 326.952 78.7468Z" fill="#303030"/>
<path d="M327.953 92.3818C327.833 92.3818 327.758 92.3771 327.743 92.3761C327.634 92.3686 327.552 92.2741 327.559 92.1649C327.567 92.0559 327.658 91.9727 327.77 91.9809C327.79 91.9816 329.81 92.1028 331.19 90.8123C332.062 89.9978 332.504 88.7937 332.504 87.2337C332.504 87.1241 332.592 87.0356 332.702 87.0356C332.811 87.0356 332.9 87.1241 332.9 87.2337C332.9 88.9096 332.415 90.2119 331.458 91.1044C330.207 92.2717 328.537 92.3818 327.953 92.3818Z" fill="#B3CAF8"/>
<path d="M362.558 113.239L351.236 113.223L351.234 114.941L362.556 114.956L362.558 113.239Z" fill="#B3CAF8"/>
<path d="M361.228 111.519L349.907 111.503L349.905 113.221L361.226 113.236L361.228 111.519Z" fill="#18204D"/>
<path d="M362.942 109.803L351.621 109.788L351.619 111.505L362.94 111.521L362.942 109.803Z" fill="#76F7FF"/>
<path d="M298.33 114.798H291.415C291.415 113.661 292.336 112.74 293.473 112.74H296.272C297.409 112.74 298.33 113.661 298.33 114.798Z" fill="#76F7FF"/>
<path d="M356.421 119.07H260.066C259.835 119.07 259.647 118.883 259.647 118.651C259.647 118.42 259.835 118.233 260.066 118.233H356.421C356.652 118.233 356.84 118.42 356.84 118.651C356.84 118.883 356.652 119.07 356.421 119.07Z" fill="#B3CAF8"/>
<path d="M347.1 69.7456C349.698 69.7456 351.803 67.6402 351.803 65.043C351.803 62.4459 349.698 60.3406 347.1 60.3406C344.503 60.3406 342.398 62.4459 342.398 65.043C342.398 67.6402 344.503 69.7456 347.1 69.7456Z" fill="#76F7FF"/>
<path d="M325.928 70.1819L324.002 70.6459L324.044 70.8211L325.97 70.3571L325.928 70.1819Z" fill="#303030"/>
<path d="M328.325 70.1819L328.283 70.3571L330.209 70.8205L330.251 70.6452L328.325 70.1819Z" fill="#303030"/>
<path d="M330.236 69.1838C330.286 69.1838 330.326 69.1436 330.326 69.0939C330.326 69.0441 330.286 69.0039 330.236 69.0039C330.187 69.0039 330.146 69.0441 330.146 69.0939C330.146 69.1436 330.187 69.1838 330.236 69.1838Z" fill="#76F7FF"/>
<path d="M330.146 68.7908C330.196 68.7908 330.237 68.7506 330.237 68.7008C330.237 68.6511 330.196 68.6108 330.146 68.6108C330.097 68.6108 330.057 68.6511 330.057 68.7008C330.057 68.7506 330.097 68.7908 330.146 68.7908Z" fill="#76F7FF"/>
<path d="M329.472 68.7908C329.521 68.7908 329.562 68.7506 329.562 68.7008C329.562 68.6511 329.521 68.6108 329.472 68.6108C329.422 68.6108 329.382 68.6511 329.382 68.7008C329.382 68.7506 329.422 68.7908 329.472 68.7908Z" fill="#76F7FF"/>
<path d="M329.806 68.7908C329.855 68.7908 329.896 68.7506 329.896 68.7008C329.896 68.6511 329.855 68.6108 329.806 68.6108C329.756 68.6108 329.716 68.6511 329.716 68.7008C329.716 68.7506 329.756 68.7908 329.806 68.7908Z" fill="#76F7FF"/>
<path d="M331.207 68.7908C331.257 68.7908 331.297 68.7506 331.297 68.7008C331.297 68.6511 331.257 68.6108 331.207 68.6108C331.158 68.6108 331.117 68.6511 331.117 68.7008C331.117 68.7506 331.158 68.7908 331.207 68.7908Z" fill="#76F7FF"/>
<path d="M330.536 68.7908C330.586 68.7908 330.626 68.7506 330.626 68.7008C330.626 68.6511 330.586 68.6108 330.536 68.6108C330.487 68.6108 330.446 68.6511 330.446 68.7008C330.446 68.7506 330.487 68.7908 330.536 68.7908Z" fill="#76F7FF"/>
<path d="M330.87 68.7908C330.92 68.7908 330.961 68.7506 330.961 68.7008C330.961 68.6511 330.92 68.6108 330.87 68.6108C330.821 68.6108 330.781 68.6511 330.781 68.7008C330.781 68.7506 330.821 68.7908 330.87 68.7908Z" fill="#76F7FF"/>
<path d="M331.316 69.1012C331.366 69.1012 331.406 69.0609 331.406 69.0113C331.406 68.9615 331.366 68.9211 331.316 68.9211C331.266 68.9211 331.226 68.9615 331.226 69.0113C331.226 69.0609 331.266 69.1012 331.316 69.1012Z" fill="#76F7FF"/>
<path d="M330.61 69.1811C330.659 69.1811 330.7 69.1407 330.7 69.0909C330.7 69.0414 330.659 69.001 330.61 69.001C330.56 69.001 330.52 69.0414 330.52 69.0909C330.52 69.1407 330.56 69.1811 330.61 69.1811Z" fill="#76F7FF"/>
<path d="M330.983 69.1838C331.033 69.1838 331.073 69.1436 331.073 69.0939C331.073 69.0441 331.033 69.0039 330.983 69.0039C330.933 69.0039 330.893 69.0441 330.893 69.0939C330.893 69.1436 330.933 69.1838 330.983 69.1838Z" fill="#76F7FF"/>
<path d="M331.363 69.4338C331.413 69.4338 331.453 69.3936 331.453 69.3439C331.453 69.2941 331.413 69.2539 331.363 69.2539C331.314 69.2539 331.273 69.2941 331.273 69.3439C331.273 69.3936 331.314 69.4338 331.363 69.4338Z" fill="#76F7FF"/>
<path d="M330.623 69.5244C330.673 69.5244 330.713 69.4842 330.713 69.4344C330.713 69.3847 330.673 69.3445 330.623 69.3445C330.574 69.3445 330.533 69.3847 330.533 69.4344C330.533 69.4842 330.574 69.5244 330.623 69.5244Z" fill="#76F7FF"/>
<path d="M331.033 69.5168C331.083 69.5168 331.124 69.4766 331.124 69.4269C331.124 69.3771 331.083 69.3369 331.033 69.3369C330.984 69.3369 330.943 69.3771 330.943 69.4269C330.943 69.4766 330.984 69.5168 331.033 69.5168Z" fill="#76F7FF"/>
<path d="M331.386 69.7759C331.436 69.7759 331.477 69.7357 331.477 69.6859C331.477 69.6362 331.436 69.5959 331.386 69.5959C331.337 69.5959 331.297 69.6362 331.297 69.6859C331.297 69.7357 331.337 69.7759 331.386 69.7759Z" fill="#76F7FF"/>
<path d="M331.059 69.8601C331.109 69.8601 331.149 69.8199 331.149 69.7701C331.149 69.7204 331.109 69.6802 331.059 69.6802C331.01 69.6802 330.969 69.7204 330.969 69.7701C330.969 69.8199 331.01 69.8601 331.059 69.8601Z" fill="#76F7FF"/>
<path d="M331.418 70.1191C331.467 70.1191 331.508 70.0788 331.508 70.0292C331.508 69.9794 331.467 69.9392 331.418 69.9392C331.368 69.9392 331.328 69.9794 331.328 70.0292C331.328 70.0788 331.368 70.1191 331.418 70.1191Z" fill="#76F7FF"/>
<path d="M331.084 70.2036C331.133 70.2036 331.174 70.1634 331.174 70.1136C331.174 70.0639 331.133 70.0237 331.084 70.0237C331.034 70.0237 330.994 70.0639 330.994 70.1136C330.994 70.1634 331.034 70.2036 331.084 70.2036Z" fill="#76F7FF"/>
<path d="M331.418 70.4643C331.467 70.4643 331.508 70.4239 331.508 70.3741C331.508 70.3246 331.467 70.2842 331.418 70.2842C331.368 70.2842 331.328 70.3246 331.328 70.3741C331.328 70.4239 331.368 70.4643 331.418 70.4643Z" fill="#76F7FF"/>
<path d="M331.084 70.5469C331.133 70.5469 331.174 70.5065 331.174 70.4569C331.174 70.4072 331.133 70.3669 331.084 70.3669C331.034 70.3669 330.994 70.4072 330.994 70.4569C330.994 70.5065 331.034 70.5469 331.084 70.5469Z" fill="#76F7FF"/>
<path d="M331.418 70.8076C331.467 70.8076 331.508 70.7674 331.508 70.7177C331.508 70.6679 331.467 70.6277 331.418 70.6277C331.368 70.6277 331.328 70.6679 331.328 70.7177C331.328 70.7674 331.368 70.8076 331.418 70.8076Z" fill="#76F7FF"/>
<path d="M331.084 70.8996C331.133 70.8996 331.174 70.8592 331.174 70.8096C331.174 70.7599 331.133 70.7195 331.084 70.7195C331.034 70.7195 330.994 70.7599 330.994 70.8096C330.994 70.8592 331.034 70.8996 331.084 70.8996Z" fill="#76F7FF"/>
<path d="M331.418 71.1584C331.467 71.1584 331.508 71.1182 331.508 71.0685C331.508 71.0187 331.467 70.9785 331.418 70.9785C331.368 70.9785 331.328 71.0187 331.328 71.0685C331.328 71.1182 331.368 71.1584 331.418 71.1584Z" fill="#76F7FF"/>
<path d="M331.084 71.2505C331.133 71.2505 331.174 71.2103 331.174 71.1605C331.174 71.1109 331.133 71.0706 331.084 71.0706C331.034 71.0706 330.994 71.1109 330.994 71.1605C330.994 71.2103 331.034 71.2505 331.084 71.2505Z" fill="#76F7FF"/>
<path d="M245.925 71.2585L285.186 72.6295C285.633 72.645 286.273 73.1265 286.613 73.7035L288.229 76.4412L288.384 76.4467L286.769 73.7088C286.364 73.0224 285.601 72.4486 285.068 72.4299L245.807 71.0588C245.275 71.0403 245.172 71.5841 245.577 72.2704L247.192 75.0082L247.347 75.0135L245.732 72.2759C245.391 71.6989 245.479 71.243 245.925 71.2585Z" fill="#B3CAF8"/>
<path fill-rule="evenodd" clip-rule="evenodd" d="M285.228 72.4513C285.171 72.4392 285.117 72.432 285.064 72.4301L245.803 71.059C245.438 71.0463 245.275 71.2991 245.34 71.6811C245.37 71.8552 245.447 72.0558 245.573 72.2706L247.189 75.0083L247.343 75.0136L245.728 72.276C245.713 72.2516 245.7 72.2274 245.687 72.2035C245.578 72.0003 245.523 71.8148 245.52 71.6628C245.515 71.4092 245.654 71.2493 245.921 71.2587L285.182 72.6296C285.188 72.63 285.195 72.6303 285.201 72.6307C285.647 72.6591 286.274 73.1349 286.61 73.7036L288.225 76.4414L288.381 76.4469L286.765 73.7091C286.751 73.685 286.736 73.6612 286.721 73.6376C286.349 73.0498 285.724 72.5583 285.228 72.4513ZM245.915 71.4394L285.176 72.8104C285.346 72.8164 285.582 72.916 285.827 73.1007C286.068 73.2819 286.296 73.5291 286.454 73.7955L288.119 76.6187L288.704 76.6391L286.921 73.6172C286.705 73.2518 286.397 72.9194 286.071 72.6747C285.751 72.4333 285.391 72.2605 285.071 72.2493L245.81 70.8782C245.646 70.8726 245.496 70.9097 245.377 70.9998C245.257 71.0905 245.187 71.2211 245.159 71.3667C245.106 71.6486 245.205 72.0027 245.417 72.3625L247.083 75.1856L247.667 75.2058L245.884 72.1841C245.884 72.1841 245.884 72.1841 245.884 72.1841C245.723 71.9122 245.684 71.7008 245.707 71.5791C245.718 71.523 245.74 71.4922 245.764 71.4744C245.789 71.4555 245.834 71.4367 245.915 71.4394Z" fill="#B3CAF8"/>
<path d="M304.669 104.05L303.628 102.286L292.654 83.6883L290.639 80.2733L290.484 80.2678L292.499 83.6828L303.472 102.28L304.513 104.044C304.853 104.62 304.767 105.077 304.32 105.062L265.059 103.691C264.613 103.675 263.971 103.192 263.632 102.617L263.104 101.722L259.776 96.0816L259.143 95.009L255.815 89.37L254.945 87.8955L251.617 82.2552L249.602 78.8402L249.448 78.8347L251.463 82.2497L254.791 87.8901L255.661 89.3645L258.988 95.0035L259.621 96.0761L262.949 101.716L263.477 102.611C263.882 103.298 264.645 103.872 265.177 103.89L304.438 105.261C304.971 105.28 305.074 104.736 304.669 104.05Z" fill="#B3CAF8"/>
<path fill-rule="evenodd" clip-rule="evenodd" d="M290.745 80.0954L292.811 83.5959L304.825 103.958C305.037 104.317 305.137 104.671 305.083 104.953C305.055 105.099 304.985 105.23 304.865 105.32C304.746 105.41 304.595 105.447 304.432 105.442L265.171 104.071C264.851 104.06 264.492 103.887 264.171 103.645C263.846 103.401 263.537 103.068 263.322 102.703L259.465 96.1675L251.307 82.3413L249.124 78.6418L249.708 78.6624L255.101 87.8031L259.299 94.9166L263.26 101.63L263.788 102.524C263.945 102.79 264.173 103.037 264.415 103.219C264.66 103.404 264.896 103.504 265.066 103.509L304.327 104.881C304.408 104.883 304.453 104.864 304.478 104.846C304.501 104.828 304.524 104.797 304.534 104.741C304.557 104.619 304.518 104.407 304.358 104.136L290.161 80.0749L290.745 80.0954ZM304.513 104.044C304.528 104.069 304.542 104.093 304.555 104.117C304.662 104.317 304.716 104.5 304.721 104.651C304.728 104.908 304.59 105.071 304.32 105.061L265.059 103.69C265.053 103.69 265.047 103.69 265.041 103.689C264.596 103.661 263.967 103.184 263.632 102.616L249.603 78.8397L249.448 78.8342L263.477 102.611C263.491 102.635 263.506 102.658 263.521 102.682C263.893 103.27 264.519 103.762 265.015 103.869C265.071 103.881 265.125 103.888 265.177 103.89L304.438 105.261C304.807 105.274 304.97 105.017 304.901 104.631C304.871 104.459 304.794 104.261 304.669 104.049L290.64 80.2728L290.484 80.2673L304.513 104.044Z" fill="#B3CAF8"/>
<path d="M331.418 71.511C331.467 71.511 331.508 71.4706 331.508 71.421C331.508 71.3713 331.467 71.3311 331.418 71.3311C331.368 71.3311 331.328 71.3713 331.328 71.421C331.328 71.4706 331.368 71.511 331.418 71.511Z" fill="#76F7FF"/>
<path d="M330.701 69.8677C330.75 69.8677 330.791 69.8275 330.791 69.7777C330.791 69.728 330.75 69.6877 330.701 69.6877C330.651 69.6877 330.611 69.728 330.611 69.7777C330.611 69.8275 330.651 69.8677 330.701 69.8677Z" fill="#76F7FF"/>
<path d="M290.295 115.077H284.6L280.289 107.278L285.983 107.522L290.295 115.077Z" fill="#B3CAF8"/>
<path opacity="0.2" d="M289.645 114.025L284.094 114.066L283.188 112.508L288.739 112.467L289.645 114.025Z" fill="#303030"/>
<path d="M299.462 115.077H275.32V114.944C275.32 114.459 275.713 114.067 276.197 114.067H298.585C299.069 114.067 299.462 114.459 299.462 114.944V115.077Z" fill="#B3CAF8"/>
<path d="M240.192 74.7627L247.191 75.0071L247.345 75.0126L248.156 75.0408L287.417 76.4119L288.227 76.4401L288.383 76.4456L290.976 76.5362C291.794 76.5647 292.964 77.4443 293.588 78.5015C294.211 79.5575 294.052 80.3919 293.234 80.3633L290.641 80.2728L290.485 80.2673L289.675 80.239L250.414 78.8679L249.603 78.8397L249.449 78.8342L242.45 78.5898C241.631 78.5612 240.461 77.6805 239.838 76.6245C239.215 75.5673 239.373 74.7341 240.192 74.7627Z" fill="#76F7FF"/>
<path d="M291.69 83.6559L275.125 83.0774L286.098 101.675L302.664 102.253L303.474 102.282L292.501 83.6841L291.69 83.6559Z" fill="#76F7FF"/>
<path d="M296.733 83.8305L292.464 83.6814L303.438 102.279L307.706 102.428L296.733 83.8305Z" fill="#76F7FF"/>
<path d="M242.878 81.9976L246.206 87.6379L256.021 87.934L252.693 82.2937L242.878 81.9976Z" fill="#76F7FF"/>
<path d="M272.063 82.9692L252.426 82.2834L251.615 82.2551L254.943 87.8953L255.754 87.9237L275.392 88.6095L272.063 82.9692Z" fill="#76F7FF"/>
<path d="M333.635 115.295H308.243V114.76C308.243 114.205 308.693 113.755 309.248 113.755H332.63C333.185 113.755 333.635 114.205 333.635 114.76V115.295Z" fill="#76F7FF"/>
<path d="M316.634 138.381H251.677C249.955 138.381 248.559 136.986 248.559 135.264V123.832C248.559 122.11 249.955 120.715 251.677 120.715H316.634C318.356 120.715 319.751 122.11 319.751 123.832V135.264C319.751 136.986 318.356 138.381 316.634 138.381Z" fill="#B3CAF8"/>
<path d="M363.036 138.381H325.109C323.388 138.381 321.992 136.986 321.992 135.264V123.832C321.992 122.11 323.388 120.715 325.109 120.715H363.036C364.757 120.715 366.153 122.11 366.153 123.832V135.264C366.153 136.986 364.757 138.381 363.036 138.381Z" fill="#B3CAF8"/>
<path d="M368.575 129.74H247.26C246.553 129.74 245.978 129.165 245.978 128.457C245.978 127.75 246.553 127.175 247.26 127.175H368.575C369.282 127.175 369.858 127.75 369.858 128.457C369.858 129.165 369.282 129.74 368.575 129.74ZM247.26 127.56C246.766 127.56 246.363 127.963 246.363 128.457C246.363 128.952 246.766 129.354 247.26 129.354H368.575C369.07 129.354 369.472 128.952 369.472 128.457C369.472 127.963 369.07 127.56 368.575 127.56H247.26Z" fill="#76F7FF"/>
<path d="M274.598 85.4396C274.564 85.4396 274.531 85.4203 274.516 85.3872L274.328 84.9778C274.307 84.9326 274.327 84.8791 274.372 84.8584C274.417 84.8376 274.471 84.8572 274.491 84.9025L274.68 85.3117C274.7 85.3571 274.681 85.4105 274.635 85.4314C274.623 85.437 274.61 85.4396 274.598 85.4396Z" fill="#303030"/>
<path d="M274.037 84.2175C274.004 84.2175 273.971 84.1982 273.956 84.165L273.582 83.3532C273.561 83.308 273.581 83.2544 273.626 83.2337C273.671 83.213 273.725 83.2325 273.746 83.2779L274.119 84.0897C274.14 84.135 274.12 84.1884 274.075 84.2091C274.063 84.2148 274.05 84.2175 274.037 84.2175ZM273.291 82.5938C273.257 82.5938 273.224 82.5745 273.209 82.5414L272.835 81.7296C272.815 81.6843 272.834 81.6309 272.88 81.6102C272.924 81.5891 272.978 81.609 272.999 81.6543L273.373 82.4661C273.393 82.5113 273.374 82.5649 273.328 82.5856C273.316 82.5912 273.303 82.5938 273.291 82.5938ZM272.544 80.9702C272.51 80.9702 272.477 80.9509 272.462 80.9177L272.089 80.1059C272.068 80.0607 272.088 80.0072 272.133 79.9865C272.178 79.9661 272.231 79.9853 272.252 80.0306L272.626 80.8424C272.646 80.8877 272.627 80.9411 272.582 80.962C272.569 80.9675 272.557 80.9702 272.544 80.9702ZM271.797 79.3465C271.763 79.3465 271.73 79.3272 271.715 79.2941L271.342 78.4824C271.321 78.4372 271.341 78.3836 271.386 78.3629C271.431 78.342 271.485 78.3615 271.506 78.4071L271.879 79.2188C271.9 79.264 271.88 79.3176 271.835 79.3383C271.823 79.3439 271.81 79.3465 271.797 79.3465ZM271.05 77.7228C271.016 77.7228 270.984 77.7034 270.969 77.6704L270.595 76.8585C270.575 76.8133 270.594 76.7597 270.639 76.739C270.684 76.718 270.738 76.7378 270.759 76.7832L271.132 77.5949C271.153 77.6403 271.133 77.6937 271.088 77.7146C271.076 77.7202 271.063 77.7228 271.05 77.7228ZM270.304 76.0991C270.27 76.0991 270.237 76.0797 270.222 76.0467L269.848 75.2349C269.828 75.1897 269.847 75.1362 269.892 75.1155C269.937 75.0944 269.991 75.1143 270.012 75.1596L270.385 75.9714C270.406 76.0166 270.386 76.0701 270.341 76.0909C270.329 76.0965 270.316 76.0991 270.304 76.0991ZM269.557 74.4755C269.523 74.4755 269.49 74.4562 269.475 74.4231L269.102 73.6112C269.081 73.566 269.101 73.5126 269.146 73.4917C269.19 73.4714 269.244 73.4905 269.265 73.5359L269.639 74.3478C269.66 74.393 269.64 74.4464 269.595 74.4673C269.582 74.4729 269.57 74.4755 269.557 74.4755ZM268.81 72.852C268.776 72.852 268.743 72.8325 268.728 72.7994L268.355 71.9876C268.334 71.9425 268.354 71.8889 268.399 71.8682C268.444 71.8473 268.497 71.867 268.518 71.9123L268.892 72.7241C268.913 72.7693 268.893 72.8229 268.848 72.8436C268.836 72.8492 268.823 72.852 268.81 72.852ZM268.063 71.2282C268.029 71.2282 267.997 71.2089 267.982 71.1759L267.608 70.3639C267.587 70.3187 267.607 70.2653 267.652 70.2445C267.697 70.2236 267.751 70.2433 267.772 70.2886L268.145 71.1006C268.166 71.1457 268.146 71.1991 268.101 71.22C268.089 71.2257 268.076 71.2282 268.063 71.2282ZM267.316 69.6047C267.282 69.6047 267.25 69.5853 267.235 69.5521L266.861 68.7404C266.841 68.6952 266.86 68.6416 266.906 68.6209C266.951 68.6005 267.004 68.6197 267.025 68.6651L267.398 69.4768C267.419 69.522 267.399 69.5756 267.354 69.5963C267.342 69.6019 267.329 69.6047 267.316 69.6047ZM266.57 67.981C266.536 67.981 266.503 67.9616 266.488 67.9286L266.114 67.1168C266.094 67.0715 266.113 67.0181 266.159 66.9972C266.203 66.9766 266.257 66.996 266.278 67.0415L266.652 67.8533C266.672 67.8985 266.653 67.952 266.607 67.9727C266.595 67.9784 266.582 67.981 266.57 67.981ZM265.823 66.3574C265.789 66.3574 265.756 66.3381 265.741 66.3049L265.368 65.4929C265.347 65.4477 265.367 65.3942 265.412 65.3735C265.457 65.3526 265.511 65.3723 265.532 65.4176L265.905 66.2296C265.926 66.2749 265.906 66.3283 265.86 66.349C265.848 66.3547 265.835 66.3574 265.823 66.3574ZM265.076 64.7335C265.042 64.7335 265.01 64.7142 264.994 64.6811L264.621 63.8694C264.6 63.824 264.62 63.7706 264.665 63.7497C264.71 63.7289 264.764 63.7485 264.785 63.7941L265.158 64.6058C265.179 64.651 265.159 64.7046 265.114 64.7253C265.102 64.7309 265.089 64.7335 265.076 64.7335ZM264.33 63.11C264.295 63.11 264.263 63.0906 264.248 63.0574L264.082 62.6973C264.006 62.5325 263.965 62.3589 263.961 62.1815C263.959 62.1317 263.999 62.0902 264.049 62.089C264.098 62.0949 264.14 62.1272 264.141 62.1768C264.145 62.3298 264.18 62.4796 264.245 62.622L264.411 62.9821C264.432 63.0275 264.412 63.0809 264.367 63.1017C264.355 63.1072 264.342 63.11 264.33 63.11ZM264.345 61.4462C264.324 61.4462 264.303 61.4392 264.286 61.4248C264.249 61.3923 264.244 61.3355 264.276 61.2976C264.487 61.05 264.78 60.8911 265.101 60.8499C265.149 60.842 265.195 60.8783 265.201 60.9279C265.208 60.9772 265.173 61.0224 265.123 61.0287C264.847 61.0642 264.595 61.2013 264.413 61.4145C264.396 61.4354 264.37 61.4462 264.345 61.4462ZM291.919 61.0192H291.025C290.975 61.0192 290.935 60.9789 290.935 60.9291C290.935 60.8793 290.975 60.8391 291.025 60.8391H291.919C291.969 60.8391 292.009 60.8793 292.009 60.9291C292.009 60.9789 291.969 61.0192 291.919 61.0192ZM290.132 61.0192H289.238C289.188 61.0192 289.148 60.9789 289.148 60.9291C289.148 60.8793 289.188 60.8391 289.238 60.8391H290.132C290.181 60.8391 290.222 60.8793 290.222 60.9291C290.222 60.9789 290.181 61.0192 290.132 61.0192ZM288.344 61.0192H287.451C287.401 61.0192 287.361 60.9789 287.361 60.9291C287.361 60.8793 287.401 60.8391 287.451 60.8391H288.344C288.394 60.8391 288.435 60.8793 288.435 60.9291C288.435 60.9789 288.394 61.0192 288.344 61.0192ZM286.557 61.0192H285.664C285.614 61.0192 285.574 60.9789 285.574 60.9291C285.574 60.8793 285.614 60.8391 285.664 60.8391H286.557C286.607 60.8391 286.647 60.8793 286.647 60.9291C286.647 60.9789 286.607 61.0192 286.557 61.0192ZM284.77 61.0192H283.876C283.827 61.0192 283.786 60.9789 283.786 60.9291C283.786 60.8793 283.827 60.8391 283.876 60.8391H284.77C284.82 60.8391 284.86 60.8793 284.86 60.9291C284.86 60.9789 284.82 61.0192 284.77 61.0192ZM282.983 61.0192H282.089C282.04 61.0192 281.999 60.9789 281.999 60.9291C281.999 60.8793 282.04 60.8391 282.089 60.8391H282.983C283.033 60.8391 283.073 60.8793 283.073 60.9291C283.073 60.9789 283.033 61.0192 282.983 61.0192ZM281.196 61.0192H280.302C280.252 61.0192 280.212 60.9789 280.212 60.9291C280.212 60.8793 280.252 60.8391 280.302 60.8391H281.196C281.246 60.8391 281.286 60.8793 281.286 60.9291C281.286 60.9789 281.246 61.0192 281.196 61.0192ZM279.409 61.0192H278.515C278.465 61.0192 278.425 60.9789 278.425 60.9291C278.425 60.8793 278.465 60.8391 278.515 60.8391H279.409C279.459 60.8391 279.499 60.8793 279.499 60.9291C279.499 60.9789 279.459 61.0192 279.409 61.0192ZM277.622 61.0192H276.728C276.678 61.0192 276.638 60.9789 276.638 60.9291C276.638 60.8793 276.678 60.8391 276.728 60.8391H277.622C277.671 60.8391 277.712 60.8793 277.712 60.9291C277.712 60.9789 277.671 61.0192 277.622 61.0192ZM275.834 61.0192H274.941C274.891 61.0192 274.851 60.9789 274.851 60.9291C274.851 60.8793 274.891 60.8391 274.941 60.8391H275.834C275.884 60.8391 275.924 60.8793 275.924 60.9291C275.924 60.9789 275.884 61.0192 275.834 61.0192ZM274.047 61.0192H273.154C273.104 61.0192 273.064 60.9789 273.064 60.9291C273.064 60.8793 273.104 60.8391 273.154 60.8391H274.047C274.097 60.8391 274.137 60.8793 274.137 60.9291C274.137 60.9789 274.097 61.0192 274.047 61.0192ZM272.26 61.0192H271.366C271.317 61.0192 271.276 60.9789 271.276 60.9291C271.276 60.8793 271.317 60.8391 271.366 60.8391H272.26C272.31 60.8391 272.35 60.8793 272.35 60.9291C272.35 60.9789 272.31 61.0192 272.26 61.0192ZM270.473 61.0192H269.579C269.529 61.0192 269.489 60.9789 269.489 60.9291C269.489 60.8793 269.529 60.8391 269.579 60.8391H270.473C270.523 60.8391 270.563 60.8793 270.563 60.9291C270.563 60.9789 270.523 61.0192 270.473 61.0192ZM268.686 61.0192H267.792C267.742 61.0192 267.702 60.9789 267.702 60.9291C267.702 60.8793 267.742 60.8391 267.792 60.8391H268.686C268.736 60.8391 268.776 60.8793 268.776 60.9291C268.776 60.9789 268.736 61.0192 268.686 61.0192ZM266.899 61.0192H266.005C265.955 61.0192 265.915 60.9789 265.915 60.9291C265.915 60.8793 265.955 60.8391 266.005 60.8391H266.899C266.948 60.8391 266.989 60.8793 266.989 60.9291C266.989 60.9789 266.948 61.0192 266.899 61.0192Z" fill="#303030"/>
<path d="M293.266 61.0192H292.815C292.765 61.0192 292.725 60.9789 292.725 60.9291C292.725 60.8793 292.765 60.8391 292.815 60.8391H293.266C293.316 60.8391 293.356 60.8793 293.356 60.9291C293.356 60.9789 293.316 61.0192 293.266 61.0192Z" fill="#303030"/>
<path d="M276.728 86.6718C276.953 86.1077 276.441 85.3729 275.583 85.031C274.725 84.6889 273.848 84.8689 273.623 85.4332C273.398 85.9973 273.911 86.7321 274.768 87.074C275.626 87.4162 276.503 87.2361 276.728 86.6718Z" fill="#303030"/>
<path d="M293.786 62.4719C292.889 62.4719 292.14 61.7811 292.117 60.932C292.107 60.5353 292.255 60.1581 292.535 59.87C292.838 59.5587 293.254 59.3872 293.707 59.3872C294.604 59.3872 295.352 60.078 295.375 60.9271C295.386 61.324 295.238 61.701 294.957 61.9892C294.654 62.3006 294.238 62.4719 293.786 62.4719ZM293.707 59.5674C293.303 59.5674 292.933 59.7194 292.665 59.9957C292.418 60.2486 292.288 60.5793 292.297 60.9271C292.318 61.6796 292.986 62.2917 293.786 62.2917C294.189 62.2917 294.56 62.1397 294.828 61.8634C295.074 61.6106 295.205 61.2798 295.195 60.932C295.175 60.1795 294.507 59.5674 293.707 59.5674Z" fill="#303030"/>
<path d="M293.747 61.6401C294.14 61.6401 294.457 61.3223 294.457 60.9302C294.457 60.5382 294.14 60.2202 293.747 60.2202C293.355 60.2202 293.037 60.5382 293.037 60.9302C293.037 61.3223 293.355 61.6401 293.747 61.6401Z" fill="#76F7FF"/>
<path d="M295.244 64.3074H286.584C286.5 64.3074 286.433 64.2398 286.433 64.1563C286.433 64.0727 286.5 64.0051 286.584 64.0051H295.244C295.327 64.0051 295.395 64.0727 295.395 64.1563C295.395 64.2398 295.327 64.3074 295.244 64.3074Z" fill="#76F7FF"/>
<path d="M295.244 65.1931H286.584C286.5 65.1931 286.433 65.1254 286.433 65.0419C286.433 64.9582 286.5 64.8906 286.584 64.8906H295.244C295.327 64.8906 295.395 64.9582 295.395 65.0419C295.395 65.1254 295.327 65.1931 295.244 65.1931Z" fill="#76F7FF"/>
<path d="M249.066 53.5926H240.407C240.323 53.5926 240.256 53.5251 240.256 53.4415C240.256 53.3579 240.323 53.2903 240.407 53.2903H249.066C249.15 53.2903 249.218 53.3579 249.218 53.4415C249.218 53.5251 249.15 53.5926 249.066 53.5926Z" fill="#76F7FF"/>
<path d="M249.066 54.8609H240.407C240.323 54.8609 240.256 54.7933 240.256 54.7098C240.256 54.6262 240.323 54.5586 240.407 54.5586H249.066C249.15 54.5586 249.218 54.6262 249.218 54.7098C249.218 54.7933 249.15 54.8609 249.066 54.8609Z" fill="#76F7FF"/>
<path d="M259.896 95.0035L256.568 89.3645L254.659 89.3296L257.986 94.9686L259.896 95.0035Z" fill="#18204D"/>
<path d="M259.956 95.0373L264.64 95.2009L261.313 89.562L256.629 89.3984L255.819 89.3701L259.146 95.0091L259.956 95.0373Z" fill="#18204D"/>
<path d="M258.617 96.041L261.945 101.681L263.468 101.716L260.14 96.0761L258.617 96.041Z" fill="#18204D"/>
<path d="M279.591 95.7234L276.264 90.0845L269.612 89.8521L272.939 95.491L279.591 95.7234Z" fill="#18204D"/>
<path d="M272.114 95.4615L268.786 89.8223L262.134 89.5901L265.462 95.2292L272.114 95.4615Z" fill="#18204D"/>
<path d="M253.831 89.3013L247.178 89.0688L250.505 94.708L257.159 94.9402L253.831 89.3013Z" fill="#18204D"/>
<path d="M280.225 96.7957L273.573 96.5635L276.9 102.204L283.553 102.436L280.225 96.7957Z" fill="#18204D"/>
<path d="M266.096 96.303L269.424 101.943L276.076 102.176L272.748 96.5352L266.096 96.303Z" fill="#18204D"/>
<path d="M260.591 96.1098L259.781 96.0815L263.109 101.722L263.919 101.75L268.603 101.914L265.275 96.2732L260.591 96.1098Z" fill="#18204D"/>
<path d="M251.14 95.7803L254.468 101.421L261.121 101.653L257.793 96.0127L251.14 95.7803Z" fill="#18204D"/>
<path opacity="0.160784" d="M302.795 103.283L302.141 102.175L286.895 76.3359L285.667 74.255C285.31 73.6498 284.64 73.1458 284.171 73.1295L246.61 71.8178C246.141 71.8014 246.049 72.2787 246.406 72.8839L247.634 74.9648L249.892 78.7921H249.892L251.907 82.2071L255.235 87.8474L256.105 89.3219L259.544 95.1503L260.065 96.0335L263.393 101.674L263.534 101.912C263.891 102.517 264.562 103.021 265.031 103.038L302.592 104.349C303.061 104.366 303.152 103.888 302.795 103.283Z" fill="#18204D"/>
<g clip-path="url(#clip14)">
<rect x="241.537" y="150.613" width="123" height="5" rx="2.5" fill="white" fill-opacity="0.6"/>
<rect x="269.537" y="167.613" width="67" height="5" rx="2.5" fill="white" fill-opacity="0.6"/>
<rect x="255.056" y="184.613" width="95.9614" height="2.78149" rx="1.39075" fill="white" fill-opacity="0.3"/>
<g clip-path="url(#clip15)">
<g filter="url(#filter1_b)">
<rect x="277.707" y="199.395" width="21.9075" height="21.9075" rx="10.9538" fill="white" fill-opacity="0.7"/>
</g>
<g filter="url(#filter2_b)">
<rect x="306.46" y="199.395" width="21.9075" height="21.9075" rx="10.9538" fill="white" fill-opacity="0.7"/>
</g>
</g>
</g>
<g clip-path="url(#clip16)">
<path fill-rule="evenodd" clip-rule="evenodd" d="M360.615 49.2906C366.665 49.2906 371.569 44.3864 371.569 38.3368C371.569 32.2872 366.665 27.3831 360.615 27.3831C354.565 27.3831 349.661 32.2872 349.661 38.3368C349.661 44.3864 354.565 49.2906 360.615 49.2906Z" fill="#18204D"/>
<path d="M363.992 37.8022L360.08 41.7136L361.682 43.3155L365.594 39.4041L363.992 37.8022Z" fill="#FFE458"/>
<path fill-rule="evenodd" clip-rule="evenodd" d="M355.77 34.0722L359.068 37.3699C359.065 37.3942 359.064 37.419 359.064 37.4441C359.064 37.8084 359.359 38.1038 359.723 38.1038C360.088 38.1038 360.383 37.8084 360.383 37.4441C360.383 37.0797 360.088 36.7844 359.723 36.7844C359.698 36.7844 359.673 36.7858 359.648 36.7886L356.354 33.4944L362.212 34.603H362.217L363.283 38.5165L360.793 41.006L356.88 39.9355L355.77 34.0722Z" fill="#B5CDFB"/>
</g>
</g>
</g>
<defs>
<filter id="filter0_bi" x="-27.3844" y="-27.3844" width="453.769" height="328.769" filterUnits="userSpaceOnUse" color-interpolation-filters="sRGB">
<feFlood flood-opacity="0" result="BackgroundImageFix"/>
<feGaussianBlur in="BackgroundImage" stdDeviation="13.6922"/>
<feComposite in2="SourceAlpha" operator="in" result="effect1_backgroundBlur"/>
<feBlend mode="normal" in="SourceGraphic" in2="effect1_backgroundBlur" result="shape"/>
<feColorMatrix in="SourceAlpha" type="matrix" values="0 0 0 0 0 0 0 0 0 0 0 0 0 0 0 0 0 0 127 0" result="hardAlpha"/>
<feMorphology radius="0.5" operator="erode" in="SourceAlpha" result="effect2_innerShadow"/>
<feOffset/>
<feComposite in2="hardAlpha" operator="arithmetic" k2="-1" k3="1"/>
<feColorMatrix type="matrix" values="0 0 0 0 1 0 0 0 0 1 0 0 0 0 1 0 0 0 0.2 0"/>
<feBlend mode="normal" in2="shape" result="effect2_innerShadow"/>
</filter>
<filter id="filter1_b" x="264.014" y="185.703" width="49.2919" height="49.2919" filterUnits="userSpaceOnUse" color-interpolation-filters="sRGB">
<feFlood flood-opacity="0" result="BackgroundImageFix"/>
<feGaussianBlur in="BackgroundImage" stdDeviation="6.8461"/>
<feComposite in2="SourceAlpha" operator="in" result="effect1_backgroundBlur"/>
<feBlend mode="normal" in="SourceGraphic" in2="effect1_backgroundBlur" result="shape"/>
</filter>
<filter id="filter2_b" x="292.768" y="185.703" width="49.2919" height="49.2919" filterUnits="userSpaceOnUse" color-interpolation-filters="sRGB">
<feFlood flood-opacity="0" result="BackgroundImageFix"/>
<feGaussianBlur in="BackgroundImage" stdDeviation="6.8461"/>
<feComposite in2="SourceAlpha" operator="in" result="effect1_backgroundBlur"/>
<feBlend mode="normal" in="SourceGraphic" in2="effect1_backgroundBlur" result="shape"/>
</filter>
<clipPath id="clip0">
<rect width="193.569" height="199.531" fill="white" transform="translate(13.6921 13.6921)"/>
</clipPath>
<clipPath id="clip1">
<rect width="193.569" height="39.3274" fill="white" transform="translate(13.6921 38.0691)"/>
</clipPath>
<clipPath id="clip2">
<rect width="155.23" height="39.3274" fill="white" transform="translate(52.0303 38.0691)"/>
</clipPath>
<clipPath id="clip3">
<rect width="155.23" height="13.6922" fill="white" transform="translate(52.0303 38.0691)"/>
</clipPath>
<clipPath id="clip4">
<rect x="52.0303" y="57.2383" width="116.384" height="3.42305" rx="1.71153" fill="white"/>
</clipPath>
<clipPath id="clip5">
<rect width="193.569" height="48.0228" fill="white" transform="translate(13.6921 97.3965)"/>
</clipPath>
<clipPath id="clip6">
<rect width="155.23" height="48.0228" fill="white" transform="translate(52.0303 97.3965)"/>
</clipPath>
<clipPath id="clip7">
<rect width="155.23" height="13.6922" fill="white" transform="translate(52.0303 97.3965)"/>
</clipPath>
<clipPath id="clip8">
<rect x="52.0304" y="116.566" width="123.23" height="3.42305" rx="1.71153" fill="white"/>
</clipPath>
<clipPath id="clip9">
<rect width="192.199" height="47.8043" fill="white" transform="translate(13.6921 165.419)"/>
</clipPath>
<clipPath id="clip10">
<rect width="153.861" height="47.8043" fill="white" transform="translate(52.0303 165.419)"/>
</clipPath>
<clipPath id="clip11">
<rect width="153.861" height="13.6922" fill="white" transform="translate(52.0303 165.419)"/>
</clipPath>
<clipPath id="clip12">
<rect x="52.0304" y="184.589" width="123.23" height="3.42305" rx="1.71153" fill="white"/>
</clipPath>
<clipPath id="clip13">
<rect x="220.953" y="13.6921" width="164.306" height="246.46" rx="6.8461" fill="white"/>
</clipPath>
<clipPath id="clip14">
<rect width="123" height="70.689" fill="white" transform="translate(241.537 150.613)"/>
</clipPath>
<clipPath id="clip15">
<rect width="50.6611" height="21.9075" fill="white" transform="translate(277.707 199.395)"/>
</clipPath>
<clipPath id="clip16">
<rect width="21.9075" height="50.6611" fill="white" transform="translate(349.661 27.3831)"/>
</clipPath>
</defs>
</svg>
