<svg width="701" height="428" viewBox="0 0 701 428" fill="none" xmlns="http://www.w3.org/2000/svg">
<path d="M0 373.216H136.914V428H6.84611C3.06511 428 0 424.935 0 421.154V373.216Z" fill="black" fill-opacity="0.1"/>
<path fill-rule="evenodd" clip-rule="evenodd" d="M26.0103 413.958C33.5723 413.958 39.7025 407.828 39.7025 400.266C39.7025 392.704 33.5723 386.574 26.0103 386.574C18.4483 386.574 12.3181 392.704 12.3181 400.266C12.3181 407.828 18.4483 413.958 26.0103 413.958Z" fill="white" fill-opacity="0.1" stroke="white" stroke-opacity="0.3" stroke-width="0.821532"/>
<g clip-path="url(#clip0)">
<path d="M26.0065 393.42L19.1604 400.266L26.0065 407.112L32.8526 400.266L26.0065 393.42Z" fill="#00CFFD" stroke="black" stroke-width="0.821532" stroke-miterlimit="10" stroke-linecap="round" stroke-linejoin="round"/>
<path fill-rule="evenodd" clip-rule="evenodd" d="M24.2938 400.668C24.1333 400.508 23.8733 400.508 23.7128 400.668C23.5524 400.828 23.5524 401.088 23.7128 401.249L25.7875 403.324C25.8646 403.401 25.9691 403.444 26.078 403.444C26.1869 403.444 26.2914 403.401 26.3685 403.324L28.4432 401.249C28.6036 401.088 28.6036 400.828 28.4432 400.668C28.2827 400.508 28.0227 400.508 27.8622 400.668L26.4907 402.039L26.4907 397.154C26.4907 396.927 26.3068 396.743 26.0799 396.743C25.853 396.743 25.6691 396.927 25.6691 397.154L25.6691 402.043L24.2938 400.668Z" fill="black"/>
</g>
<g clip-path="url(#clip1)">
<rect x="46.5486" y="389.709" width="45.4121" height="4.37707" rx="2.18853" fill="white" fill-opacity="0.6"/>
<rect x="46.5486" y="399.649" width="31.7337" height="2.18853" rx="1.09427" fill="white" fill-opacity="0.3"/>
<g clip-path="url(#clip2)">
<rect x="46.5486" y="407.4" width="75.3071" height="3.42305" rx="1.71153" fill="black" fill-opacity="0.2"/>
<rect x="47.2332" y="408.085" width="49.2919" height="2.05383" rx="1.02692" fill="#00CFFD" stroke="black" stroke-opacity="0.05" stroke-width="0.247119"/>
</g>
</g>
<g clip-path="url(#clip3)">
<rect x="6.84229" y="39.9929" width="123.23" height="19.1691" rx="3.42305" fill="black" fill-opacity="0.2"/>
<path d="M16.7386 52.553C17.4296 52.553 18.0771 52.3444 18.616 51.9881L20.5194 53.8958C20.6454 54.0175 20.8062 54.0784 20.98 54.0784C21.3407 54.0784 21.6058 53.7959 21.6058 53.4395C21.6058 53.2744 21.5493 53.1136 21.4276 52.9919L19.5372 51.0929C19.9284 50.541 20.1587 49.8631 20.1587 49.133C20.1587 47.2513 18.6203 45.7129 16.7386 45.7129C14.8613 45.7129 13.3186 47.2513 13.3186 49.133C13.3186 51.0147 14.857 52.553 16.7386 52.553ZM16.7386 51.6404C15.3611 51.6404 14.2312 50.5106 14.2312 49.133C14.2312 47.7598 15.3611 46.6255 16.7386 46.6255C18.1162 46.6255 19.2461 47.7598 19.2461 49.133C19.2461 50.5106 18.1162 51.6404 16.7386 51.6404Z" fill="white"/>
<path d="M27.9505 53.2527C29.4106 53.2527 30.3449 52.5052 30.3449 51.3058V51.3015C30.3449 50.3715 29.8061 49.8413 28.4893 49.5589L27.8071 49.4068C26.9944 49.2329 26.6641 48.9287 26.6641 48.4638V48.4594C26.6641 47.8684 27.2074 47.5251 27.9418 47.5251C28.7023 47.5207 29.1933 47.8945 29.2759 48.4073L29.2846 48.4638H30.2276L30.2233 48.4029C30.1537 47.4295 29.2846 46.6777 27.9548 46.6777C26.625 46.6777 25.6864 47.4251 25.682 48.5072V48.5116C25.682 49.4372 26.2296 50.0282 27.5029 50.2976L28.1895 50.4454C29.0195 50.6236 29.3585 50.9364 29.3585 51.4188V51.4232C29.3585 52.0055 28.7892 52.4053 27.9896 52.4053C27.1509 52.4053 26.5468 52.0402 26.4947 51.471L26.4903 51.4232H25.5343L25.5386 51.4797C25.6255 52.5356 26.5338 53.2527 27.9505 53.2527ZM33.4999 53.1918C34.708 53.1918 35.3598 52.4965 35.5163 51.8751L35.525 51.836L34.6167 51.8403L34.5993 51.8751C34.4864 52.1185 34.1257 52.4183 33.5216 52.4183C32.7437 52.4183 32.2483 51.8925 32.231 50.9886H35.5771V50.6583C35.5771 49.2416 34.7688 48.2899 33.4521 48.2899C32.1353 48.2899 31.2836 49.2764 31.2836 50.7496V50.7539C31.2836 52.2488 32.118 53.1918 33.4999 53.1918ZM33.4564 49.0635C34.0952 49.0635 34.5689 49.472 34.6428 50.315H32.244C32.3266 49.5024 32.8133 49.0635 33.4564 49.0635ZM37.9933 53.1788C38.6191 53.1788 39.1145 52.9094 39.3926 52.4314H39.4665V53.1006H40.4008V49.8718C40.4008 48.8809 39.7316 48.2899 38.5452 48.2899C37.4718 48.2899 36.7287 48.8071 36.6157 49.5806L36.6114 49.611H37.5196L37.524 49.5936C37.637 49.259 37.9803 49.0678 38.5018 49.0678C39.1406 49.0678 39.4665 49.3546 39.4665 49.8718V50.2889L38.1889 50.3628C37.0633 50.4323 36.4289 50.9234 36.4289 51.7665V51.7752C36.4289 52.6313 37.0938 53.1788 37.9933 53.1788ZM37.3675 51.736V51.7274C37.3675 51.3015 37.663 51.0668 38.3149 51.0277L39.4665 50.9538V51.358C39.4665 51.9664 38.9494 52.427 38.2454 52.427C37.7369 52.427 37.3675 52.1706 37.3675 51.736ZM41.7306 53.1006H42.6736V50.2802C42.6736 49.598 43.1647 49.1547 43.886 49.1547C44.0642 49.1547 44.225 49.1764 44.3945 49.2112V48.3421C44.2989 48.3203 44.1337 48.2986 43.9816 48.2986C43.3515 48.2986 42.9126 48.5941 42.7431 49.0939H42.6736V48.3812H41.7306V53.1006ZM47.1583 53.1918C48.3273 53.1918 49.0009 52.5617 49.1704 51.6448L49.1791 51.6057H48.2752L48.2665 51.6274C48.1144 52.1358 47.7493 52.4053 47.1583 52.4053C46.3805 52.4053 45.8981 51.7708 45.8981 50.7279V50.7192C45.8981 49.7023 46.3718 49.0765 47.1583 49.0765C47.7841 49.0765 48.1665 49.4241 48.2708 49.8891L48.2752 49.9022L49.1791 49.8978V49.8761C49.0487 48.9592 48.3403 48.2899 47.154 48.2899C45.7764 48.2899 44.9377 49.2242 44.9377 50.7192V50.7279C44.9377 52.2532 45.7807 53.1918 47.1583 53.1918ZM50.2916 53.1006H51.2346V50.3324C51.2346 49.5719 51.6648 49.0982 52.3557 49.0982C53.0467 49.0982 53.3726 49.485 53.3726 50.2672V53.1006H54.3113V50.0456C54.3113 48.9201 53.729 48.2899 52.673 48.2899C51.9864 48.2899 51.5344 48.5941 51.3041 49.0982H51.2346V46.5299H50.2916V53.1006Z" fill="white" fill-opacity="0.6"/>
<rect x="6.84229" y="67.3774" width="31.7337" height="2.18853" rx="1.09427" fill="white" fill-opacity="0.3"/>
<rect x="6.84229" y="75.0427" width="123.23" height="19.1691" rx="3.42305" fill="white" fill-opacity="0.1"/>
<g clip-path="url(#clip4)">
<path d="M21.9054 90.7888H15.7439C15.3674 90.7888 15.0593 90.4807 15.0593 90.1042V79.1504C15.0593 78.7739 15.3674 78.4658 15.7439 78.4658H21.9054V90.7888Z" stroke="white" stroke-opacity="0.6" stroke-width="0.821532" stroke-miterlimit="10" stroke-linecap="round" stroke-linejoin="round"/>
<path d="M28.067 90.7893H21.9055V78.4663H28.067C28.4435 78.4663 28.7516 78.7744 28.7516 79.1509V90.1047C28.7516 90.4812 28.4435 90.7893 28.067 90.7893Z" stroke="white" stroke-opacity="0.6" stroke-width="0.821532" stroke-miterlimit="10" stroke-linecap="round" stroke-linejoin="round"/>
<path d="M16.4294 84.6279H20.5371" stroke="white" stroke-opacity="0.6" stroke-width="0.821532" stroke-miterlimit="10"/>
<path d="M16.4294 81.8896H20.5371" stroke="white" stroke-opacity="0.6" stroke-width="0.821532" stroke-miterlimit="10"/>
<path d="M16.4294 87.366H20.5371" stroke="white" stroke-opacity="0.6" stroke-width="0.821532" stroke-miterlimit="10"/>
<path d="M23.2732 84.6279H27.3809" stroke="white" stroke-opacity="0.6" stroke-width="0.821532" stroke-miterlimit="10"/>
<path d="M23.2732 81.8896H27.3809" stroke="white" stroke-opacity="0.6" stroke-width="0.821532" stroke-miterlimit="10"/>
<rect x="36.9653" y="83.533" width="31.7337" height="2.18853" rx="1.09427" fill="white" fill-opacity="0.3"/>
</g>
<g clip-path="url(#clip5)">
<path d="M21.2224 102.425C19.6204 102.425 17.6008 103.602 17.635 106.642L15.0883 109.942C15.013 110.037 15.102 110.161 15.2389 110.161L16.9367 111.003C17.0257 111.633 17.3543 113.467 17.5323 114.385C17.594 114.672 20.4009 114.453 20.4009 114.453L21.2224 116.117" stroke="white" stroke-opacity="0.6" stroke-width="0.821532" stroke-miterlimit="10" stroke-linecap="round" stroke-linejoin="round"/>
<path fill-rule="evenodd" clip-rule="evenodd" d="M24.5409 102.563C24.6173 102.35 24.5061 102.114 24.2925 102.038C24.0789 101.962 23.8438 102.073 23.7674 102.286L23.0691 104.238C22.9926 104.451 23.1038 104.686 23.3174 104.763C23.531 104.839 23.7661 104.728 23.8426 104.514L24.5409 102.563ZM28.7841 104.63C28.9657 104.494 29.0027 104.237 28.8668 104.055C28.7308 103.874 28.4734 103.837 28.2918 103.973L25.9504 105.725C25.7688 105.861 25.7318 106.119 25.8677 106.3C26.0037 106.482 26.2611 106.519 26.4427 106.383L28.7841 104.63ZM26.1047 109.151C26.1213 108.925 26.3182 108.755 26.5444 108.772L28.7831 108.936C29.0094 108.953 29.1793 109.149 29.1627 109.376C29.1461 109.602 28.9492 109.772 28.723 109.755L26.4843 109.591C26.2581 109.574 26.0881 109.378 26.1047 109.151ZM21.716 112.907C21.4892 112.907 21.3053 113.09 21.3053 113.317C21.3053 113.544 21.4892 113.728 21.716 113.728H23.5166C23.7434 113.728 23.9273 113.544 23.9273 113.317C23.9273 113.09 23.7434 112.907 23.5166 112.907H21.716ZM21.3053 111.551C21.3053 111.324 21.4892 111.14 21.716 111.14H21.8244C20.9212 110.382 19.6846 108.718 20.6951 107.388C21.6809 106.094 23.5499 106.094 24.5358 107.388C25.5452 108.717 24.317 110.383 23.4117 111.14H23.5166C23.7434 111.14 23.9273 111.324 23.9273 111.551C23.9273 111.777 23.7434 111.961 23.5166 111.961H21.716C21.4892 111.961 21.3053 111.777 21.3053 111.551ZM23.0321 111.14V109.389C23.2214 109.252 23.3446 109.029 23.3446 108.778C23.3446 108.362 23.0074 108.025 22.5915 108.025C22.1756 108.025 21.8385 108.362 21.8385 108.778C21.8385 109.055 21.9879 109.297 22.2106 109.428V111.14H23.0321ZM22.5768 108.711C22.5827 108.711 22.5886 108.71 22.5945 108.71L22.5915 108.71C22.5865 108.71 22.5816 108.71 22.5768 108.711Z" fill="white" fill-opacity="0.6"/>
<rect x="36.9653" y="107.882" width="45.8946" height="2.78149" rx="1.39075" fill="white" fill-opacity="0.3"/>
</g>
<g clip-path="url(#clip6)">
<path d="M21.9069 127.074L15.0608 133.92L21.9069 140.766L28.753 133.92L21.9069 127.074Z" stroke="white" stroke-opacity="0.6" stroke-width="0.821532" stroke-miterlimit="10" stroke-linecap="round" stroke-linejoin="round"/>
<path fill-rule="evenodd" clip-rule="evenodd" d="M20.1941 134.324C20.0337 134.163 19.7736 134.163 19.6132 134.324C19.4528 134.484 19.4528 134.744 19.6132 134.905L21.6879 136.979C21.765 137.056 21.8694 137.1 21.9784 137.1C22.0873 137.1 22.1918 137.056 22.2688 136.979L24.3435 134.905C24.504 134.744 24.504 134.484 24.3435 134.324C24.1831 134.163 23.923 134.163 23.7626 134.324L22.3911 135.695L22.3911 130.81C22.3911 130.583 22.2072 130.399 21.9803 130.399C21.7534 130.399 21.5695 130.583 21.5695 130.81L21.5695 135.699L20.1941 134.324Z" fill="white" fill-opacity="0.6"/>
<rect x="36.9653" y="132.528" width="45.8946" height="2.78149" rx="1.39075" fill="white" fill-opacity="0.3"/>
</g>
<path d="M9.97117 166.71C11.307 166.71 12.2657 165.935 12.4181 164.776V164.748H11.4032L11.3992 164.768C11.2508 165.406 10.7053 165.815 9.97117 165.815C8.98437 165.815 8.37062 164.993 8.37062 163.673V163.665C8.37062 162.349 8.98437 161.527 9.96716 161.527C10.6972 161.527 11.2508 161.98 11.3992 162.666L11.4032 162.682H12.4181V162.65C12.2817 161.467 11.2829 160.632 9.96716 160.632C8.3265 160.632 7.31162 161.792 7.31162 163.669V163.677C7.31162 165.546 8.33051 166.71 9.97117 166.71ZM15.3625 166.653C16.6742 166.653 17.4725 165.795 17.4725 164.375V164.367C17.4725 162.955 16.6702 162.096 15.3625 162.096C14.0588 162.096 13.2525 162.959 13.2525 164.367V164.375C13.2525 165.795 14.0467 166.653 15.3625 166.653ZM15.3625 165.843C14.6685 165.843 14.2714 165.302 14.2714 164.379V164.371C14.2714 163.448 14.6685 162.903 15.3625 162.903C16.0524 162.903 16.4496 163.448 16.4496 164.371V164.379C16.4496 165.302 16.0564 165.843 15.3625 165.843ZM19.9274 166.653C20.5612 166.653 21.0065 166.369 21.2111 165.899H21.2793V166.565H22.2781V162.181H21.2793V164.736C21.2793 165.394 20.9343 165.811 20.2885 165.811C19.6867 165.811 19.434 165.466 19.434 164.788V162.181H18.4352V165.017C18.4352 166.06 18.9406 166.653 19.9274 166.653ZM23.4976 166.565H24.4964V164.018C24.4964 163.392 24.9336 162.995 25.5995 162.995C25.772 162.995 25.9365 163.019 26.0969 163.051V162.157C26.0007 162.129 25.8442 162.109 25.6918 162.109C25.1142 162.109 24.713 162.385 24.5646 162.855H24.4964V162.181H23.4976V166.565ZM28.4757 166.653C29.5548 166.653 30.337 166.096 30.337 165.261V165.253C30.337 164.616 29.9318 164.251 29.0734 164.058L28.3634 163.902C27.89 163.793 27.7055 163.637 27.7055 163.38V163.376C27.7055 163.047 28.0264 162.831 28.4717 162.831C28.941 162.831 29.2298 163.055 29.302 163.332L29.3061 163.344H30.2447V163.336C30.1805 162.626 29.5427 162.096 28.4757 162.096C27.4408 162.096 26.7187 162.642 26.7187 163.432V163.436C26.7187 164.082 27.1158 164.475 27.9502 164.66L28.6602 164.82C29.1416 164.929 29.3341 165.097 29.3341 165.354V165.362C29.3341 165.691 28.9892 165.915 28.4917 165.915C27.9943 165.915 27.7015 165.703 27.5972 165.398L27.5932 165.39H26.6024V165.398C26.6866 166.14 27.3605 166.653 28.4757 166.653ZM33.2212 166.653C34.4126 166.653 34.9982 165.967 35.1386 165.402L35.1506 165.366H34.1999L34.1879 165.394C34.0916 165.594 33.7828 165.867 33.2412 165.867C32.5633 165.867 32.1381 165.41 32.1261 164.624H35.1908V164.295C35.1908 162.971 34.4206 162.096 33.173 162.096C31.9255 162.096 31.1272 162.999 31.1272 164.379V164.383C31.1272 165.779 31.9175 166.653 33.2212 166.653ZM33.1851 162.879C33.7427 162.879 34.1478 163.236 34.216 163.954H32.1341C32.2103 163.256 32.6275 162.879 33.1851 162.879ZM37.8463 166.653C38.9254 166.653 39.7076 166.096 39.7076 165.261V165.253C39.7076 164.616 39.3024 164.251 38.444 164.058L37.734 163.902C37.2606 163.793 37.0761 163.637 37.0761 163.38V163.376C37.0761 163.047 37.397 162.831 37.8423 162.831C38.3116 162.831 38.6004 163.055 38.6726 163.332L38.6767 163.344H39.6153V163.336C39.5511 162.626 38.9133 162.096 37.8463 162.096C36.8114 162.096 36.0893 162.642 36.0893 163.432V163.436C36.0893 164.082 36.4864 164.475 37.3208 164.66L38.0308 164.82C38.5122 164.929 38.7047 165.097 38.7047 165.354V165.362C38.7047 165.691 38.3598 165.915 37.8623 165.915C37.3649 165.915 37.0721 165.703 36.9678 165.398L36.9638 165.39H35.973V165.398C36.0572 166.14 36.7311 166.653 37.8463 166.653Z" fill="white" fill-opacity="0.6"/>
<g clip-path="url(#clip7)">
<g clip-path="url(#clip8)">
<path d="M29.7768 183.211C29.7768 187.559 26.2519 191.084 21.9038 191.084C17.5557 191.084 14.0308 187.559 14.0308 183.211C14.0308 178.863 17.5557 175.338 21.9038 175.338C26.2519 175.338 29.7768 178.863 29.7768 183.211Z" stroke="white" stroke-opacity="0.2" stroke-width="0.68461"/>
<g filter="url(#filter0_d)">
<path d="M23.8467 186.28C22.8248 186.879 21.4197 186.94 20.0061 186.326C18.8615 185.832 17.9118 184.967 17.303 183.979C17.5952 184.226 17.9361 184.424 18.3014 184.596C19.7613 185.291 21.2209 185.243 22.248 184.598C22.2474 184.598 22.2469 184.597 22.2465 184.596C20.7853 183.46 19.5434 181.978 18.618 180.767C18.4231 180.569 18.277 180.322 18.1309 180.1C19.2511 181.138 21.0289 182.447 21.6619 182.818C20.3227 181.385 19.1294 179.606 19.178 179.655C21.2967 181.829 23.2693 183.065 23.2693 183.065C23.3346 183.102 23.385 183.133 23.4255 183.161C23.4682 183.051 23.5056 182.936 23.5371 182.818C23.8781 181.558 23.4885 180.125 22.6361 178.939C24.6085 180.15 25.7776 182.422 25.2904 184.325C25.2777 184.376 25.2639 184.427 25.249 184.476C25.2547 184.483 25.2604 184.49 25.2661 184.498C26.24 185.733 25.9722 187.042 25.8505 186.795C25.3221 185.746 24.344 186.067 23.8467 186.28L23.8467 186.28Z" fill="white"/>
</g>
</g>
<rect x="36.9653" y="182.117" width="31.7337" height="2.18853" rx="1.09427" fill="white" fill-opacity="0.3"/>
</g>
<g clip-path="url(#clip9)">
<path d="M29.7768 206.488C29.7768 210.836 26.2519 214.361 21.9038 214.361C17.5557 214.361 14.0308 210.836 14.0308 206.488C14.0308 202.14 17.5557 198.615 21.9038 198.615C26.2519 198.615 29.7768 202.14 29.7768 206.488Z" stroke="white" stroke-opacity="0.2" stroke-width="0.68461"/>
<g clip-path="url(#clip10)">
<path d="M24.4409 206.089L21.5073 209.022L22.7087 210.224L25.6423 207.29L24.4409 206.089Z" fill="white"/>
<path fill-rule="evenodd" clip-rule="evenodd" d="M18.3083 203.47L20.6447 205.806L20.6445 205.82C20.6445 206.15 20.912 206.418 21.242 206.418C21.572 206.418 21.8395 206.15 21.8395 205.82C21.8395 205.49 21.572 205.223 21.242 205.223L21.2233 205.223L18.8931 202.893L23.1063 203.69H23.11L23.9091 206.625L22.042 208.492L19.1069 207.69L18.3083 203.47Z" fill="white"/>
</g>
<rect x="36.9653" y="205.097" width="37.5501" height="2.78149" rx="1.39075" fill="white" fill-opacity="0.3"/>
</g>
<g clip-path="url(#clip11)">
<g clip-path="url(#clip12)">
<path d="M29.7768 229.764C29.7768 234.113 26.2519 237.637 21.9038 237.637C17.5557 237.637 14.0308 234.113 14.0308 229.764C14.0308 225.416 17.5557 221.891 21.9038 221.891C26.2519 221.891 29.7768 225.416 29.7768 229.764Z" stroke="white" stroke-opacity="0.2" stroke-width="0.68461"/>
<g filter="url(#filter1_d)">
<path d="M23.8467 232.833C22.8248 233.432 21.4197 233.493 20.0061 232.879C18.8615 232.384 17.9118 231.52 17.303 230.532C17.5952 230.779 17.9361 230.976 18.3014 231.149C19.7613 231.843 21.2209 231.796 22.248 231.151C22.2474 231.15 22.2469 231.15 22.2465 231.149C20.7853 230.013 19.5434 228.53 18.618 227.32C18.4231 227.122 18.277 226.875 18.1309 226.653C19.2511 227.69 21.0289 229 21.6619 229.37C20.3227 227.937 19.1294 226.159 19.178 226.208C21.2967 228.382 23.2693 229.618 23.2693 229.618C23.3346 229.655 23.385 229.686 23.4255 229.714C23.4682 229.604 23.5056 229.489 23.5371 229.37C23.8781 228.111 23.4885 226.677 22.6361 225.492C24.6085 226.702 25.7776 228.975 25.2904 230.877C25.2777 230.929 25.2639 230.979 25.249 231.029C25.2547 231.036 25.2604 231.043 25.2661 231.051C26.24 232.286 25.9722 233.595 25.8505 233.348C25.3221 232.299 24.344 232.62 23.8467 232.833L23.8467 232.833Z" fill="white"/>
</g>
</g>
<rect x="36.9653" y="228.374" width="41.7224" height="2.78149" rx="1.39075" fill="white" fill-opacity="0.3"/>
</g>
<path d="M8.9964 266.518H10.0313V261.6H11.8164V260.73H7.21534V261.6H8.9964V266.518ZM13.7579 266.607C14.3917 266.607 14.837 266.322 15.0416 265.852H15.1098V266.518H16.1086V262.134H15.1098V264.689C15.1098 265.347 14.7648 265.764 14.1189 265.764C13.5172 265.764 13.2645 265.419 13.2645 264.741V262.134H12.2657V264.97C12.2657 266.013 12.7711 266.607 13.7579 266.607ZM19.0529 266.538C19.2455 266.538 19.43 266.522 19.5744 266.494V265.724C19.4541 265.736 19.3779 265.74 19.2375 265.74C18.8203 265.74 18.6478 265.556 18.6478 265.118V262.908H19.5744V262.134H18.6478V261.059H17.6329V262.134H16.951V262.908H17.6329V265.355C17.6329 266.201 18.0461 266.538 19.0529 266.538ZM22.4225 266.607C23.7342 266.607 24.5325 265.748 24.5325 264.328V264.32C24.5325 262.908 23.7302 262.05 22.4225 262.05C21.1188 262.05 20.3125 262.912 20.3125 264.32V264.328C20.3125 265.748 21.1068 266.607 22.4225 266.607ZM22.4225 265.796C21.7285 265.796 21.3314 265.255 21.3314 264.332V264.324C21.3314 263.401 21.7285 262.856 22.4225 262.856C23.1125 262.856 23.5096 263.401 23.5096 264.324V264.332C23.5096 265.255 23.1165 265.796 22.4225 265.796ZM25.5354 266.518H26.5342V263.971C26.5342 263.345 26.9714 262.948 27.6373 262.948C27.8098 262.948 27.9743 262.972 28.1347 263.004V262.11C28.0385 262.082 27.882 262.062 27.7296 262.062C27.1519 262.062 26.7508 262.338 26.6024 262.808H26.5342V262.134H25.5354V266.518ZM29.4665 261.4C29.7914 261.4 30.0602 261.139 30.0602 260.81C30.0602 260.485 29.7914 260.22 29.4665 260.22C29.1376 260.22 28.8688 260.485 28.8688 260.81C28.8688 261.139 29.1376 261.4 29.4665 261.4ZM28.9651 266.518H29.9639V262.134H28.9651V266.518ZM32.3868 266.591C32.9644 266.591 33.4298 266.342 33.6704 265.917H33.7386V266.518H34.7254V263.522C34.7254 262.595 34.0916 262.05 32.9644 262.05C31.9215 262.05 31.2155 262.539 31.1192 263.277L31.1152 263.313H32.0579L32.0619 263.297C32.1622 263.008 32.459 262.844 32.9163 262.844C33.4538 262.844 33.7386 263.085 33.7386 263.522V263.899L32.6114 263.967C31.5444 264.031 30.9467 264.489 30.9467 265.271V265.279C30.9467 266.077 31.5524 266.591 32.3868 266.591ZM31.9335 265.231V265.223C31.9335 264.862 32.1943 264.657 32.7518 264.621L33.7386 264.557V264.91C33.7386 265.431 33.2934 265.824 32.6917 265.824C32.2504 265.824 31.9335 265.604 31.9335 265.231ZM35.965 266.518H36.9638V260.437H35.965V266.518ZM39.8841 266.607C40.9631 266.607 41.7454 266.049 41.7454 265.215V265.207C41.7454 264.569 41.3402 264.204 40.4818 264.011L39.7718 263.855C39.2984 263.746 39.1139 263.59 39.1139 263.333V263.329C39.1139 263 39.4348 262.784 39.8801 262.784C40.3494 262.784 40.6382 263.008 40.7104 263.285L40.7144 263.297H41.6531V263.289C41.5889 262.579 40.9511 262.05 39.8841 262.05C38.8491 262.05 38.1271 262.595 38.1271 263.385V263.389C38.1271 264.035 38.5242 264.428 39.3586 264.613L40.0686 264.773C40.55 264.882 40.7425 265.05 40.7425 265.307V265.315C40.7425 265.644 40.3975 265.868 39.9001 265.868C39.4027 265.868 39.1099 265.656 39.0056 265.351L39.0016 265.343H38.0108V265.351C38.095 266.093 38.7689 266.607 39.8841 266.607Z" fill="white" fill-opacity="0.6"/>
<g clip-path="url(#clip13)">
<g clip-path="url(#clip14)">
<path d="M29.7768 283.164C29.7768 287.512 26.2519 291.037 21.9038 291.037C17.5557 291.037 14.0308 287.512 14.0308 283.164C14.0308 278.816 17.5557 275.291 21.9038 275.291C26.2519 275.291 29.7768 278.816 29.7768 283.164Z" stroke="white" stroke-opacity="0.2" stroke-width="0.68461"/>
<g filter="url(#filter2_d)">
<path d="M23.8467 286.235C22.8248 286.833 21.4197 286.895 20.0061 286.28C18.8615 285.786 17.9118 284.922 17.303 283.933C17.5952 284.18 17.9361 284.378 18.3014 284.551C19.7613 285.245 21.2209 285.198 22.248 284.553C22.2474 284.552 22.2469 284.552 22.2465 284.551C20.7853 283.415 19.5434 281.932 18.618 280.722C18.4231 280.524 18.277 280.277 18.1309 280.055C19.2511 281.092 21.0289 282.402 21.6619 282.772C20.3227 281.339 19.1294 279.561 19.178 279.61C21.2967 281.784 23.2693 283.019 23.2693 283.019C23.3346 283.057 23.385 283.088 23.4255 283.116C23.4682 283.005 23.5056 282.891 23.5371 282.772C23.8781 281.512 23.4885 280.079 22.6361 278.894C24.6085 280.104 25.7776 282.377 25.2904 284.279C25.2777 284.331 25.2639 284.381 25.249 284.431C25.2547 284.438 25.2604 284.445 25.2661 284.452C26.24 285.688 25.9722 286.997 25.8505 286.75C25.3221 285.701 24.344 286.022 23.8467 286.235L23.8467 286.235Z" fill="white"/>
</g>
</g>
<rect x="36.9653" y="281.773" width="23.6427" height="2.78149" rx="1.39075" fill="white" fill-opacity="0.3"/>
</g>
<g clip-path="url(#clip15)">
<path d="M29.7768 306.441C29.7768 310.789 26.2519 314.314 21.9038 314.314C17.5557 314.314 14.0308 310.789 14.0308 306.441C14.0308 302.093 17.5557 298.568 21.9038 298.568C26.2519 298.568 29.7768 302.093 29.7768 306.441Z" stroke="white" stroke-opacity="0.2" stroke-width="0.68461"/>
<g clip-path="url(#clip16)">
<path d="M24.4409 306.042L21.5073 308.975L22.7087 310.177L25.6423 307.243L24.4409 306.042Z" fill="white"/>
<path fill-rule="evenodd" clip-rule="evenodd" d="M18.3096 303.423L20.6458 305.759L20.6457 305.773C20.6457 306.103 20.9132 306.371 21.2431 306.371C21.5731 306.371 21.8406 306.103 21.8406 305.773C21.8406 305.443 21.5731 305.176 21.2431 305.176L21.2245 305.176L18.8941 302.845L23.1075 303.643H23.1112L23.9103 306.578L22.0432 308.445L19.1081 307.642L18.3096 303.423Z" fill="white"/>
</g>
<rect x="36.9653" y="305.347" width="31.7337" height="2.18853" rx="1.09427" fill="white" fill-opacity="0.3"/>
</g>
<g clip-path="url(#clip17)">
<path d="M29.7768 329.718C29.7768 334.066 26.2519 337.591 21.9038 337.591C17.5557 337.591 14.0308 334.066 14.0308 329.718C14.0308 325.369 17.5557 321.845 21.9038 321.845C26.2519 321.845 29.7768 325.369 29.7768 329.718Z" stroke="white" stroke-opacity="0.2" stroke-width="0.68461"/>
<path d="M20.3982 334.2C21.2145 334.2 21.8769 333.531 21.8769 332.706V331.213H20.3982C19.5819 331.213 18.9194 331.882 18.9194 332.706C18.9194 333.531 19.5819 334.2 20.3982 334.2Z" fill="white"/>
<path d="M18.9194 329.72C18.9194 328.895 19.5819 328.226 20.3982 328.226H21.8769V331.213H20.3982C19.5819 331.213 18.9194 330.544 18.9194 329.72Z" fill="white"/>
<path d="M18.9216 326.732C18.9216 325.908 19.5841 325.239 20.4004 325.239H21.8791V328.226H20.4004C19.5841 328.226 18.9216 327.557 18.9216 326.732Z" fill="white"/>
<path d="M21.8774 325.238H23.3562C24.1725 325.238 24.835 325.907 24.835 326.731C24.835 327.556 24.1725 328.225 23.3562 328.225H21.8774V325.238Z" fill="white"/>
<path d="M24.835 329.72C24.835 330.544 24.1725 331.213 23.3562 331.213C22.5399 331.213 21.8774 330.544 21.8774 329.72C21.8774 328.895 22.5399 328.226 23.3562 328.226C24.1725 328.226 24.835 328.895 24.835 329.72Z" fill="white"/>
<rect x="36.9653" y="328.327" width="51.4576" height="2.78149" rx="1.39075" fill="white" fill-opacity="0.3"/>
</g>
</g>
<g clip-path="url(#clip18)">
<rect x="13.6921" y="13.6975" width="8.21532" height="8.21532" rx="4.10766" fill="#EB6A5D"/>
<rect x="28.0688" y="13.6975" width="8.21532" height="8.21532" rx="4.10766" fill="#F3BE4F"/>
<rect x="42.4458" y="13.6975" width="8.21532" height="8.21532" rx="4.10766" fill="#64C354"/>
</g>
<path d="M136.913 0H694.154C697.935 0 701 3.0651 701 6.8461V421.154C701 424.935 697.935 428 694.154 428H136.913V0Z" fill="#1A164A" fill-opacity="0.63"/>
<mask id="mask0" mask-type="alpha" maskUnits="userSpaceOnUse" x="136" y="0" width="565" height="428">
<path d="M136.913 0H694.154C697.935 0 701 3.0651 701 6.8461V421.154C701 424.935 697.935 428 694.154 428H136.913V0Z" fill="#1A164A"/>
</mask>
<g mask="url(#mask0)">
<path fill-rule="evenodd" clip-rule="evenodd" d="M650.501 156.592C676.725 92.4358 720.087 -17.9166 607.934 -82.1143C495.781 -146.312 443.607 -105.205 394.597 -86.2721C345.588 -67.3396 224.353 -55.012 242.588 21.5162C260.823 98.0444 264.873 231.876 351.987 231.878C439.101 231.881 427.419 195.609 483.367 189.188C539.315 182.768 624.277 220.748 650.501 156.592Z" fill="url(#paint0_linear)"/>
<path fill-rule="evenodd" clip-rule="evenodd" d="M650.501 156.592C676.725 92.4358 720.087 -17.9166 607.934 -82.1143C495.781 -146.312 443.607 -105.205 394.597 -86.2721C345.588 -67.3396 224.353 -55.012 242.588 21.5162C260.823 98.0444 264.873 231.876 351.987 231.878C439.101 231.881 427.419 195.609 483.367 189.188C539.315 182.768 624.277 220.748 650.501 156.592Z" fill="#14BEFD"/>
<g filter="url(#filter3_d)">
<path fill-rule="evenodd" clip-rule="evenodd" d="M261.336 -54.8166C236.734 17.3023 196.333 141.238 323.599 204.383C450.865 267.529 505.448 219.015 558.001 195.043C610.555 171.07 742.804 149.64 717.808 66.8403C692.811 -15.9592 679.649 -162.572 584.044 -156.897C488.438 -151.222 503.622 -112.176 442.638 -101.483C381.654 -90.791 285.937 -126.936 261.336 -54.8166Z" fill="url(#paint1_linear)"/>
</g>
<g opacity="0.5" filter="url(#filter4_d)">
<path fill-rule="evenodd" clip-rule="evenodd" d="M270.7 -66.4956C246.611 4.12165 207.05 125.476 331.667 187.307C456.283 249.139 509.729 201.634 561.188 178.161C612.648 154.688 742.143 133.703 717.667 52.6281C693.191 -28.4473 680.303 -172.007 586.688 -166.451C493.073 -160.894 507.941 -122.661 448.227 -112.191C388.513 -101.721 294.789 -137.113 270.7 -66.4956Z" stroke="url(#paint2_linear)" stroke-width="6.78117" stroke-linecap="round" stroke-dasharray="67.81 33.91"/>
</g>
<g opacity="0.2" filter="url(#filter5_d)">
<path fill-rule="evenodd" clip-rule="evenodd" d="M299.991 -54.1829C278.896 8.38201 244.294 115.913 356.691 171.809C469.088 227.706 516.727 185.903 562.766 165.439C608.805 144.976 724.951 127.321 702.347 55.0913C679.743 -17.1384 667.07 -144.802 583.032 -140.581C498.994 -136.361 512.64 -102.273 459.088 -93.4274C405.536 -84.5813 321.086 -116.748 299.991 -54.1829Z" stroke="url(#paint3_linear)" stroke-width="3.39059" stroke-linecap="round" stroke-dasharray="33.91 16.95"/>
</g>
<g filter="url(#filter6_d)">
<path fill-rule="evenodd" clip-rule="evenodd" d="M266.531 -92.1863C241.641 -19.2231 200.767 106.163 329.523 170.048C458.279 233.933 513.501 184.851 566.67 160.598C619.839 136.345 753.636 114.664 728.347 30.8948C703.058 -52.874 689.742 -201.203 593.017 -195.462C496.292 -189.721 511.653 -150.217 449.956 -139.4C388.258 -128.582 291.42 -165.15 266.531 -92.1863Z" stroke="url(#paint4_linear)" stroke-width="10.1718" stroke-linecap="round" stroke-dasharray="67.81 33.91"/>
</g>
</g>
<path fill-rule="evenodd" clip-rule="evenodd" d="M572.984 26.7047C578.277 26.7047 582.568 22.4136 582.568 17.1202C582.568 11.8268 578.277 7.53564 572.984 7.53564C567.69 7.53564 563.399 11.8268 563.399 17.1202C563.399 22.4136 567.69 26.7047 572.984 26.7047Z" fill="white" fill-opacity="0.1" stroke="white" stroke-opacity="0.3" stroke-width="0.821532"/>
<path d="M579.831 17.1205C579.831 17.8188 579.728 18.4966 579.53 19.1333C578.989 17.9489 577.798 17.1205 576.408 17.1205C574.518 17.1205 572.985 18.654 572.985 20.5436C572.985 21.9333 573.813 23.1245 574.998 23.6654C574.361 23.8639 573.683 23.9666 572.985 23.9666C569.206 23.9666 566.139 20.8996 566.139 17.1205C566.139 13.3415 569.206 10.2744 572.985 10.2744C576.764 10.2744 579.831 13.3415 579.831 17.1205Z" fill="#00CFFD" stroke="black" stroke-width="0.821532" stroke-miterlimit="10" stroke-linecap="round" stroke-linejoin="round"/>
<path d="M574.991 23.6576C573.807 23.1167 572.985 21.9255 572.985 20.5426C572.985 19.7895 573.225 19.0981 573.642 18.5298C573.423 18.5025 573.204 18.4888 572.985 18.4888C570.74 18.4888 568.816 19.8375 567.967 21.7681C569.22 23.1167 571 23.9656 572.985 23.9656C573.684 23.9656 574.354 23.863 574.991 23.6576Z" fill="white" stroke="black" stroke-width="0.821532" stroke-miterlimit="10" stroke-linecap="round"/>
<path d="M573.751 18.3798H573.758C574.135 17.9143 574.641 17.5446 575.216 17.3323C575.538 16.8805 575.723 16.3397 575.723 15.7509C575.723 14.2379 574.497 13.0125 572.984 13.0125C571.471 13.0125 570.246 14.2379 570.246 15.7509C570.246 17.2639 571.471 18.4893 572.984 18.4893C573.251 18.4893 573.512 18.4483 573.758 18.3798" fill="white"/>
<path d="M573.751 18.3798H573.758C574.135 17.9143 574.641 17.5446 575.216 17.3323C575.538 16.8805 575.723 16.3397 575.723 15.7509C575.723 14.2379 574.497 13.0125 572.984 13.0125C571.471 13.0125 570.246 14.2379 570.246 15.7509C570.246 17.2639 571.471 18.4893 572.984 18.4893C573.251 18.4893 573.512 18.4483 573.758 18.3798" stroke="black" stroke-width="0.821532" stroke-miterlimit="10" stroke-linecap="round" stroke-linejoin="round"/>
<path d="M576.407 23.9672C578.298 23.9672 579.83 22.4346 579.83 20.5441C579.83 18.6536 578.298 17.1211 576.407 17.1211C574.517 17.1211 572.984 18.6536 572.984 20.5441C572.984 22.4346 574.517 23.9672 576.407 23.9672Z" fill="black" stroke="black" stroke-width="0.821532" stroke-miterlimit="10" stroke-linecap="round" stroke-linejoin="round"/>
<path d="M574.76 20.0979L575.993 21.3302L578.047 19.2764" stroke="#00CFFD" stroke-width="0.821532" stroke-miterlimit="10"/>
<g clip-path="url(#clip19)">
<path d="M590.322 20.9587H591.345V15.6487H591.425L593.546 20.9587H594.378L596.504 15.6487H596.58V20.9587H597.603V13.7232H596.309L594.002 19.4946H593.922L591.616 13.7232H590.322V20.9587ZM601.579 21.064C602.973 21.064 603.725 20.2618 603.905 19.5447L603.915 19.4996L602.867 19.5046L602.847 19.5447C602.717 19.8255 602.301 20.1715 601.604 20.1715C600.706 20.1715 600.135 19.5648 600.115 18.5218H603.976V18.1407C603.976 16.5061 603.043 15.408 601.524 15.408C600.004 15.408 599.022 16.5462 599.022 18.246V18.2511C599.022 19.976 599.984 21.064 601.579 21.064ZM601.529 16.3005C602.266 16.3005 602.812 16.7719 602.898 17.7446H600.13C600.225 16.807 600.787 16.3005 601.529 16.3005ZM605.269 20.9587H606.357V17.7647C606.357 16.8872 606.854 16.3406 607.651 16.3406C608.448 16.3406 608.824 16.7869 608.824 17.6895V20.9587H609.907V17.4337C609.907 16.135 609.236 15.408 608.017 15.408C607.225 15.408 606.703 15.759 606.438 16.3406H606.357V15.5133H605.269V20.9587ZM613.728 22.8792C615.273 22.8792 616.25 22.0869 616.25 20.8484V15.5133H615.167V16.4058H615.102C614.786 15.7941 614.195 15.418 613.432 15.418C612.018 15.418 611.151 16.5161 611.151 18.0705V18.0806C611.151 19.6149 612.013 20.693 613.412 20.693C614.16 20.693 614.761 20.362 615.092 19.7704H615.172V20.8434C615.172 21.5855 614.641 22.0067 613.743 22.0067C613.006 22.0067 612.565 21.741 612.475 21.3649L612.47 21.3549H611.372L611.362 21.3649C611.492 22.2725 612.344 22.8792 613.728 22.8792ZM613.713 19.7954C612.786 19.7954 612.264 19.0884 612.264 18.0756V18.0655C612.264 17.0527 612.786 16.3406 613.713 16.3406C614.631 16.3406 615.192 17.0527 615.192 18.0655V18.0756C615.192 19.0934 614.636 19.7954 613.713 19.7954ZM622.583 20.9587H623.707V14.6909H625.978V13.7232H620.307V14.6909H622.583V20.9587ZM628.555 21.064C630.15 21.064 631.128 19.996 631.128 18.241V18.231C631.128 16.476 630.145 15.408 628.555 15.408C626.961 15.408 625.978 16.481 625.978 18.231V18.241C625.978 19.996 626.956 21.064 628.555 21.064ZM628.555 20.1565C627.618 20.1565 627.091 19.4495 627.091 18.241V18.231C627.091 17.0226 627.618 16.3156 628.555 16.3156C629.488 16.3156 630.02 17.0226 630.02 18.231V18.241C630.02 19.4444 629.488 20.1565 628.555 20.1565Z" fill="white"/>
</g>
<path d="M650.002 19.8959C650.154 19.8915 650.294 19.835 650.407 19.7133L653.709 16.3324C653.805 16.2368 653.857 16.1151 653.857 15.9717C653.857 15.6849 653.631 15.4546 653.344 15.4546C653.205 15.4546 653.07 15.5111 652.97 15.611L650.007 18.6573L647.034 15.611C646.934 15.5154 646.804 15.4546 646.661 15.4546C646.374 15.4546 646.148 15.6849 646.148 15.9717C646.148 16.1151 646.2 16.2368 646.296 16.3324L649.603 19.7133C649.72 19.835 649.85 19.8959 650.002 19.8959Z" fill="white"/>
<rect x="157.454" y="62.1216" width="137.684" height="8.34447" rx="2.18853" fill="white" fill-opacity="0.6"/>
<rect x="157.454" y="81.592" width="63.9743" height="8.34447" rx="2.18853" fill="white" fill-opacity="0.6"/>
<rect x="157.454" y="101.062" width="129.339" height="2.78149" rx="1.39075" fill="white" fill-opacity="0.3"/>
<rect x="157.454" y="114.97" width="95.9614" height="2.78149" rx="1.39075" fill="white" fill-opacity="0.3"/>
<rect x="157.454" y="128.877" width="112.65" height="2.78149" rx="1.39075" fill="white" fill-opacity="0.3"/>
<g clip-path="url(#clip20)">
<rect x="563.405" y="48.6213" width="45.4121" height="4.37707" rx="2.18853" fill="white" fill-opacity="0.6"/>
<rect x="563.405" y="58.5613" width="95.9614" height="2.78149" rx="1.39075" fill="white" fill-opacity="0.3"/>
<g filter="url(#filter7_b)">
<rect x="563.401" y="66.9058" width="123.914" height="49.2919" rx="6.8461" fill="#5B0000" fill-opacity="0.22"/>
<path fill-rule="evenodd" clip-rule="evenodd" d="M585.309 105.244C592.871 105.244 599.001 99.1138 599.001 91.5518C599.001 83.9898 592.871 77.8596 585.309 77.8596C577.747 77.8596 571.617 83.9898 571.617 91.5518C571.617 99.1138 577.747 105.244 585.309 105.244Z" fill="white" fill-opacity="0.1" stroke="white" stroke-opacity="0.3" stroke-width="0.821532"/>
<g clip-path="url(#clip21)">
<path d="M588.047 91.5515L585.309 86.7593L582.57 91.5515L579.147 86.7593L579.832 95.6592H590.786L591.47 86.7593L588.047 91.5515Z" fill="#00CFFD" stroke="black" stroke-width="0.821532" stroke-miterlimit="10" stroke-linecap="round" stroke-linejoin="round"/>
<path fill-rule="evenodd" clip-rule="evenodd" d="M591.813 97.713H578.805C578.613 97.713 578.463 97.5624 578.463 97.3707V96.0015C578.463 95.8098 578.613 95.6592 578.805 95.6592H591.813C592.004 95.6592 592.155 95.8098 592.155 96.0015V97.3707C592.155 97.5624 592.004 97.713 591.813 97.713Z" fill="white" stroke="black" stroke-width="0.821532" stroke-miterlimit="10" stroke-linecap="round" stroke-linejoin="round"/>
<path d="M579.148 86.7598C579.526 86.7598 579.832 86.4533 579.832 86.0752C579.832 85.6971 579.526 85.3906 579.148 85.3906C578.77 85.3906 578.463 85.6971 578.463 86.0752C578.463 86.4533 578.77 86.7598 579.148 86.7598Z" stroke="black" stroke-width="0.821532" stroke-miterlimit="10" stroke-linecap="round" stroke-linejoin="round"/>
<path d="M591.471 86.7594C591.849 86.7594 592.156 86.4528 592.156 86.0747C592.156 85.6966 591.849 85.3901 591.471 85.3901C591.093 85.3901 590.787 85.6966 590.787 86.0747C590.787 86.4528 591.093 86.7594 591.471 86.7594Z" stroke="black" stroke-width="0.821532" stroke-miterlimit="10" stroke-linecap="round" stroke-linejoin="round"/>
<path d="M585.312 86.7594C585.69 86.7594 585.997 86.4528 585.997 86.0747C585.997 85.6966 585.69 85.3901 585.312 85.3901C584.934 85.3901 584.627 85.6966 584.627 86.0747C584.627 86.4528 584.934 86.7594 585.312 86.7594Z" stroke="black" stroke-width="0.821532" stroke-miterlimit="10" stroke-linecap="round" stroke-linejoin="round"/>
</g>
<g clip-path="url(#clip22)">
<path d="M609.723 89.7251C611.338 89.7251 612.516 88.8024 612.727 87.4135V87.3834H611.613L611.603 87.4035C611.398 88.2208 610.681 88.7322 609.723 88.7322C608.419 88.7322 607.607 87.6542 607.607 85.9393V85.9293C607.607 84.2094 608.419 83.1313 609.718 83.1313C610.671 83.1313 611.398 83.708 611.608 84.5955V84.6105H612.722L612.727 84.5855C612.536 83.1464 611.313 82.1385 609.718 82.1385C607.707 82.1385 606.459 83.5927 606.459 85.9293V85.9393C606.459 88.2709 607.712 89.7251 609.723 89.7251ZM616.367 89.6549C617.761 89.6549 618.513 88.8526 618.694 88.1355L618.704 88.0904L617.656 88.0954L617.636 88.1355C617.505 88.4163 617.089 88.7623 616.392 88.7623C615.494 88.7623 614.923 88.1556 614.903 87.1126H618.764V86.7316C618.764 85.0969 617.831 83.9988 616.312 83.9988C614.792 83.9988 613.81 85.137 613.81 86.8369V86.8419C613.81 88.5668 614.772 89.6549 616.367 89.6549ZM616.317 84.8913C617.054 84.8913 617.6 85.3627 617.686 86.3354H614.918C615.013 85.3978 615.575 84.8913 616.317 84.8913ZM620.057 89.5496H621.145V86.2953C621.145 85.5081 621.712 84.9966 622.544 84.9966C622.75 84.9966 622.936 85.0217 623.131 85.0618V84.059C623.021 84.0339 622.83 84.0088 622.655 84.0088C621.928 84.0088 621.421 84.3498 621.226 84.9264H621.145V84.1041H620.057V89.5496ZM626.506 89.5847C626.716 89.5847 626.917 89.5596 627.092 89.5295V88.662C626.942 88.6771 626.847 88.6821 626.681 88.6821C626.145 88.6821 625.924 88.4414 625.924 87.8547V84.9615H627.092V84.1041H625.924V82.7302H624.816V84.1041H623.963V84.9615H624.816V88.1155C624.816 89.1635 625.307 89.5847 626.506 89.5847ZM628.928 83.1313C629.299 83.1313 629.61 82.8255 629.61 82.4544C629.61 82.0784 629.299 81.7725 628.928 81.7725C628.551 81.7725 628.246 82.0784 628.246 82.4544C628.246 82.8255 628.551 83.1313 628.928 83.1313ZM628.381 89.5496H629.464V84.1041H628.381V89.5496ZM631.435 89.5496H632.518V84.9615H633.716V84.1041H632.508V83.5826C632.508 83.0311 632.743 82.7402 633.345 82.7402C633.516 82.7402 633.661 82.7503 633.761 82.7653V81.968C633.576 81.938 633.365 81.9179 633.119 81.9179C631.986 81.9179 631.435 82.4494 631.435 83.5325V84.1041H630.537V84.9615H631.435V89.5496ZM635.506 83.1313C635.877 83.1313 636.188 82.8255 636.188 82.4544C636.188 82.0784 635.877 81.7725 635.506 81.7725C635.13 81.7725 634.824 82.0784 634.824 82.4544C634.824 82.8255 635.13 83.1313 635.506 83.1313ZM634.96 89.5496H636.043V84.1041H634.96V89.5496ZM639.919 89.6549C641.268 89.6549 642.045 88.9278 642.24 87.8698L642.25 87.8247H641.207L641.197 87.8497C641.022 88.4364 640.601 88.7473 639.919 88.7473C639.021 88.7473 638.465 88.0152 638.465 86.8118V86.8018C638.465 85.6284 639.011 84.9064 639.919 84.9064C640.641 84.9064 641.082 85.3075 641.202 85.844L641.207 85.8591L642.25 85.8541V85.829C642.1 84.771 641.283 83.9988 639.914 83.9988C638.324 83.9988 637.356 85.0769 637.356 86.8018V86.8118C637.356 88.5718 638.329 89.6549 639.919 89.6549ZM644.978 89.6398C645.7 89.6398 646.272 89.3289 646.593 88.7774H646.678V89.5496H647.756V85.824C647.756 84.6807 646.984 83.9988 645.615 83.9988C644.376 83.9988 643.519 84.5955 643.389 85.488L643.384 85.5231H644.432L644.437 85.5031C644.567 85.117 644.963 84.8964 645.565 84.8964C646.302 84.8964 646.678 85.2273 646.678 85.824V86.3054L645.204 86.3906C643.905 86.4708 643.173 87.0374 643.173 88.0102V88.0202C643.173 89.008 643.94 89.6398 644.978 89.6398ZM644.256 87.9751V87.9651C644.256 87.4737 644.597 87.2029 645.349 87.1578L646.678 87.0725V87.5389C646.678 88.2408 646.081 88.7724 645.269 88.7724C644.682 88.7724 644.256 88.4765 644.256 87.9751ZM651.346 89.5847C651.557 89.5847 651.757 89.5596 651.933 89.5295V88.662C651.782 88.6771 651.687 88.6821 651.522 88.6821C650.985 88.6821 650.765 88.4414 650.765 87.8547V84.9615H651.933V84.1041H650.765V82.7302H649.656V84.1041H648.804V84.9615H649.656V88.1155C649.656 89.1635 650.148 89.5847 651.346 89.5847ZM655.428 89.6549C656.822 89.6549 657.574 88.8526 657.754 88.1355L657.764 88.0904L656.716 88.0954L656.696 88.1355C656.566 88.4163 656.15 88.7623 655.453 88.7623C654.555 88.7623 653.984 88.1556 653.964 87.1126H657.825V86.7316C657.825 85.0969 656.892 83.9988 655.373 83.9988C653.853 83.9988 652.871 85.137 652.871 86.8369V86.8419C652.871 88.5668 653.833 89.6549 655.428 89.6549ZM655.378 84.8913C656.115 84.8913 656.661 85.3627 656.747 86.3354H653.979C654.074 85.3978 654.636 84.8913 655.378 84.8913Z" fill="white"/>
<rect x="605.847" y="94.6111" width="45.8946" height="2.78149" rx="1.39075" fill="white" fill-opacity="0.3"/>
<g clip-path="url(#clip23)">
<rect x="605.847" y="100.131" width="68.461" height="3.42305" rx="1.71153" fill="black" fill-opacity="0.2"/>
<rect x="606.532" y="100.815" width="41.0766" height="2.05383" rx="1.02692" fill="#00CFFD" stroke="black" stroke-opacity="0.05" stroke-width="0.247119"/>
</g>
</g>
</g>
</g>
<rect x="136.913" y="34.2415" width="564.087" height="0.342305" fill="white" fill-opacity="0.2"/>
<rect y="372.531" width="136.914" height="0.68461" fill="white" fill-opacity="0.05"/>
<rect x="145.13" y="7.53296" width="25.3291" height="19.1691" rx="2.73844" fill="black" fill-opacity="0.2"/>
<path d="M154.075 21.5706H161.511C162.454 21.5706 162.945 21.0839 162.945 20.1539V14.8652C162.945 13.9353 162.454 13.4485 161.511 13.4485H154.075C153.136 13.4485 152.645 13.9309 152.645 14.8652V20.1539C152.645 21.0839 153.136 21.5706 154.075 21.5706ZM154.132 20.7058C153.732 20.7058 153.51 20.4972 153.51 20.0757V14.9435C153.51 14.5219 153.732 14.3133 154.132 14.3133H156.113V20.7058H154.132ZM161.454 14.3133C161.854 14.3133 162.076 14.5219 162.076 14.9435V20.0757C162.076 20.4972 161.854 20.7058 161.454 20.7058H156.935V14.3133H161.454ZM155.262 15.9038C155.418 15.9038 155.548 15.7691 155.548 15.6214C155.548 15.4736 155.418 15.3433 155.262 15.3433H154.371C154.214 15.3433 154.084 15.4736 154.084 15.6214C154.084 15.7691 154.214 15.9038 154.371 15.9038H155.262ZM155.262 17.0728C155.418 17.0728 155.548 16.9425 155.548 16.7904C155.548 16.6426 155.418 16.5122 155.262 16.5122H154.371C154.214 16.5122 154.084 16.6426 154.084 16.7904C154.084 16.9425 154.214 17.0728 154.371 17.0728H155.262ZM155.262 18.2375C155.418 18.2375 155.548 18.1114 155.548 17.9593C155.548 17.8116 155.418 17.6856 155.262 17.6856H154.371C154.214 17.6856 154.084 17.8116 154.084 17.9593C154.084 18.1114 154.214 18.2375 154.371 18.2375H155.262Z" fill="white"/>
<rect x="669.512" y="7.53296" width="23.2754" height="19.1691" rx="2.73844" fill="black" fill-opacity="0.2"/>
<path d="M681.145 21.9965C683.609 21.9965 685.643 19.9627 685.643 17.5031C685.643 15.0434 683.605 13.0096 681.141 13.0096C678.681 13.0096 676.652 15.0434 676.652 17.5031C676.652 19.9627 678.686 21.9965 681.145 21.9965ZM681.145 21.1013C679.151 21.1013 677.556 19.4977 677.556 17.5031C677.556 15.5084 679.151 13.9092 681.141 13.9092C683.136 13.9092 684.739 15.5084 684.744 17.5031C684.748 19.4977 683.14 21.1013 681.145 21.1013ZM681.05 18.3678C681.289 18.3678 681.441 18.2288 681.454 18.0506C681.454 18.0332 681.454 18.0158 681.458 17.9985C681.471 17.7768 681.623 17.6247 681.906 17.4422C682.336 17.1641 682.61 16.912 682.61 16.4123C682.61 15.6866 681.958 15.2737 681.184 15.2737C680.441 15.2737 679.933 15.6127 679.798 16.0168C679.772 16.0951 679.755 16.1689 679.755 16.2472C679.755 16.4557 679.92 16.5905 680.12 16.5905C680.376 16.5905 680.433 16.4601 680.567 16.3123C680.706 16.0951 680.889 15.969 681.145 15.969C681.489 15.969 681.715 16.1646 681.715 16.4557C681.715 16.7208 681.532 16.8642 681.163 17.1163C680.854 17.3336 680.628 17.5552 680.628 17.9463V17.9941C680.628 18.2418 680.78 18.3678 681.05 18.3678ZM681.041 19.702C681.319 19.702 681.55 19.5021 681.55 19.2239C681.55 18.9458 681.324 18.7459 681.041 18.7459C680.759 18.7459 680.528 18.9502 680.528 19.2239C680.528 19.4977 680.759 19.702 681.041 19.702Z" fill="white"/>
<defs>
<filter id="filter0_d" x="-16.4696" y="145.166" width="76.2205" height="75.4318" filterUnits="userSpaceOnUse" color-interpolation-filters="sRGB">
<feFlood flood-opacity="0" result="BackgroundImageFix"/>
<feColorMatrix in="SourceAlpha" type="matrix" values="0 0 0 0 0 0 0 0 0 0 0 0 0 0 0 0 0 0 127 0"/>
<feOffset/>
<feGaussianBlur stdDeviation="16.8863"/>
<feColorMatrix type="matrix" values="0 0 0 0 0.250017 0 0 0 0 0.215353 0 0 0 0 0.847968 0 0 0 0.610768 0"/>
<feBlend mode="normal" in2="BackgroundImageFix" result="effect1_dropShadow"/>
<feBlend mode="normal" in="SourceGraphic" in2="effect1_dropShadow" result="shape"/>
</filter>
<filter id="filter1_d" x="-16.4696" y="191.719" width="76.2205" height="75.4318" filterUnits="userSpaceOnUse" color-interpolation-filters="sRGB">
<feFlood flood-opacity="0" result="BackgroundImageFix"/>
<feColorMatrix in="SourceAlpha" type="matrix" values="0 0 0 0 0 0 0 0 0 0 0 0 0 0 0 0 0 0 127 0"/>
<feOffset/>
<feGaussianBlur stdDeviation="16.8863"/>
<feColorMatrix type="matrix" values="0 0 0 0 0.250017 0 0 0 0 0.215353 0 0 0 0 0.847968 0 0 0 0.610768 0"/>
<feBlend mode="normal" in2="BackgroundImageFix" result="effect1_dropShadow"/>
<feBlend mode="normal" in="SourceGraphic" in2="effect1_dropShadow" result="shape"/>
</filter>
<filter id="filter2_d" x="-16.4696" y="245.121" width="76.2205" height="75.4318" filterUnits="userSpaceOnUse" color-interpolation-filters="sRGB">
<feFlood flood-opacity="0" result="BackgroundImageFix"/>
<feColorMatrix in="SourceAlpha" type="matrix" values="0 0 0 0 0 0 0 0 0 0 0 0 0 0 0 0 0 0 127 0"/>
<feOffset/>
<feGaussianBlur stdDeviation="16.8863"/>
<feColorMatrix type="matrix" values="0 0 0 0 0.250017 0 0 0 0 0.215353 0 0 0 0 0.847968 0 0 0 0.610768 0"/>
<feBlend mode="normal" in2="BackgroundImageFix" result="effect1_dropShadow"/>
<feBlend mode="normal" in="SourceGraphic" in2="effect1_dropShadow" result="shape"/>
</filter>
<filter id="filter3_d" x="174.607" y="-217.663" width="606.918" height="513.793" filterUnits="userSpaceOnUse" color-interpolation-filters="sRGB">
<feFlood flood-opacity="0" result="BackgroundImageFix"/>
<feColorMatrix in="SourceAlpha" type="matrix" values="0 0 0 0 0 0 0 0 0 0 0 0 0 0 0 0 0 0 127 0"/>
<feOffset/>
<feGaussianBlur stdDeviation="30.3029"/>
<feColorMatrix type="matrix" values="0 0 0 0 0.129427 0 0 0 0 0.224219 0 0 0 0 0.4375 0 0 0 0.3 0"/>
<feBlend mode="normal" in2="BackgroundImageFix" result="effect1_dropShadow"/>
<feBlend mode="normal" in="SourceGraphic" in2="effect1_dropShadow" result="shape"/>
</filter>
<filter id="filter4_d" x="181.125" y="-230.604" width="603.585" height="512.401" filterUnits="userSpaceOnUse" color-interpolation-filters="sRGB">
<feFlood flood-opacity="0" result="BackgroundImageFix"/>
<feColorMatrix in="SourceAlpha" type="matrix" values="0 0 0 0 0 0 0 0 0 0 0 0 0 0 0 0 0 0 127 0"/>
<feOffset/>
<feGaussianBlur stdDeviation="30.3029"/>
<feColorMatrix type="matrix" values="0 0 0 0 0.129427 0 0 0 0 0.224219 0 0 0 0 0.4375 0 0 0 0.3 0"/>
<feBlend mode="normal" in2="BackgroundImageFix" result="effect1_dropShadow"/>
<feBlend mode="normal" in="SourceGraphic" in2="effect1_dropShadow" result="shape"/>
</filter>
<filter id="filter5_d" x="215.625" y="-202.985" width="551.889" height="465.045" filterUnits="userSpaceOnUse" color-interpolation-filters="sRGB">
<feFlood flood-opacity="0" result="BackgroundImageFix"/>
<feColorMatrix in="SourceAlpha" type="matrix" values="0 0 0 0 0 0 0 0 0 0 0 0 0 0 0 0 0 0 127 0"/>
<feOffset/>
<feGaussianBlur stdDeviation="30.3029"/>
<feColorMatrix type="matrix" values="0 0 0 0 0.129427 0 0 0 0 0.224219 0 0 0 0 0.4375 0 0 0 0.3 0"/>
<feBlend mode="normal" in2="BackgroundImageFix" result="effect1_dropShadow"/>
<feBlend mode="normal" in="SourceGraphic" in2="effect1_dropShadow" result="shape"/>
</filter>
<filter id="filter6_d" x="174.411" y="-261.316" width="622.775" height="528.562" filterUnits="userSpaceOnUse" color-interpolation-filters="sRGB">
<feFlood flood-opacity="0" result="BackgroundImageFix"/>
<feColorMatrix in="SourceAlpha" type="matrix" values="0 0 0 0 0 0 0 0 0 0 0 0 0 0 0 0 0 0 127 0"/>
<feOffset/>
<feGaussianBlur stdDeviation="30.3029"/>
<feColorMatrix type="matrix" values="0 0 0 0 0.129427 0 0 0 0 0.224219 0 0 0 0 0.4375 0 0 0 0.3 0"/>
<feBlend mode="normal" in2="BackgroundImageFix" result="effect1_dropShadow"/>
<feBlend mode="normal" in="SourceGraphic" in2="effect1_dropShadow" result="shape"/>
</filter>
<filter id="filter7_b" x="549.709" y="53.2136" width="151.299" height="76.6763" filterUnits="userSpaceOnUse" color-interpolation-filters="sRGB">
<feFlood flood-opacity="0" result="BackgroundImageFix"/>
<feGaussianBlur in="BackgroundImage" stdDeviation="6.8461"/>
<feComposite in2="SourceAlpha" operator="in" result="effect1_backgroundBlur"/>
<feBlend mode="normal" in="SourceGraphic" in2="effect1_backgroundBlur" result="shape"/>
</filter>
<linearGradient id="paint0_linear" x1="158.139" y1="122.102" x2="525.761" y2="355.301" gradientUnits="userSpaceOnUse">
<stop stop-color="#E1467C"/>
<stop offset="1" stop-color="#FF9CE3"/>
</linearGradient>
<linearGradient id="paint1_linear" x1="693.716" y1="149.856" x2="275.075" y2="-82.1228" gradientUnits="userSpaceOnUse">
<stop stop-color="#E0695B"/>
<stop offset="1" stop-color="#3913B8"/>
</linearGradient>
<linearGradient id="paint2_linear" x1="694.077" y1="133.915" x2="284.154" y2="-93.2333" gradientUnits="userSpaceOnUse">
<stop stop-color="#FF5A3D"/>
<stop offset="1" stop-color="#2FB8FF"/>
</linearGradient>
<linearGradient id="paint3_linear" x1="681.782" y1="127.141" x2="311.869" y2="-77.8364" gradientUnits="userSpaceOnUse">
<stop stop-color="#FF5A3D"/>
<stop offset="1" stop-color="#2FB8FF"/>
</linearGradient>
<linearGradient id="paint4_linear" x1="703.973" y1="114.883" x2="280.432" y2="-119.812" gradientUnits="userSpaceOnUse">
<stop stop-color="#FF6C6C"/>
<stop offset="1" stop-color="#2FB8FF"/>
</linearGradient>
<clipPath id="clip0">
<rect width="16.4306" height="16.4306" fill="white" transform="translate(17.7937 392.05)"/>
</clipPath>
<clipPath id="clip1">
<rect width="75.3071" height="21.1146" fill="white" transform="translate(46.5486 389.709)"/>
</clipPath>
<clipPath id="clip2">
<rect x="46.5486" y="407.4" width="75.3071" height="3.42305" rx="1.71153" fill="white"/>
</clipPath>
<clipPath id="clip3">
<rect width="136.914" height="310.263" fill="white" transform="translate(0 39.9929)"/>
</clipPath>
<clipPath id="clip4">
<rect width="55.0105" height="16.4306" fill="white" transform="translate(13.6885 76.4119)"/>
</clipPath>
<clipPath id="clip5">
<rect width="69.1713" height="16.4306" fill="white" transform="translate(13.6885 101.058)"/>
</clipPath>
<clipPath id="clip6">
<rect width="69.1713" height="16.4306" fill="white" transform="translate(13.6885 125.704)"/>
</clipPath>
<clipPath id="clip7">
<rect width="55.0105" height="16.4306" fill="white" transform="translate(13.6885 174.996)"/>
</clipPath>
<clipPath id="clip8">
<rect width="16.4306" height="16.4306" fill="white" transform="translate(13.6885 174.996)"/>
</clipPath>
<clipPath id="clip9">
<rect width="60.8269" height="16.4306" fill="white" transform="translate(13.6885 198.272)"/>
</clipPath>
<clipPath id="clip10">
<rect width="8.96217" height="8.96217" fill="white" transform="translate(17.4265 202.006)"/>
</clipPath>
<clipPath id="clip11">
<rect width="64.9991" height="16.4306" fill="white" transform="translate(13.6885 221.549)"/>
</clipPath>
<clipPath id="clip12">
<rect width="16.4306" height="16.4306" fill="white" transform="translate(13.6885 221.549)"/>
</clipPath>
<clipPath id="clip13">
<rect width="46.9194" height="16.4306" fill="white" transform="translate(13.6885 274.949)"/>
</clipPath>
<clipPath id="clip14">
<rect width="16.4306" height="16.4306" fill="white" transform="translate(13.6885 274.949)"/>
</clipPath>
<clipPath id="clip15">
<rect width="55.0105" height="16.4306" fill="white" transform="translate(13.6885 298.226)"/>
</clipPath>
<clipPath id="clip16">
<rect width="8.96217" height="8.96217" fill="white" transform="translate(17.4265 301.96)"/>
</clipPath>
<clipPath id="clip17">
<rect width="74.7343" height="16.4306" fill="white" transform="translate(13.6885 321.502)"/>
</clipPath>
<clipPath id="clip18">
<rect width="36.9689" height="8.21759" fill="white" transform="translate(13.6921 13.6963)"/>
</clipPath>
<clipPath id="clip19">
<rect width="42.4458" height="12.323" fill="white" transform="translate(589.414 10.9587)"/>
</clipPath>
<clipPath id="clip20">
<rect width="123.907" height="67.5764" fill="white" transform="translate(563.405 48.6213)"/>
</clipPath>
<clipPath id="clip21">
<rect width="16.4306" height="16.4306" fill="white" transform="translate(577.096 83.3354)"/>
</clipPath>
<clipPath id="clip22">
<rect width="73.2533" height="24.0044" fill="white" transform="translate(605.847 79.5496)"/>
</clipPath>
<clipPath id="clip23">
<rect x="605.847" y="100.131" width="68.461" height="3.42305" rx="1.71153" fill="white"/>
</clipPath>
</defs>
</svg>
