<svg width="183" height="120" viewBox="0 0 183 120" fill="none" xmlns="http://www.w3.org/2000/svg">
<g clip-path="url(#clip0)">
<g filter="url(#filter0_ii)">
<path fill-rule="evenodd" clip-rule="evenodd" d="M160.842 34.0925C167.47 34.5265 173.109 29.5105 173.438 22.8888C173.767 16.2672 168.66 10.5475 162.033 10.1135C155.405 9.67947 149.766 14.6955 149.437 21.3172C149.108 27.9388 154.214 33.6585 160.842 34.0925Z" fill="url(#paint0_linear)"/>
</g>
<path fill-rule="evenodd" clip-rule="evenodd" d="M160.842 34.0925C167.47 34.5265 173.109 29.5105 173.438 22.8888C173.767 16.2672 168.66 10.5475 162.033 10.1135C155.405 9.67947 149.766 14.6955 149.437 21.3172C149.108 27.9388 154.214 33.6585 160.842 34.0925Z" stroke="black" stroke-opacity="0.3" stroke-width="0.27304"/>
<g filter="url(#filter1_d)">
<path d="M164.054 26.7687C162.518 27.545 160.461 27.5004 158.44 26.4682C156.804 25.6377 155.479 24.2847 154.662 22.7845C155.071 23.1729 155.554 23.4941 156.075 23.7812C158.158 24.934 160.293 25.0042 161.84 24.1613C161.839 24.1603 161.839 24.1596 161.838 24.1586C159.786 22.3603 158.079 20.0781 156.815 18.2231C156.545 17.916 156.35 17.5414 156.152 17.203C157.713 18.8244 160.215 20.9053 161.113 21.5069C159.261 19.2874 157.647 16.5775 157.714 16.6541C160.651 20.0296 163.443 22.0212 163.443 22.0212C163.536 22.0819 163.607 22.1321 163.664 22.1765C163.735 22.0198 163.798 21.8564 163.852 21.6863C164.442 19.8801 163.977 17.7514 162.817 15.9393C165.611 17.8947 167.154 21.3235 166.304 24.0533C166.282 24.127 166.258 24.1996 166.233 24.2708C166.241 24.2814 166.248 24.2923 166.256 24.3035C167.589 26.1995 167.103 28.0847 166.943 27.7126C166.248 26.1312 164.796 26.5058 164.054 26.7688L164.054 26.7687Z" fill="#3913B8"/>
</g>
</g>
<g clip-path="url(#clip1)">
<g clip-path="url(#clip2)">
<path d="M14.0564 21.0911C15.6883 21.0911 16.6946 20.2706 16.6946 18.9742L16.6946 18.9697C16.6946 17.9498 16.0917 17.3968 14.7092 17.1112L14.0156 16.9707C13.245 16.812 12.9277 16.5582 12.9277 16.1321L12.9277 16.1275C12.9277 15.638 13.3765 15.3298 14.0519 15.3252C14.7409 15.3252 15.1942 15.6516 15.2712 16.1185L15.2803 16.1729H16.5676L16.5631 16.1139C16.477 15.0215 15.5795 14.2147 14.0519 14.2147C12.6014 14.2147 11.5588 15.017 11.5588 16.2318L11.5588 16.2363C11.5588 17.229 12.1435 17.8636 13.5034 18.1401L14.1924 18.2807C15.0038 18.4484 15.3256 18.6886 15.3256 19.1193L15.3256 19.1238C15.3256 19.6269 14.8225 19.976 14.0927 19.976C13.3266 19.976 12.7963 19.6451 12.7464 19.1555L12.7419 19.1102H11.4228L11.4273 19.1827C11.5044 20.3431 12.4926 21.0911 14.0564 21.0911ZM19.165 20.9233H20.4569L21.6807 16.5174H21.7533L22.9907 20.9233H24.2735L26.0096 14.3824H24.5954L23.5845 19.0558H23.512L22.2972 14.3824H21.1413L19.9492 19.0558H19.8766L18.8567 14.3824H17.4334L19.165 20.9233ZM27.2018 20.9233H28.5707L28.5707 14.3824H27.2018L27.2018 20.9233ZM30.1572 20.9233H31.5262L31.5262 18.3487H34.187L34.187 17.2653H31.5262L31.5262 15.5111H34.4408L34.4408 14.3824H30.1572L30.1572 20.9233ZM37.292 20.9233H38.6609L38.6609 15.5111H40.6237L40.6237 14.3824H35.3292L35.3292 15.5111H37.292L37.292 20.9233ZM44.5718 21.0911C46.258 21.0911 47.3097 20.1165 47.3097 18.666L47.3097 14.3824H45.9407L45.9407 18.5436C45.9407 19.3912 45.4512 19.9306 44.5718 19.9306C43.6924 19.9306 43.1983 19.3912 43.1983 18.5436L43.1983 14.3824H41.8294L41.8294 18.666C41.8294 20.121 42.8946 21.0911 44.5718 21.0911ZM48.8962 20.9233H50.2651L50.2651 14.3824H48.8962L48.8962 20.9233Z" fill="white"/>
<path d="M13.6037 33.3349C14.7198 33.3349 15.5344 32.6971 15.68 31.737L15.68 31.7162H14.9105L14.9035 31.73C14.7614 32.295 14.2657 32.6486 13.6037 32.6486C12.7024 32.6486 12.1409 31.9034 12.1409 30.7179L12.1409 30.7109C12.1409 29.522 12.7024 28.7767 13.6002 28.7767C14.2588 28.7767 14.7614 29.1754 14.907 29.7889L14.907 29.7993H15.6765L15.68 29.782C15.5483 28.7871 14.7025 28.0904 13.6002 28.0904C12.2102 28.0904 11.3471 29.0956 11.3471 30.7109L11.3471 30.7179C11.3471 32.3297 12.2137 33.3349 13.6037 33.3349ZM18.1965 33.2864C19.1602 33.2864 19.6801 32.7318 19.8049 32.2361L19.8118 32.2049L19.0874 32.2084L19.0735 32.2361C18.9834 32.4302 18.6957 32.6694 18.2139 32.6694C17.5934 32.6694 17.1982 32.25 17.1844 31.529H19.8534L19.8534 31.2655C19.8534 30.1355 19.2087 29.3764 18.1584 29.3764C17.1081 29.3764 16.4287 30.1633 16.4287 31.3383L16.4287 31.3418C16.4287 32.5342 17.0943 33.2864 18.1965 33.2864ZM18.1619 29.9934C18.6714 29.9934 19.0493 30.3192 19.1082 30.9917H17.1948C17.2606 30.3435 17.6489 29.9934 18.1619 29.9934ZM20.7478 33.2136H21.4999L21.4999 30.964C21.4999 30.4198 21.8916 30.0662 22.4671 30.0662C22.6092 30.0662 22.7374 30.0835 22.8726 30.1113L22.8726 29.418C22.7964 29.4007 22.6646 29.3833 22.5433 29.3833C22.0407 29.3833 21.6906 29.619 21.5554 30.0177H21.4999L21.4999 29.4492H20.7478L20.7478 33.2136ZM25.2054 33.2379C25.351 33.2379 25.4897 33.2206 25.611 33.1998L25.611 32.6001C25.507 32.6105 25.4412 32.6139 25.3268 32.6139C24.9559 32.6139 24.8034 32.4476 24.8034 32.042L24.8034 30.0419H25.611L25.611 29.4492H24.8034L24.8034 28.4994H24.0373L24.0373 29.4492H23.448L23.448 30.0419H24.0373L24.0373 32.2223C24.0373 32.9467 24.377 33.2379 25.2054 33.2379ZM26.8797 28.7767C27.1362 28.7767 27.3511 28.5653 27.3511 28.3088C27.3511 28.0488 27.1362 27.8374 26.8797 27.8374C26.6197 27.8374 26.4083 28.0488 26.4083 28.3088C26.4083 28.5653 26.6197 28.7767 26.8797 28.7767ZM26.5019 33.2136H27.2506L27.2506 29.4492H26.5019L26.5019 33.2136ZM28.6128 33.2136H29.3616L29.3616 30.0419H30.19L30.19 29.4492H29.3546L29.3546 29.0887C29.3546 28.7074 29.5176 28.5064 29.9335 28.5064C30.0514 28.5064 30.1519 28.5133 30.2212 28.5237L30.2212 27.9725C30.093 27.9517 29.9474 27.9379 29.7775 27.9379C28.9941 27.9379 28.6128 28.3053 28.6128 29.054L28.6128 29.4492H27.9924L27.9924 30.0419H28.6128L28.6128 33.2136ZM31.4275 28.7767C31.684 28.7767 31.8989 28.5653 31.8989 28.3088C31.8989 28.0488 31.684 27.8374 31.4275 27.8374C31.1675 27.8374 30.9561 28.0488 30.9561 28.3088C30.9561 28.5653 31.1675 28.7767 31.4275 28.7767ZM31.0497 33.2136H31.7984L31.7984 29.4492H31.0497L31.0497 33.2136ZM34.4779 33.2864C35.4103 33.2864 35.9476 32.7838 36.0828 32.0524L36.0897 32.0212H35.3687L35.3618 32.0385C35.2405 32.4441 34.9493 32.659 34.4779 32.659C33.8574 32.659 33.4726 32.1529 33.4726 31.321L33.4726 31.3141C33.4726 30.503 33.8505 30.0038 34.4779 30.0038C34.977 30.0038 35.2821 30.2811 35.3652 30.652L35.3687 30.6624L36.0897 30.6589L36.0897 30.6416C35.9857 29.9102 35.4207 29.3764 34.4744 29.3764C33.3756 29.3764 32.7066 30.1217 32.7066 31.3141L32.7066 31.321C32.7066 32.5377 33.379 33.2864 34.4779 33.2864ZM37.9754 33.276C38.4745 33.276 38.8697 33.0611 39.0915 32.6798H39.1505L39.1505 33.2136H39.8957L39.8957 30.6381C39.8957 29.8478 39.3619 29.3764 38.4156 29.3764C37.5594 29.3764 36.9667 29.7889 36.8766 30.4059L36.8731 30.4302H37.5976L37.601 30.4163C37.6911 30.1494 37.965 29.9969 38.3809 29.9969C38.8905 29.9969 39.1505 30.2257 39.1505 30.6381L39.1505 30.9709L38.1314 31.0298C37.2336 31.0853 36.7275 31.477 36.7275 32.1495L36.7275 32.1564C36.7275 32.8393 37.2579 33.276 37.9754 33.276ZM37.4762 32.1252L37.4762 32.1183C37.4762 31.7786 37.7119 31.5914 38.2319 31.5602L39.1505 31.5013L39.1505 31.8236C39.1505 32.3089 38.738 32.6763 38.1764 32.6763C37.7709 32.6763 37.4762 32.4718 37.4762 32.1252ZM42.3776 33.2379C42.5232 33.2379 42.6619 33.2206 42.7832 33.1998L42.7832 32.6001C42.6792 32.6105 42.6133 32.6139 42.4989 32.6139C42.128 32.6139 41.9755 32.4476 41.9755 32.042L41.9755 30.0419H42.7832L42.7832 29.4492H41.9755L41.9755 28.4994H41.2095L41.2095 29.4492H40.6202L40.6202 30.0419H41.2095L41.2095 32.2223C41.2095 32.9467 41.5492 33.2379 42.3776 33.2379ZM45.1992 33.2864C46.1628 33.2864 46.6828 32.7318 46.8076 32.2361L46.8145 32.2049L46.09 32.2084L46.0762 32.2361C45.9861 32.4302 45.6984 32.6694 45.2165 32.6694C44.5961 32.6694 44.2009 32.25 44.187 31.529H46.8561L46.8561 31.2655C46.8561 30.1355 46.2114 29.3764 45.1611 29.3764C44.1108 29.3764 43.4314 30.1633 43.4314 31.3383L43.4314 31.3418C43.4314 32.5342 44.0969 33.2864 45.1992 33.2864ZM45.1645 29.9934C45.6741 29.9934 46.0519 30.3192 46.1108 30.9917H44.1974C44.2633 30.3435 44.6515 29.9934 45.1645 29.9934Z" fill="white" fill-opacity="0.6"/>
</g>
<g clip-path="url(#clip3)">
<rect x="10.9242" y="64.4392" width="58.9765" height="2.18432" rx="1.09216" fill="white" fill-opacity="0.2"/>
<rect x="10.9242" y="70.9922" width="31.6726" height="2.18432" rx="1.09216" fill="white" fill-opacity="0.2"/>
<rect x="10.9242" y="77.5452" width="42.5942" height="2.18432" rx="1.09216" fill="white" fill-opacity="0.2"/>
<g clip-path="url(#clip4)">
<rect x="10.9242" y="84.0981" width="31.6726" height="2.18432" rx="1.09216" fill="white" fill-opacity="0.2"/>
<rect x="10.9242" y="99.3884" width="45.3246" height="4.36863" rx="2.18432" fill="white" fill-opacity="0.4"/>
</g>
</g>
</g>
<defs>
<filter id="filter0_ii" x="149.285" y="9.95068" width="24.3041" height="24.3045" filterUnits="userSpaceOnUse" color-interpolation-filters="sRGB">
<feFlood flood-opacity="0" result="BackgroundImageFix"/>
<feBlend mode="normal" in="SourceGraphic" in2="BackgroundImageFix" result="shape"/>
<feColorMatrix in="SourceAlpha" type="matrix" values="0 0 0 0 0 0 0 0 0 0 0 0 0 0 0 0 0 0 127 0" result="hardAlpha"/>
<feOffset dx="-0.546079" dy="-0.546079"/>
<feComposite in2="hardAlpha" operator="arithmetic" k2="-1" k3="1"/>
<feColorMatrix type="matrix" values="0 0 0 0 1 0 0 0 0 1 0 0 0 0 1 0 0 0 0.25 0"/>
<feBlend mode="normal" in2="shape" result="effect1_innerShadow"/>
<feColorMatrix in="SourceAlpha" type="matrix" values="0 0 0 0 0 0 0 0 0 0 0 0 0 0 0 0 0 0 127 0" result="hardAlpha"/>
<feOffset dx="0.546079" dy="0.546079"/>
<feComposite in2="hardAlpha" operator="arithmetic" k2="-1" k3="1"/>
<feColorMatrix type="matrix" values="0 0 0 0 1 0 0 0 0 1 0 0 0 0 1 0 0 0 0.25 0"/>
<feBlend mode="normal" in2="effect1_innerShadow" result="effect2_innerShadow"/>
</filter>
<filter id="filter1_d" x="127.723" y="-10.9992" width="66.378" height="65.698" filterUnits="userSpaceOnUse" color-interpolation-filters="sRGB">
<feFlood flood-opacity="0" result="BackgroundImageFix"/>
<feColorMatrix in="SourceAlpha" type="matrix" values="0 0 0 0 0 0 0 0 0 0 0 0 0 0 0 0 0 0 127 0"/>
<feOffset/>
<feGaussianBlur stdDeviation="13.4693"/>
<feColorMatrix type="matrix" values="0 0 0 0 0.250017 0 0 0 0 0.215353 0 0 0 0 0.847968 0 0 0 0.610768 0"/>
<feBlend mode="normal" in2="BackgroundImageFix" result="effect1_dropShadow"/>
<feBlend mode="normal" in="SourceGraphic" in2="effect1_dropShadow" result="shape"/>
</filter>
<linearGradient id="paint0_linear" x1="162.033" y1="10.1135" x2="160.464" y2="34.0678" gradientUnits="userSpaceOnUse">
<stop stop-color="#2FB8FF"/>
<stop offset="1" stop-color="#9EECD9"/>
</linearGradient>
<clipPath id="clip0">
<rect width="24.0275" height="24.0275" fill="white" transform="matrix(0.998898 0.0654114 -0.0495533 0.997985 150.032 9.32764)"/>
</clipPath>
<clipPath id="clip1">
<rect width="58.9766" height="92.8335" fill="white" transform="translate(10.9242 10.9233)"/>
</clipPath>
<clipPath id="clip2">
<rect width="40.4099" height="24.5736" fill="white" transform="translate(10.9242 10.9233)"/>
</clipPath>
<clipPath id="clip3">
<rect width="58.9765" height="39.3177" fill="white" transform="translate(10.9242 64.4392)"/>
</clipPath>
<clipPath id="clip4">
<rect width="45.3246" height="19.6588" fill="white" transform="translate(10.9242 84.0981)"/>
</clipPath>
</defs>
</svg>
