<svg width="24" height="24" viewBox="0 0 24 24" fill="none" xmlns="http://www.w3.org/2000/svg">
<path fill-rule="evenodd" clip-rule="evenodd" d="M15.9999 10C15.9999 12.2091 14.209 14 11.9999 14C9.79074 14 7.99988 12.2091 7.99988 10C7.99988 7.79086 9.79074 6 11.9999 6C14.209 6 15.9999 7.79086 15.9999 10ZM11.9999 14C15.2799 14 18.0899 15.97 19.3299 18.79C17.4999 20.76 14.8999 22 11.9999 22C9.09992 22 6.49992 20.76 4.66992 18.79C5.90992 15.97 8.71992 14 11.9999 14Z" fill="#ACACC3"/>
<path d="M12 22C17.5228 22 22 17.5228 22 12C22 6.47715 17.5228 2 12 2C6.47715 2 2 6.47715 2 12C2 17.5228 6.47715 22 12 22Z" stroke="white" stroke-opacity="0.6" stroke-width="1.2" stroke-miterlimit="10" stroke-linecap="round" stroke-linejoin="round"/>
</svg>
