<svg width="24" height="24" viewBox="0 0 24 24" fill="none" xmlns="http://www.w3.org/2000/svg">
<path d="M12.0195 14.06L13.9995 22L15.9995 18L19.9995 20L16.9995 12.02C16.1695 11.98 15.4795 12.67 15.5195 13.5V13.51C15.5895 14.84 13.9495 15.52 13.0495 14.53C12.7795 14.23 12.3895 14.07 12.0195 14.06Z" stroke="white" stroke-opacity="0.3" stroke-width="1.2" stroke-linecap="round" stroke-linejoin="round"/>
<path d="M10.95 14.53C10.05 15.52 8.41 14.84 8.48 13.51V13.5C8.52 12.67 7.83 11.98 7 12.02L4 20L8 18L10 22L11.98 14.06C11.61 14.07 11.22 14.23 10.95 14.53Z" stroke="white" stroke-opacity="0.3" stroke-width="1.2" stroke-linecap="round" stroke-linejoin="round"/>
<path d="M13.0494 2.46995C13.9494 1.47995 15.5894 2.15995 15.5194 3.48995C15.4794 4.32995 16.1694 5.01995 16.9994 4.97995C18.3294 4.90995 19.0094 6.54995 18.0194 7.44995C17.3994 8.00995 17.3994 8.98995 18.0194 9.54995C19.0094 10.4399 18.3294 12.0799 16.9994 12.0199C16.1594 11.9799 15.4694 12.6699 15.5094 13.5099C15.5794 14.8399 13.9394 15.5199 13.0394 14.5299C12.4794 13.9099 11.4994 13.9099 10.9394 14.5299C10.0494 15.5199 8.40945 14.8399 8.46945 13.5099C8.50945 12.6699 7.81945 11.9799 6.97945 12.0199C5.64945 12.0899 4.96945 10.4499 5.95945 9.54995C6.57945 8.98995 6.57945 8.00995 5.95945 7.44995C4.97945 6.54995 5.65945 4.90995 6.98945 4.97995C7.82945 5.01995 8.51945 4.32995 8.47945 3.49995C8.40945 2.15995 10.0494 1.47995 10.9494 2.46995C11.5094 3.09995 12.4894 3.09995 13.0494 2.46995Z" stroke="white" stroke-opacity="0.6" stroke-width="1.2" stroke-linecap="round" stroke-linejoin="round"/>
<path d="M12 11C13.3807 11 14.5 9.88071 14.5 8.5C14.5 7.11929 13.3807 6 12 6C10.6193 6 9.5 7.11929 9.5 8.5C9.5 9.88071 10.6193 11 12 11Z" stroke="white" stroke-opacity="0.6" stroke-width="1.2" stroke-linecap="round" stroke-linejoin="round"/>
</svg>
