<svg width="24" height="24" viewBox="0 0 24 24" fill="none" xmlns="http://www.w3.org/2000/svg">
<path d="M2 9H9.60001" stroke="white" stroke-opacity="0.6" stroke-width="1.2" stroke-miterlimit="10" stroke-linecap="round" stroke-linejoin="round"/>
<path d="M7.40039 5.45833C7.80039 4.625 8.60039 4 9.60039 4C10.9004 4 12.0004 5.14583 12.0004 6.5C12.0004 7.85417 10.9004 9 9.60039 9" stroke="white" stroke-opacity="0.6" stroke-width="1.2" stroke-miterlimit="10" stroke-linecap="round" stroke-linejoin="round"/>
<path d="M2 15H12.7391" stroke="white" stroke-opacity="0.6" stroke-width="1.2" stroke-miterlimit="10" stroke-linecap="round" stroke-linejoin="round"/>
<path d="M10.666 18.5417C11.0428 19.375 11.7964 20 12.7385 20C13.9631 20 14.9993 18.8542 14.9993 17.5C14.9993 16.1458 13.9631 15 12.7385 15" stroke="white" stroke-opacity="0.6" stroke-width="1.2" stroke-miterlimit="10" stroke-linecap="round" stroke-linejoin="round"/>
<path d="M8 12H18.6207" stroke="white" stroke-opacity="0.6" stroke-width="1.2" stroke-miterlimit="10" stroke-linecap="round" stroke-linejoin="round"/>
<path d="M15.5312 7C16.1106 5.8 17.2692 5 18.6209 5C20.4554 5 22.0002 6.6 22.0002 8.5C22.0002 10.4 20.4554 12 18.6209 12" stroke="white" stroke-opacity="0.6" stroke-width="1.2" stroke-miterlimit="10" stroke-linecap="round" stroke-linejoin="round"/>
</svg>
