<svg width="17" height="18" viewBox="0 0 17 18" fill="none" xmlns="http://www.w3.org/2000/svg">
<path fill-rule="evenodd" clip-rule="evenodd" d="M4.20711 3.29289C3.81658 2.90237 3.18342 2.90237 2.79289 3.29289C2.40237 3.68342 2.40237 4.31658 2.79289 4.70711L7.08579 9L2.79289 13.2929C2.40237 13.6834 2.40237 14.3166 2.79289 14.7071C3.18342 15.0976 3.81658 15.0976 4.20711 14.7071L8.5 10.4142L12.7929 14.7071C13.1834 15.0976 13.8166 15.0976 14.2071 14.7071C14.5976 14.3166 14.5976 13.6834 14.2071 13.2929L9.91421 9L14.2071 4.70711C14.5976 4.31658 14.5976 3.68342 14.2071 3.29289C13.8166 2.90237 13.1834 2.90237 12.7929 3.29289L8.5 7.58579L4.20711 3.29289Z" fill="#FF5E4B"/>
</svg>
