<svg width="25" height="24" viewBox="0 0 25 24" fill="none" xmlns="http://www.w3.org/2000/svg">
<path d="M16.2398 8H15.8398C13.3498 8 11.3398 10.01 11.3398 12.5C11.3398 13.02 11.4298 13.52 11.5898 13.99C11.5098 14 11.4198 14 11.3398 14H9.33984L5.33984 18V13.58C3.57984 12.81 2.33984 11.05 2.33984 9C2.33984 6.24 4.57984 4 7.33984 4H11.3398C13.7598 4 15.7798 5.72 16.2398 8Z" fill="white" fill-opacity="0.6"/>
<path d="M22.3398 12.5C22.3398 10.01 20.3298 8 17.8398 8H15.8398C13.3498 8 11.3398 10.01 11.3398 12.5C11.3398 14.99 13.3498 17 15.8398 17H17.3398L20.3398 20V16.24C21.5498 15.43 22.3398 14.06 22.3398 12.5Z" fill="white" fill-opacity="0.3"/>
</svg>
