<svg width="25" height="24" viewBox="0 0 25 24" fill="none" xmlns="http://www.w3.org/2000/svg">
<path d="M15.1602 2H10.1602C6.02016 2 2.66016 5.36 2.66016 9.5C2.66016 12.76 4.75016 15.53 7.66016 16.56V22L12.6602 17H15.1602C19.3002 17 22.6602 13.64 22.6602 9.5C22.6602 5.36 19.3002 2 15.1602 2Z" fill="white" fill-opacity="0.3"/>
<path d="M10.6602 8V8.03C10.6602 8.1 10.6602 8.17 10.6502 8.23C10.5902 10.66 9.43016 12.53 7.66016 13" stroke="white" stroke-opacity="0.6" stroke-width="1.2" stroke-miterlimit="10" stroke-linecap="round" stroke-linejoin="round"/>
<path d="M8.69016 10H8.63016C7.54016 10 6.66016 9.12 6.66016 8.03V7.97C6.66016 6.88 7.54016 6 8.63016 6H8.70016C9.78016 6 10.6602 6.88 10.6602 7.97V8.04C10.6602 9.12 9.78016 10 8.69016 10Z" stroke="white" stroke-opacity="0.6" stroke-width="1.2" stroke-miterlimit="10" stroke-linecap="round" stroke-linejoin="round"/>
<path d="M18.6602 8V8.03C18.6602 8.1 18.6602 8.17 18.6502 8.23C18.5902 10.66 17.4302 12.53 15.6602 13" stroke="white" stroke-opacity="0.6" stroke-width="1.2" stroke-miterlimit="10" stroke-linecap="round" stroke-linejoin="round"/>
<path d="M16.6902 10H16.6202C15.5402 10 14.6602 9.12 14.6602 8.03V7.97C14.6602 6.88 15.5402 6 16.6302 6H16.7002C17.7802 6 18.6602 6.88 18.6602 7.97V8.04C18.6602 9.12 17.7802 10 16.6902 10Z" stroke="white" stroke-opacity="0.6" stroke-width="1.2" stroke-miterlimit="10" stroke-linecap="round" stroke-linejoin="round"/>
</svg>
