<svg width="24" height="24" viewBox="0 0 24 24" fill="none" xmlns="http://www.w3.org/2000/svg">
<path fill-rule="evenodd" clip-rule="evenodd" d="M12 5L16 12L21 5L20 18H21.5C21.78 18 22 18.22 22 18.5V20.5C22 20.78 21.78 21 21.5 21H2.5C2.22 21 2 20.78 2 20.5V18.5C2 18.22 2.22 18 2.5 18H4L3 5L8 12L12 5Z" fill="#3913B8"/>
<path fill-rule="evenodd" clip-rule="evenodd" d="M3 5C3.55228 5 4 4.55228 4 4C4 3.44772 3.55228 3 3 3C2.44772 3 2 3.44772 2 4C2 4.55228 2.44772 5 3 5ZM21 5C21.5523 5 22 4.55228 22 4C22 3.44772 21.5523 3 21 3C20.4477 3 20 3.44772 20 4C20 4.55228 20.4477 5 21 5ZM13 4C13 4.55228 12.5523 5 12 5C11.4477 5 11 4.55228 11 4C11 3.44772 11.4477 3 12 3C12.5523 3 13 3.44772 13 4Z" fill="#3913B8"/>
</svg>
