<svg width="24" height="24" viewBox="0 0 24 24" fill="none" xmlns="http://www.w3.org/2000/svg">
<path d="M12 2L2 12L12 22L22 12L12 2Z" fill="white" fill-opacity="0.3" stroke="white" stroke-opacity="0.6" stroke-width="1.2" stroke-miterlimit="10" stroke-linecap="round" stroke-linejoin="round"/>
<path fill-rule="evenodd" clip-rule="evenodd" d="M9.49497 12.5859C9.26065 12.3516 8.88075 12.3516 8.64644 12.5859C8.41212 12.8202 8.41212 13.2001 8.64644 13.4344L11.6769 16.4649C11.7894 16.5774 11.9421 16.6406 12.1012 16.6406C12.2603 16.6406 12.4129 16.5774 12.5255 16.4649L15.5559 13.4344C15.7903 13.2001 15.7903 12.8202 15.5559 12.5859C15.3216 12.3516 14.9417 12.3516 14.7074 12.5859L12.7012 14.5921L12.7012 7.45426C12.7012 7.12289 12.4326 6.85426 12.1012 6.85426C11.7698 6.85426 11.5012 7.12289 11.5012 7.45426L11.5012 14.5921L9.49497 12.5859Z" fill="white" fill-opacity="0.6"/>
</svg>
