<svg width="24" height="24" viewBox="0 0 24 24" fill="none" xmlns="http://www.w3.org/2000/svg">
<path d="M12 2L2 12L12 22L22 12L12 2Z" fill="#00CFFD" stroke="black" stroke-width="1.2" stroke-miterlimit="10" stroke-linecap="round" stroke-linejoin="round"/>
<path fill-rule="evenodd" clip-rule="evenodd" d="M9.49472 12.5859C9.26041 12.3516 8.88051 12.3516 8.64619 12.5859C8.41188 12.8202 8.41188 13.2001 8.64619 13.4344L11.6767 16.4649C11.7892 16.5774 11.9418 16.6406 12.1009 16.6406C12.2601 16.6406 12.4127 16.5774 12.5252 16.4649L15.5557 13.4344C15.79 13.2001 15.79 12.8202 15.5557 12.5859C15.3214 12.3516 14.9415 12.3516 14.7072 12.5859L12.701 14.5921L12.701 7.45426C12.701 7.12289 12.4323 6.85426 12.101 6.85426C11.7696 6.85426 11.501 7.12289 11.501 7.45426L11.501 14.5921L9.49472 12.5859Z" fill="black"/>
</svg>
