<svg width="24" height="24" viewBox="0 0 24 24" fill="none" xmlns="http://www.w3.org/2000/svg">
<path fill-rule="evenodd" clip-rule="evenodd" d="M2 10.3999C2.10525 10.3998 2.21187 10.4274 2.3087 10.4855L12 16.3003L21.6913 10.4855C21.7881 10.4274 21.8948 10.3998 22 10.3999V9L12 2L2 9V10.3999ZM22 11.6997L12.3087 17.5145L12 17.6997L11.6913 17.5145L2 11.6997V20C2 21.1 2.9 22 4 22H20C21.1 22 22 21.1 22 20V11.6997Z" fill="white" fill-opacity="0.6"/>
<path d="M2 10.4L12 16.3L22 10.4V9L12 2L2 9V10.4Z" fill="white" fill-opacity="0.6"/>
</svg>
