<svg width="20" height="20" viewBox="0 0 20 20" fill="none" xmlns="http://www.w3.org/2000/svg">
<path fill-rule="evenodd" clip-rule="evenodd" d="M0 8.39991C0.105249 8.39981 0.211874 8.42741 0.308697 8.4855L10 14.3003L19.6913 8.4855C19.7881 8.42741 19.8948 8.39981 20 8.39991V7L10 0L0 7V8.39991ZM20 9.69971L10.3087 15.5145L10 15.6997L9.6913 15.5145L0 9.69971V18C0 19.1 0.9 20 2 20H18C19.1 20 20 19.1 20 18V9.69971Z" fill="#90DBFF"/>
<path d="M0 8.4L10 14.3L20 8.4V7L10 0L0 7V8.4Z" fill="white"/>
</svg>
