<svg width="24" height="24" viewBox="0 0 24 24" fill="none" xmlns="http://www.w3.org/2000/svg">
<path fill-rule="evenodd" clip-rule="evenodd" d="M13.1048 9.20992L13.1048 9.20989L14.0383 10.8544L14.0383 10.8544L1.70438 18.097C1.41863 18.2648 1.3196 18.6345 1.48318 18.9226C1.64677 19.2108 2.01103 19.3084 2.29677 19.1406L14.6307 11.898L14.6307 11.898L15.8605 14.0643L21.1464 10.9604L17.8828 5.21104C17.6892 4.86997 17.4004 4.59481 17.0524 4.4198L15.2046 3.49056C14.6385 3.2059 13.9671 3.22897 13.417 3.55199C12.867 3.87501 12.5116 4.45486 12.471 5.09578L12.3383 7.18796C12.317 7.52451 12.3794 7.85954 12.5188 8.16264L12.5124 8.16633L3.70247 13.3396C3.41672 13.5074 3.31769 13.877 3.48127 14.1652C3.64486 14.4534 4.00912 14.551 4.29486 14.3832L13.1048 9.20992ZM22.6007 18.896C22.6007 19.2274 22.332 19.496 22.0007 19.496H20.5661V22C20.5661 22.3314 20.2975 22.6 19.9661 22.6C19.6348 22.6 19.3661 22.3314 19.3661 22V19.496H17.9315C17.6002 19.496 17.3315 19.2274 17.3315 18.896C17.3315 18.5647 17.6002 18.296 17.9315 18.296H22.0007C22.332 18.296 22.6007 18.5647 22.6007 18.896Z" fill="#3913B8"/>
</svg>
