<svg width="25" height="24" viewBox="0 0 25 24" fill="none" xmlns="http://www.w3.org/2000/svg">
<path d="M12.3398 22C17.8627 22 22.3398 17.5228 22.3398 12C22.3398 6.47715 17.8627 2 12.3398 2C6.817 2 2.33984 6.47715 2.33984 12C2.33984 17.5228 6.817 22 12.3398 22Z" fill="white" fill-opacity="0.3"/>
<path d="M12.3498 14C12.3498 13.5 12.3498 13.5 12.3498 13.5C12.3798 12.75 13.3398 12.46 14.3798 11.2C14.7498 10.74 15.0298 10.41 15.1998 9.85C15.4898 8.95 15.2598 8.18 15.1998 8.02C15.1398 7.79 14.8598 7 14.0598 6.46C13.3998 6.02 12.7598 6 12.4798 6C12.2398 6 11.6998 6 11.1198 6.3C10.6198 6.56 10.3198 6.9 10.1698 7.1C9.57984 7.82 9.39984 8.63 9.33984 9.06" stroke="white" stroke-opacity="0.6" stroke-width="1.2" stroke-miterlimit="10" stroke-linecap="round" stroke-linejoin="round"/>
<path d="M12.3301 18H12.3501" stroke="white" stroke-opacity="0.6" stroke-width="1.2" stroke-miterlimit="10" stroke-linecap="round"/>
</svg>
