<svg width="25" height="24" viewBox="0 0 25 24" fill="none" xmlns="http://www.w3.org/2000/svg">
<path d="M18.8398 15.0001C19.6698 15.0001 20.3398 15.6701 20.3398 16.5001C20.3398 17.3301 19.6698 18.0001 18.8398 18.0001H16.3398H18.3398C19.1698 18.0001 19.8398 18.6701 19.8398 19.5001C19.8398 20.3301 19.1698 21.0001 18.3398 21.0001H17.3398H9.33984C6.02984 21.0001 3.33984 18.3001 3.33984 14.9801C3.33984 12.2801 5.10984 9.99009 7.55984 9.23009C8.78984 8.84009 9.70984 7.80009 10.1098 6.56009L11.0298 3.73009C11.1898 3.08009 11.8498 2.91009 12.5098 3.03009C13.5598 3.21009 14.4498 4.56009 14.4498 7.00009L14.3398 9.00009H19.8398C20.6698 9.00009 21.3398 9.67009 21.3398 10.5001C21.3398 11.3301 20.6698 12.0001 19.8398 12.0001H17.3398H19.3398C20.1698 12.0001 20.8398 12.6701 20.8398 13.5001C20.8398 14.3301 20.1698 15.0001 19.3398 15.0001H16.8398" fill="white" fill-opacity="0.6"/>
</svg>
