<svg width="24" height="24" viewBox="0 0 24 24" fill="none" xmlns="http://www.w3.org/2000/svg">
<path d="M18.5 14.9999C19.33 14.9999 20 15.6699 20 16.4999C20 17.3299 19.33 17.9999 18.5 17.9999H16H18C18.83 17.9999 19.5 18.6699 19.5 19.4999C19.5 20.3299 18.83 20.9999 18 20.9999H17H9C5.69 20.9999 3 18.2998 3 14.9798C3 12.2799 4.77 9.98985 7.22 9.22985C8.45 8.83985 9.37 7.79985 9.77 6.55985L10.69 3.72985C10.85 3.07985 11.51 2.90985 12.17 3.02985C13.22 3.20985 14.11 4.55985 14.11 6.99985L14 8.99985H19.5C20.33 8.99985 21 9.66985 21 10.4999C21 11.3299 20.33 11.9999 19.5 11.9999H17H19C19.83 11.9999 20.5 12.6699 20.5 13.4999C20.5 14.3299 19.83 14.9999 19 14.9999H16.5" fill="white" fill-opacity="0.6"/>
</svg>
