<svg width="24" height="24" viewBox="0 0 24 24" fill="none" xmlns="http://www.w3.org/2000/svg">
<path d="M17.7796 11.74L20.8596 8.66C21.6196 7.9 21.9996 6.9 21.9996 5.9C21.9996 4.9 21.6196 3.9 20.8596 3.14C19.3296 1.62 16.8696 1.62 15.3396 3.14L11.7596 6.73L10.9596 7.53L10.2496 8.24C9.47961 9 9.09961 10 9.09961 11C9.09961 11.22 9.11961 11.43 9.14961 11.64C9.15961 11.65 9.15961 11.67 9.15961 11.69C9.19961 11.89 9.24961 12.08 9.31961 12.27C9.49961 12.81 9.80961 13.32 10.2496 13.75C10.4696 13.97 10.7096 14.16 10.9596 14.31" stroke="black" stroke-opacity="0.7" stroke-width="1.2" stroke-miterlimit="10" stroke-linecap="round" stroke-linejoin="round"/>
<path d="M6.22 12.26L3.14 15.34C2.38 16.1 2 17.1 2 18.1C2 19.1 2.38 20.1 3.14 20.86C4.67 22.38 7.13 22.38 8.66 20.86L12.24 17.27L13.04 16.47L13.75 15.76C14.52 15 14.9 14 14.9 13C14.9 12.78 14.88 12.57 14.85 12.36C14.84 12.35 14.84 12.33 14.84 12.31C14.8 12.11 14.75 11.92 14.68 11.73C14.5 11.19 14.19 10.68 13.75 10.25C13.53 10.03 13.29 9.84 13.04 9.69" stroke="black" stroke-opacity="0.7" stroke-width="1.2" stroke-miterlimit="10" stroke-linecap="round" stroke-linejoin="round"/>
</svg>
