<svg width="25" height="24" viewBox="0 0 25 24" fill="none" xmlns="http://www.w3.org/2000/svg">
<g clip-path="url(#clip0)">
<path d="M18.1195 11.74L21.1995 8.66C21.9595 7.9 22.3395 6.9 22.3395 5.9C22.3395 4.9 21.9595 3.9 21.1995 3.14C19.6695 1.62 17.2095 1.62 15.6795 3.14L12.0995 6.73L11.2995 7.53L10.5895 8.24C9.81945 9 9.43945 10 9.43945 11C9.43945 11.22 9.45945 11.43 9.48945 11.64C9.49945 11.65 9.49945 11.67 9.49945 11.69C9.53945 11.89 9.58945 12.08 9.65945 12.27C9.83945 12.81 10.1495 13.32 10.5895 13.75C10.8095 13.97 11.0495 14.16 11.2995 14.31" stroke="white" stroke-opacity="0.6" stroke-width="1.2" stroke-miterlimit="10" stroke-linecap="round" stroke-linejoin="round"/>
<path d="M6.55984 12.2599L3.47984 15.3399C2.71984 16.0999 2.33984 17.0999 2.33984 18.0999C2.33984 19.0999 2.71984 20.0999 3.47984 20.8599C5.00984 22.3799 7.46984 22.3799 8.99984 20.8599L12.5798 17.2699L13.3798 16.4699L14.0898 15.7599C14.8598 14.9999 15.2398 13.9999 15.2398 12.9999C15.2398 12.7799 15.2198 12.5699 15.1898 12.3599C15.1798 12.3499 15.1798 12.3299 15.1798 12.3099C15.1398 12.1099 15.0898 11.9199 15.0198 11.7299C14.8398 11.1899 14.5298 10.6799 14.0898 10.2499C13.8698 10.0299 13.6298 9.83994 13.3798 9.68994" stroke="white" stroke-opacity="0.6" stroke-width="1.2" stroke-miterlimit="10" stroke-linecap="round" stroke-linejoin="round"/>
</g>
<defs>
<clipPath id="clip0">
<rect width="24" height="24" fill="white" transform="translate(0.339844)"/>
</clipPath>
</defs>
</svg>
