<svg width="24" height="24" viewBox="0 0 24 24" fill="none" xmlns="http://www.w3.org/2000/svg">
<path d="M8 12V6C8 3.79 9.79 2 12 2C14.21 2 16 3.79 16 6V12" stroke="white" stroke-width="1.2" stroke-miterlimit="10" stroke-linejoin="round"/>
<path fill-rule="evenodd" clip-rule="evenodd" d="M6 21C6 21.55 6.45 22 7 22H17C17.55 22 18 21.55 18 21V13C18 12.45 17.55 12 17 12H7C6.45 12 6 12.45 6 13V21ZM12.6 18C12.6 17.6686 12.3314 17.4 12 17.4C11.6686 17.4 11.4 17.6686 11.4 18V19C11.4 19.3314 11.6686 19.6 12 19.6C12.3314 19.6 12.6 19.3314 12.6 19V18Z" fill="#90DBFF"/>
</svg>
