<svg width="24" height="24" viewBox="0 0 24 24" fill="none" xmlns="http://www.w3.org/2000/svg">
<path fill-rule="evenodd" clip-rule="evenodd" d="M18 8H6C6 4.69 8.69 2 12 2C15.31 2 18 4.69 18 8Z" stroke="white" stroke-opacity="0.3" stroke-width="1.2" stroke-miterlimit="10" stroke-linejoin="round"/>
<path fill-rule="evenodd" clip-rule="evenodd" d="M19 22H5C4.45 22 4 21.55 4 21V9C4 8.45 4.45 8 5 8H19C19.55 8 20 8.45 20 9V21C20 21.55 19.55 22 19 22Z" fill="white" fill-opacity="0.3"/>
<path d="M9.16992 12.1699L14.8299 17.8299" stroke="white" stroke-opacity="0.6" stroke-width="1.2" stroke-miterlimit="10" stroke-linecap="square" stroke-linejoin="round"/>
<path d="M12 11V19" stroke="white" stroke-opacity="0.6" stroke-width="1.2" stroke-miterlimit="10" stroke-linecap="square" stroke-linejoin="round"/>
<path d="M14.8299 12.1699L9.16992 17.8299" stroke="white" stroke-opacity="0.6" stroke-width="1.2" stroke-miterlimit="10" stroke-linecap="square" stroke-linejoin="round"/>
<path d="M16 15H8" stroke="white" stroke-opacity="0.6" stroke-width="1.2" stroke-miterlimit="10" stroke-linecap="square" stroke-linejoin="round"/>
</svg>
