<svg width="25" height="24" viewBox="0 0 25 24" fill="none" xmlns="http://www.w3.org/2000/svg">
<path d="M12.9198 5.22C13.1898 4.88 13.3398 4.46 13.3398 4C13.3398 2.9 12.4398 2 11.3398 2C10.2398 2 9.33984 2.9 9.33984 4C9.33984 4.46 9.48984 4.88 9.75984 5.22" fill="white" fill-opacity="0.3"/>
<path d="M11.7498 19H8.88984C8.85984 19.16 8.83984 19.33 8.83984 19.5C8.83984 20.88 9.95984 22 11.3398 22C12.1598 22 12.8798 21.61 13.3398 21C12.6498 20.48 12.0998 19.79 11.7498 19H8.88984H11.7498Z" fill="white" fill-opacity="0.3"/>
<path d="M17.3398 12.1C17.0198 12.03 16.6798 12 16.3398 12C13.5798 12 11.3398 14.24 11.3398 17C11.3398 17.71 11.4898 18.39 11.7498 19H8.88984H3.33984L4.97984 14.89C5.21984 14.3 5.33984 13.67 5.33984 13.04V11C5.33984 7.61999 8.12984 4.89999 11.5198 4.99999C14.8098 5.09999 17.3398 7.96999 17.3398 11.25V12.1Z" fill="white" fill-opacity="0.6"/>
<path d="M16.3398 22C19.1013 22 21.3398 19.7614 21.3398 17C21.3398 14.2386 19.1013 12 16.3398 12C13.5784 12 11.3398 14.2386 11.3398 17C11.3398 19.7614 13.5784 22 16.3398 22Z" fill="white" fill-opacity="0.3"/>
<path d="M13.3398 17H19.3398" stroke="white" stroke-width="1.2" stroke-miterlimit="10" stroke-linejoin="round"/>
<path d="M16.3398 14V20" stroke="white" stroke-width="1.2" stroke-miterlimit="10" stroke-linejoin="round"/>
</svg>
