<svg width="24" height="24" viewBox="0 0 24 24" fill="none" xmlns="http://www.w3.org/2000/svg">
<path d="M22 10V22H4V2H14" fill="white" fill-opacity="0.3"/>
<path d="M18 18H8V17C8 14.24 10.24 12 13 12C15.76 12 18 14.24 18 17V18Z" fill="white" fill-opacity="0.5"/>
<path d="M13 12C14.6569 12 16 10.6569 16 9C16 7.34315 14.6569 6 13 6C11.3431 6 10 7.34315 10 9C10 10.6569 11.3431 12 13 12Z" fill="white" fill-opacity="0.5"/>
<path d="M5 11.5H2V12.5H5V11.5Z" stroke="white" stroke-opacity="0.6" stroke-width="1.2" stroke-miterlimit="10" stroke-linecap="round" stroke-linejoin="round"/>
<path d="M5 18H2V19H5V18Z" stroke="white" stroke-opacity="0.6" stroke-width="1.2" stroke-miterlimit="10" stroke-linecap="round" stroke-linejoin="round"/>
<path d="M5 5H2V6H5V5Z" stroke="white" stroke-opacity="0.6" stroke-width="1.2" stroke-miterlimit="10" stroke-linecap="round" stroke-linejoin="round"/>
<path d="M17.5996 3.3499L19.3996 5.1499L22.3996 2.1499" stroke="white" stroke-opacity="0.6" stroke-width="1.2" stroke-miterlimit="10"/>
</svg>
