<svg width="54" height="52" viewBox="0 0 54 52" fill="none" xmlns="http://www.w3.org/2000/svg">
<circle cx="27" cy="26" r="26" fill="#F2F6FF"/>
<path d="M29.8333 12.6667H23.1666C17.6466 12.6667 13.1666 17.1467 13.1666 22.6667C13.1666 27.0134 15.9533 30.7067 19.8333 32.0801V39.3334L26.5 32.6667H29.8333C35.3533 32.6667 39.8333 28.1867 39.8333 22.6667C39.8333 17.1467 35.3533 12.6667 29.8333 12.6667Z" fill="white" stroke="#3913B8" stroke-width="1.5" stroke-miterlimit="10" stroke-linecap="round" stroke-linejoin="round"/>
<path d="M26.5 28.6667H26.5133" stroke="#00CFFD" stroke-width="1.5" stroke-miterlimit="10" stroke-linecap="round" stroke-linejoin="round"/>
<path d="M23.8333 19.3867C23.8866 19.0001 24.0466 18.2801 24.5799 17.6401C24.7266 17.4667 24.9799 17.1601 25.4199 16.9334C25.9399 16.6667 26.4199 16.6667 26.6333 16.6667C26.8866 16.6667 27.4466 16.6934 28.0333 17.0801C28.7533 17.5601 28.9799 18.2534 29.0466 18.4667C29.0866 18.5734 29.2866 19.2801 29.0466 20.0934C28.8999 20.6001 28.6333 20.9201 28.3933 21.1867C27.4599 22.2934 26.6466 22.2001 26.4999 22.9201C26.4866 22.9734 26.4999 23.3734 26.4999 24.1601C26.4999 24.3734 26.4999 24.5467 26.4999 24.6667" stroke="#00CFFD" stroke-width="1.5" stroke-miterlimit="10" stroke-linecap="round" stroke-linejoin="round"/>
</svg>
