<svg width="24" height="24" viewBox="0 0 24 24" fill="none" xmlns="http://www.w3.org/2000/svg">
<path fill-rule="evenodd" clip-rule="evenodd" d="M13.8696 4.89L13.5596 2.44C13.5296 2.19 13.3196 2 13.0596 2H9.94962C9.69962 2 9.47962 2.19 9.44962 2.44L9.17962 4.59C9.15962 4.77 9.02962 4.93 8.85962 4.99C8.01962 5.3 7.21962 5.78 6.52962 6.4L4.24962 5.44C4.01962 5.34 3.74962 5.43 3.61962 5.65L2.05962 8.35C1.93962 8.57 1.99962 8.85 2.19962 9L4.16962 10.49C3.95962 11.5 3.95962 12.53 4.15962 13.51H4.16962L2.19962 15C1.99962 15.15 1.93962 15.43 2.06962 15.65L3.62962 18.35C3.75962 18.57 4.02962 18.66 4.25962 18.56L6.53962 17.6L6.52962 17.61C6.89962 17.94 7.31962 18.24 7.76962 18.5C8.21962 18.76 8.67962 18.97 9.15962 19.13V19.11L9.46962 21.56C9.47962 21.81 9.69962 22 9.94962 22H13.0696C13.3196 22 13.5296 21.81 13.5696 21.56L13.8396 19.41C13.8596 19.23 13.9896 19.07 14.1596 19.01C14.9996 18.7 15.7996 18.22 16.4896 17.6L18.7696 18.56C18.9996 18.66 19.2696 18.57 19.3996 18.35L20.9596 15.65C21.0896 15.43 21.0296 15.15 20.8296 15L18.8596 13.51C19.0696 12.5 19.0696 11.47 18.8696 10.49H18.8596L20.8096 9C21.0096 8.85 21.0696 8.57 20.9396 8.35L19.3796 5.65C19.2496 5.43 18.9796 5.34 18.7496 5.44L16.4796 6.4L16.4896 6.39C16.1196 6.06 15.6996 5.76 15.2496 5.5C14.7996 5.24 14.3396 5.03 13.8596 4.87" fill="white" fill-opacity="0.3"/>
<path d="M11.5098 16C13.7189 16 15.5098 14.2091 15.5098 12C15.5098 9.79086 13.7189 8 11.5098 8C9.30063 8 7.50977 9.79086 7.50977 12C7.50977 14.2091 9.30063 16 11.5098 16Z" stroke="white" stroke-opacity="0.6" stroke-width="1.2" stroke-miterlimit="10" stroke-linecap="round" stroke-linejoin="round"/>
</svg>
