<svg width="21" height="20" viewBox="0 0 21 20" fill="none" xmlns="http://www.w3.org/2000/svg">
<path fill-rule="evenodd" clip-rule="evenodd" d="M12.8696 2.89L12.5596 0.44C12.5296 0.19 12.3196 0 12.0596 0H8.94962C8.69962 0 8.47962 0.19 8.44962 0.44L8.17962 2.59C8.15962 2.77 8.02962 2.93 7.85962 2.99C7.01962 3.3 6.21962 3.78 5.52962 4.4L3.24962 3.44C3.01962 3.34 2.74962 3.43 2.61962 3.65L1.05962 6.35C0.939617 6.57 0.999617 6.85 1.19962 7L3.16962 8.49C2.95962 9.5 2.95962 10.53 3.15962 11.51H3.16962L1.19962 13C0.999617 13.15 0.939617 13.43 1.06962 13.65L2.62962 16.35C2.75962 16.57 3.02962 16.66 3.25962 16.56L5.53962 15.6L5.52962 15.61C5.89962 15.94 6.31962 16.24 6.76962 16.5C7.21962 16.76 7.67962 16.97 8.15962 17.13V17.11L8.46962 19.56C8.47962 19.81 8.69962 20 8.94962 20H12.0696C12.3196 20 12.5296 19.81 12.5696 19.56L12.8396 17.41C12.8596 17.23 12.9896 17.07 13.1596 17.01C13.9996 16.7 14.7996 16.22 15.4896 15.6L17.7696 16.56C17.9996 16.66 18.2696 16.57 18.3996 16.35L19.9596 13.65C20.0896 13.43 20.0296 13.15 19.8296 13L17.8596 11.51C18.0696 10.5 18.0696 9.47 17.8696 8.49H17.8596L19.8096 7C20.0096 6.85 20.0696 6.57 19.9396 6.35L18.3796 3.65C18.2496 3.43 17.9796 3.34 17.7496 3.44L15.4796 4.4L15.4896 4.39C15.1196 4.06 14.6996 3.76 14.2496 3.5C13.7996 3.24 13.3396 3.03 12.8596 2.87" fill="white" fill-opacity="0.3"/>
<path d="M10.5098 14C12.7189 14 14.5098 12.2091 14.5098 10C14.5098 7.79086 12.7189 6 10.5098 6C8.30063 6 6.50977 7.79086 6.50977 10C6.50977 12.2091 8.30063 14 10.5098 14Z" stroke="white" stroke-opacity="0.6" stroke-width="1.2" stroke-miterlimit="10" stroke-linecap="round" stroke-linejoin="round"/>
</svg>
