<svg width="24" height="24" viewBox="0 0 24 24" fill="none" xmlns="http://www.w3.org/2000/svg">
<path fill-rule="evenodd" clip-rule="evenodd" d="M9.5 6.5C9.5 7.88071 8.38071 9 7 9C5.61929 9 4.5 7.88071 4.5 6.5C4.5 5.11929 5.61929 4 7 4C8.38071 4 9.5 5.11929 9.5 6.5ZM7 12C9.38 12 11.38 13.48 11.88 15.47C11.45 15.82 11.09 16.23 10.8 16.68C9.73 16.86 8.45 17 7 17C5.69 17 3.97 16.89 2 16.44C2 13.99 4.24 12 7 12Z" fill="white" fill-opacity="0.3"/>
<path fill-rule="evenodd" clip-rule="evenodd" d="M19 8C19 9.65685 17.6569 11 16 11C14.3431 11 13 9.65685 13 8C13 6.34315 14.3431 5 16 5C17.6569 5 19 6.34315 19 8ZM16 20C14.43 20 12.36 19.86 10 19.33C10 16.39 12.69 14 16 14C19.31 14 22 16.38 22 19.33C20.48 19.68 18.43 20 16 20Z" fill="white" fill-opacity="0.6"/>
</svg>
