<svg width="24" height="24" viewBox="0 0 24 24" fill="none" xmlns="http://www.w3.org/2000/svg">
<path d="M11 2C8.66004 2 5.71004 3.72 5.76004 8.16L2.04004 12.98C1.93004 13.12 2.06004 13.3 2.26004 13.3L4.74004 14.53C4.87004 15.45 5.35004 18.13 5.61004 19.47C5.70004 19.89 9.80004 19.57 9.80004 19.57L11 22" fill="#00CFFD"/>
<path d="M11 2C8.66004 2 5.71004 3.72 5.76004 8.16L2.04004 12.98C1.93004 13.12 2.06004 13.3 2.26004 13.3L4.74004 14.53C4.87004 15.45 5.35004 18.13 5.61004 19.47C5.70004 19.89 9.80004 19.57 9.80004 19.57L11 22" stroke="black" stroke-width="1.2" stroke-miterlimit="10" stroke-linecap="round" stroke-linejoin="round"/>
<path fill-rule="evenodd" clip-rule="evenodd" d="M15.845 2.20224C15.9567 1.89025 15.7943 1.54682 15.4823 1.43516C15.1703 1.3235 14.8269 1.4859 14.7152 1.79789L13.6952 4.64789C13.5836 4.95988 13.746 5.30332 14.058 5.41498C14.3699 5.52664 14.7134 5.36424 14.825 5.05224L15.845 2.20224ZM22.0494 5.22039C22.3147 5.02182 22.3688 4.64579 22.1702 4.38051C21.9717 4.11522 21.5956 4.06114 21.3303 4.25972L17.9103 6.81972C17.6451 7.01829 17.591 7.39432 17.7896 7.65961C17.9881 7.92489 18.3642 7.97897 18.6294 7.78039L22.0494 5.22039ZM18.1315 11.8261C18.1557 11.4957 18.4433 11.2474 18.7738 11.2717L22.0438 11.5117C22.3743 11.5359 22.6225 11.8235 22.5982 12.154C22.574 12.4845 22.2864 12.7327 21.9559 12.7085L18.6859 12.4685C18.3555 12.4442 18.1072 12.1566 18.1315 11.8261ZM11.7201 17.3101C11.3887 17.3101 11.1201 17.5787 11.1201 17.9101C11.1201 18.2415 11.3887 18.5101 11.7201 18.5101H14.3501C14.6815 18.5101 14.9501 18.2415 14.9501 17.9101C14.9501 17.5787 14.6815 17.3101 14.3501 17.3101H11.7201ZM11.1201 15.33C11.1201 14.9987 11.3887 14.73 11.7201 14.73H11.8795C10.5603 13.6227 8.75422 11.193 10.2302 9.25009C11.6702 7.36009 14.4002 7.36009 15.8402 9.25009C17.3146 11.191 15.5208 13.6245 14.1985 14.73H14.3501C14.6815 14.73 14.9501 14.9987 14.9501 15.33C14.9501 15.6614 14.6815 15.93 14.3501 15.93H11.7201C11.3887 15.93 11.1201 15.6614 11.1201 15.33ZM13.6402 14.73V12.1748C13.9187 11.9752 14.1001 11.6489 14.1001 11.2801C14.1001 10.6726 13.6077 10.1801 13.0001 10.1801C12.3926 10.1801 11.9001 10.6726 11.9001 11.2801C11.9001 11.6831 12.1169 12.0355 12.4402 12.2271V14.73H13.6402ZM12.9731 11.1838C12.9858 11.1824 12.9987 11.1814 13.0117 11.1808C13.0079 11.1803 13.0041 11.1801 13.0001 11.1801C12.9908 11.1801 12.9817 11.1814 12.9731 11.1838Z" fill="black"/>
</svg>
