<svg width="24" height="24" viewBox="0 0 24 24" fill="none" xmlns="http://www.w3.org/2000/svg">
<path d="M11.0002 2C8.66016 2 5.71016 3.72 5.76016 8.16L2.04016 12.98C1.93016 13.12 2.06016 13.3 2.26016 13.3L4.74016 14.53C4.87016 15.45 5.35016 18.13 5.61016 19.47C5.70016 19.89 9.80016 19.57 9.80016 19.57L11.0002 22" fill="white" fill-opacity="0.3"/>
<path fill-rule="evenodd" clip-rule="evenodd" d="M15.8447 2.20224C15.9563 1.89025 15.7939 1.54682 15.4819 1.43516C15.17 1.3235 14.8265 1.4859 14.7149 1.79789L13.6949 4.64789C13.5832 4.95988 13.7456 5.30332 14.0576 5.41498C14.3696 5.52664 14.713 5.36424 14.8247 5.05224L15.8447 2.20224ZM22.0491 5.22039C22.3144 5.02182 22.3684 4.64579 22.1699 4.38051C21.9713 4.11522 21.5953 4.06114 21.33 4.25972L17.91 6.81972C17.6447 7.01829 17.5906 7.39432 17.7892 7.65961C17.9878 7.92489 18.3638 7.97897 18.6291 7.78039L22.0491 5.22039ZM18.1311 11.8261C18.1554 11.4957 18.4429 11.2474 18.7734 11.2717L22.0434 11.5117C22.3739 11.5359 22.6221 11.8235 22.5979 12.154C22.5736 12.4845 22.2861 12.7327 21.9556 12.7085L18.6856 12.4685C18.3551 12.4442 18.1068 12.1566 18.1311 11.8261ZM11.7197 17.3101C11.3884 17.3101 11.1197 17.5787 11.1197 17.9101C11.1197 18.2415 11.3884 18.5101 11.7197 18.5101H14.3497C14.6811 18.5101 14.9497 18.2415 14.9497 17.9101C14.9497 17.5787 14.6811 17.3101 14.3497 17.3101H11.7197ZM11.1197 15.33C11.1197 14.9987 11.3884 14.73 11.7197 14.73H11.8791C10.5599 13.6227 8.75386 11.193 10.2298 9.25009C11.6698 7.36009 14.3998 7.36009 15.8398 9.25009C17.3142 11.191 15.5204 13.6245 14.1981 14.73H14.3497C14.6811 14.73 14.9497 14.9987 14.9497 15.33C14.9497 15.6614 14.6811 15.93 14.3497 15.93H11.7197C11.3884 15.93 11.1197 15.6614 11.1197 15.33ZM13.6398 14.73V12.1748C13.9183 11.9752 14.0998 11.6489 14.0998 11.2801C14.0998 10.6726 13.6073 10.1801 12.9998 10.1801C12.3923 10.1801 11.8998 10.6726 11.8998 11.2801C11.8998 11.6831 12.1165 12.0355 12.4398 12.2271V14.73H13.6398ZM12.9727 11.1838C12.9855 11.1824 12.9984 11.1814 13.0114 11.1808C13.0076 11.1803 13.0037 11.1801 12.9998 11.1801C12.9904 11.1801 12.9813 11.1814 12.9727 11.1838Z" fill="white" fill-opacity="0.6"/>
</svg>
