<svg width="24" height="24" viewBox="0 0 24 24" fill="none" xmlns="http://www.w3.org/2000/svg">
<path d="M22.0002 5.89C21.2602 6.21 20.4602 6.42 19.6402 6.53C20.4902 6.03 21.1402 5.24 21.4402 4.3C20.6502 4.77 19.7702 5.09 18.8402 5.28C18.0902 4.49 17.0202 4 15.8502 4C13.5802 4 11.7502 5.81 11.7502 8.04C11.7502 8.36 11.7802 8.67 11.8402 8.96C8.44023 8.79 5.42023 7.19 3.39023 4.74C3.04023 5.34 2.83023 6.03 2.83023 6.78C2.83023 8.18 3.56023 9.42 4.65023 10.13C3.99023 10.12 3.34023 9.93 2.80023 9.63V9.67C2.80023 11.63 4.22023 13.26 6.08023 13.64C5.75023 13.73 5.38023 13.77 5.00023 13.77C4.74023 13.77 4.47023 13.76 4.22023 13.7C4.75023 15.3 6.26023 16.48 8.05023 16.51C6.66023 17.59 4.88023 18.23 2.97023 18.23C2.63023 18.23 2.31023 18.21 1.99023 18.17C3.82023 19.34 5.97023 20 8.29023 20C15.8402 20 19.9602 13.85 19.9602 8.51C19.9602 8.33 19.9502 8.16 19.9402 7.99C20.7602 7.42 21.4402 6.71 22.0002 5.89Z" fill="white" fill-opacity="0.6"/>
</svg>
