<svg width="24" height="24" viewBox="0 0 24 24" fill="none" xmlns="http://www.w3.org/2000/svg">
<path fill-rule="evenodd" clip-rule="evenodd" d="M5.08243 21.5H18.4176C20.119 21.5 21.5 20.1079 21.5 18.4176V5.08244C21.5 3.38102 20.119 2 18.4176 2H5.08243C3.38102 2 2 3.38102 2 5.08244V18.4176C2 20.119 3.38102 21.5 5.08243 21.5ZM3.32578 5.08244C3.32578 4.1102 4.1102 3.32578 5.08243 3.32578H18.4176C19.3898 3.32578 20.1742 4.1102 20.1742 5.08244V18.4176C20.1742 19.3898 19.3898 20.1742 18.4176 20.1742H5.08243C4.1102 20.1742 3.32578 19.3898 3.32578 18.4176V5.08244ZM16.23 8.48525C16.7051 8.43 17.1802 8.29743 17.6111 8.10961C17.2907 8.59573 16.8819 9.01556 16.3958 9.3691C16.4068 9.46853 16.4068 9.56797 16.4068 9.67845C16.4068 12.8493 13.9983 16.5173 9.56799 16.5173C8.20906 16.5173 6.93852 16.1195 5.8779 15.4345C6.06572 15.4566 6.25354 15.4677 6.4524 15.4677C7.57932 15.4677 8.61785 15.081 9.43541 14.4402C8.38583 14.4181 7.50198 13.711 7.19263 12.7609C7.33626 12.794 7.49093 12.8051 7.64561 12.8051C7.86657 12.8051 8.07649 12.783 8.27535 12.7277C7.18158 12.5068 6.35297 11.5345 6.35297 10.3634V10.3413C6.67337 10.5181 7.049 10.6286 7.43569 10.6396C6.7949 10.2088 6.36402 9.46853 6.36402 8.63992C6.36402 8.19799 6.48555 7.78921 6.69546 7.42462C7.88867 8.88298 9.65637 9.84417 11.6561 9.94361C11.6119 9.76683 11.6009 9.57902 11.6009 9.3912C11.6009 8.06542 12.6836 6.98269 14.0094 6.98269C14.6943 6.98269 15.3241 7.26995 15.766 7.74502C16.3074 7.63454 16.8266 7.43567 17.2907 7.15946C17.1139 7.72292 16.7272 8.18694 16.23 8.48525Z" fill="#18204F"/>
</svg>
