<svg width="25" height="24" viewBox="0 0 25 24" fill="none" xmlns="http://www.w3.org/2000/svg">
<path d="M22.3401 5.89C21.6001 6.21 20.8001 6.42 19.9801 6.53C20.8301 6.03 21.4801 5.24 21.7801 4.3C20.9901 4.77 20.1101 5.09 19.1801 5.28C18.4301 4.49 17.3601 4 16.1901 4C13.9201 4 12.0901 5.81 12.0901 8.04C12.0901 8.36 12.1201 8.67 12.1801 8.96C8.78008 8.79 5.76008 7.19 3.73008 4.74C3.38008 5.34 3.17008 6.03 3.17008 6.78C3.17008 8.18 3.90008 9.42 4.99008 10.13C4.33008 10.12 3.68008 9.93 3.14008 9.63V9.67C3.14008 11.63 4.56008 13.26 6.42008 13.64C6.09008 13.73 5.72008 13.77 5.34008 13.77C5.08008 13.77 4.81008 13.76 4.56008 13.7C5.09008 15.3 6.60008 16.48 8.39008 16.51C7.00008 17.59 5.22008 18.23 3.31008 18.23C2.97008 18.23 2.65008 18.21 2.33008 18.17C4.16008 19.34 6.31008 20 8.63008 20C16.1801 20 20.3001 13.85 20.3001 8.51C20.3001 8.33 20.2901 8.16 20.2801 7.99C21.1001 7.42 21.7801 6.71 22.3401 5.89Z" fill="white" fill-opacity="0.6"/>
</svg>
