<svg width="25" height="24" viewBox="0 0 25 24" fill="none" xmlns="http://www.w3.org/2000/svg">
<path d="M22.3398 12C22.3398 13.02 22.1898 14.01 21.8998 14.94C21.1098 13.21 19.3698 12 17.3398 12C14.5798 12 12.3398 14.24 12.3398 17C12.3398 19.03 13.5498 20.77 15.2798 21.56C14.3498 21.85 13.3598 22 12.3398 22C6.81984 22 2.33984 17.52 2.33984 12C2.33984 6.48 6.81984 2 12.3398 2C17.8598 2 22.3398 6.48 22.3398 12Z" fill="white" fill-opacity="0.3"/>
<path d="M15.2698 21.55C13.5398 20.76 12.3398 19.02 12.3398 17C12.3398 15.9 12.6898 14.89 13.2998 14.06C12.9798 14.02 12.6598 14 12.3398 14C9.05977 14 6.24977 15.97 5.00977 18.79C6.83977 20.76 9.43977 22 12.3398 22C13.3598 22 14.3398 21.85 15.2698 21.55Z" fill="white" fill-opacity="0.6"/>
<path d="M13.4598 13.84H13.4698C14.0198 13.16 14.7598 12.62 15.5998 12.31C16.0698 11.65 16.3398 10.86 16.3398 10C16.3398 7.79 14.5498 6 12.3398 6C10.1298 6 8.33984 7.79 8.33984 10C8.33984 12.21 10.1298 14 12.3398 14C12.7298 14 13.1098 13.94 13.4698 13.84" fill="white" fill-opacity="0.6"/>
<path d="M17.3398 22C20.1013 22 22.3398 19.7614 22.3398 17C22.3398 14.2386 20.1013 12 17.3398 12C14.5784 12 12.3398 14.2386 12.3398 17C12.3398 19.7614 14.5784 22 17.3398 22Z" fill="white" fill-opacity="0.6"/>
<path d="M14.9395 16.3499L16.7395 18.1499L19.7395 15.1499" stroke="white" stroke-opacity="0.6" stroke-width="1.2" stroke-miterlimit="10"/>
</svg>
