<svg width="32" height="33" viewBox="0 0 32 33" fill="none" xmlns="http://www.w3.org/2000/svg">
<path d="M2.66602 20.5002C2.66602 16.8202 5.65268 13.8335 9.33268 13.8335C13.0127 13.8335 15.9993 16.8202 15.9993 20.5002C15.9993 20.9535 15.9593 21.4068 15.866 21.8335H22.666C23.3993 21.8335 23.9993 21.2335 23.9993 20.5002V7.16683C23.9993 6.4335 23.3993 5.8335 22.666 5.8335H3.99935C3.26602 5.8335 2.66602 6.4335 2.66602 7.16683V20.5002Z" fill="white" fill-opacity="0.3"/>
<path d="M29.3333 20.5003V7.16699L24 9.83366V17.8337L29.3333 20.5003Z" fill="white" fill-opacity="0.3"/>
<path d="M9.33268 27.1668C13.0146 27.1668 15.9993 24.1821 15.9993 20.5002C15.9993 16.8183 13.0146 13.8335 9.33268 13.8335C5.65078 13.8335 2.66602 16.8183 2.66602 20.5002C2.66602 24.1821 5.65078 27.1668 9.33268 27.1668Z" fill="white" fill-opacity="0.3" stroke="white" stroke-opacity="0.6" stroke-width="1.2" stroke-miterlimit="10" stroke-linecap="round" stroke-linejoin="round"/>
<path d="M6.13281 19.6337L8.53281 22.0337L12.5328 18.0337" stroke="white" stroke-opacity="0.6" stroke-width="1.2" stroke-miterlimit="10"/>
</svg>
