<svg width="32" height="32" viewBox="0 0 32 32" fill="none" xmlns="http://www.w3.org/2000/svg">
<path d="M16 32C24.8367 32 32 24.8366 32 16C32 7.16343 24.8367 0 16 0C7.16324 0 0 7.16343 0 16C0 24.8366 7.16324 32 16 32Z" fill="url(#paint0_linear)"/>
<path d="M31.75 16C31.75 24.6985 24.6987 31.75 16 31.75C7.30131 31.75 0.25 24.6985 0.25 16C0.25 7.3015 7.30131 0.25 16 0.25C24.6987 0.25 31.75 7.3015 31.75 16Z" stroke="white" stroke-opacity="0.3" stroke-width="0.5"/>
<path d="M15.9992 28.8002C23.0686 28.8002 28.7992 23.0695 28.7992 16.0002C28.7992 8.93094 23.0686 3.2002 15.9992 3.2002C8.92981 3.2002 3.19922 8.93094 3.19922 16.0002C3.19922 23.0695 8.92981 28.8002 15.9992 28.8002Z" fill="white" fill-opacity="0.6"/>
<path fill-rule="evenodd" clip-rule="evenodd" d="M11.7071 10.2929C11.3166 9.90237 10.6834 9.90237 10.2929 10.2929C9.90237 10.6834 9.90237 11.3166 10.2929 11.7071L14.5858 16L10.2929 20.2929C9.90237 20.6834 9.90237 21.3166 10.2929 21.7071C10.6834 22.0976 11.3166 22.0976 11.7071 21.7071L16 17.4142L20.2929 21.7071C20.6834 22.0976 21.3166 22.0976 21.7071 21.7071C22.0976 21.3166 22.0976 20.6834 21.7071 20.2929L17.4142 16L21.7071 11.7071C22.0976 11.3166 22.0976 10.6834 21.7071 10.2929C21.3166 9.90237 20.6834 9.90237 20.2929 10.2929L16 14.5858L11.7071 10.2929Z" fill="#FF5E4B"/>
<defs>
<linearGradient id="paint0_linear" x1="22" y1="22.4" x2="10.4248" y2="34.377" gradientUnits="userSpaceOnUse">
<stop stop-color="#FF8570"/>
<stop offset="1" stop-color="#F9504A"/>
</linearGradient>
</defs>
</svg>
