<svg width="44" height="44" viewBox="0 0 44 44" fill="none" xmlns="http://www.w3.org/2000/svg">
<path fill-rule="evenodd" clip-rule="evenodd" d="M22 44C34.1503 44 44 34.1503 44 22C44 9.84974 34.1503 0 22 0C9.84974 0 0 9.84974 0 22C0 34.1503 9.84974 44 22 44Z" fill="#1F0040"/>
<path d="M13.7269 25.2495L12.4394 30.1223C12.4068 30.2527 12.3579 30.3016 12.195 30.3016H9.79933C9.63636 30.3016 9.60376 30.2527 9.63636 30.0571L14.2647 13.8743C14.3462 13.581 14.395 13.3528 14.4276 12.538C14.4276 12.4239 14.4765 12.375 14.558 12.375H17.9804C18.0944 12.375 18.1433 12.4076 18.1759 12.538L23.3583 30.0897C23.3909 30.2201 23.3583 30.3016 23.2279 30.3016H20.539C20.4086 30.3016 20.3271 30.2527 20.2945 30.1386L18.9419 25.2495H13.7269ZM18.3063 22.6094C17.85 20.8005 16.7418 16.8566 16.3344 14.9499H16.3018C15.9595 16.8566 15.0632 20.0834 14.395 22.6094C14.4113 22.6094 18.3063 22.6094 18.3063 22.6094ZM27.0414 24.2717C27.074 26.4718 28.117 27.9548 30.5941 27.9548C31.5556 27.9548 32.3868 27.8244 33.2505 27.4496C33.3646 27.4007 33.4461 27.417 33.4461 27.5637V29.6008C33.4461 29.7638 33.3972 29.8452 33.2831 29.9267C32.4194 30.3504 31.3438 30.546 30.0074 30.546C25.7051 30.546 24.0917 27.3681 24.0917 23.8154C24.0917 19.9693 26.0799 16.824 29.5837 16.824C33.1364 16.824 34.375 19.8064 34.375 22.2346C34.375 23.0169 34.3261 23.6524 34.2446 23.9621C34.212 24.0924 34.1631 24.1413 34.0328 24.1739C33.7068 24.2228 32.7453 24.288 31.3112 24.288L27.0414 24.2717ZM30.3497 22.0227C31.1808 22.0227 31.4742 22.0227 31.5556 21.9902C31.5556 21.8761 31.5882 21.7946 31.5882 21.7131C31.5882 20.8331 31.1645 19.2034 29.4696 19.2034C27.9051 19.2034 27.237 20.5723 27.074 22.0227H30.3497Z" fill="#D291FF"/>
</svg>
