<svg width="44" height="44" viewBox="0 0 44 44" fill="none" xmlns="http://www.w3.org/2000/svg">
<path fill-rule="evenodd" clip-rule="evenodd" d="M22 44C34.1503 44 44 34.1503 44 22C44 9.84974 34.1503 0 22 0C9.84974 0 0 9.84974 0 22C0 34.1503 9.84974 44 22 44Z" fill="black"/>
<path d="M17.96 34.0001C20.1459 34.0001 21.92 32.2081 21.92 30.0001V26.0001H17.96C15.7741 26.0001 14 27.7921 14 30.0001C14 32.2081 15.7741 34.0001 17.96 34.0001Z" fill="#0ACF83"/>
<path d="M14 21.9999C14 19.7919 15.7741 17.9999 17.96 17.9999H21.92V25.9999H17.96C15.7741 25.9999 14 24.2079 14 21.9999Z" fill="#A259FF"/>
<path d="M14 14C14 11.792 15.7741 10 17.96 10H21.92V18H17.96C15.7741 18 14 16.208 14 14Z" fill="#F24E1E"/>
<path d="M21.9202 10H25.8802C28.0661 10 29.8402 11.792 29.8402 14C29.8402 16.208 28.0661 18 25.8802 18H21.9202V10Z" fill="#FF7262"/>
<path d="M29.8402 21.9999C29.8402 24.2079 28.0661 25.9999 25.8802 25.9999C23.6942 25.9999 21.9202 24.2079 21.9202 21.9999C21.9202 19.7919 23.6942 17.9999 25.8802 17.9999C28.0661 17.9999 29.8402 19.7919 29.8402 21.9999Z" fill="#1ABCFE"/>
</svg>
