<svg width="44" height="44" viewBox="0 0 44 44" fill="none" xmlns="http://www.w3.org/2000/svg">
<path fill-rule="evenodd" clip-rule="evenodd" d="M22 44C34.1503 44 44 34.1503 44 22C44 9.84974 34.1503 0 22 0C9.84974 0 0 9.84974 0 22C0 34.1503 9.84974 44 22 44Z" fill="white"/>
<path d="M43.3125 22C43.3125 33.7706 33.7706 43.3125 22 43.3125C10.2294 43.3125 0.6875 33.7706 0.6875 22C0.6875 10.2294 10.2294 0.6875 22 0.6875C33.7706 0.6875 43.3125 10.2294 43.3125 22Z" stroke="black" stroke-opacity="0.1" stroke-width="1.375"/>
<path fill-rule="evenodd" clip-rule="evenodd" d="M13.75 29.5973V19.0317C13.75 14.5959 17.3459 11 21.7818 11C26.2176 11 29.8135 14.5959 29.8135 19.0317C29.8135 23.4092 26.3115 26.9687 21.9564 27.0616V27.0635C20.7027 27.0635 19.6865 26.0473 19.6865 24.7936C19.6865 23.5517 20.6839 22.5427 21.9214 22.5241V22.5211C23.7853 22.4478 25.2738 20.9135 25.2738 19.0317C25.2738 17.1031 23.7104 15.5397 21.7818 15.5397C19.8532 15.5397 18.2897 17.1031 18.2897 19.0317V30.7302C18.2897 31.9838 17.2735 33 16.0198 33C15.5529 33.0007 15.0972 32.8568 14.7153 32.5879C15.3682 32.3971 15.8452 31.794 15.8452 31.0794C15.8452 30.2115 15.1417 29.5079 14.2738 29.5079C14.0901 29.5079 13.9138 29.5394 13.75 29.5973ZM21.9564 26.3651C22.8242 26.3651 23.5278 25.6615 23.5278 24.7936C23.5278 23.9258 22.8242 23.2222 21.9564 23.2222C21.0885 23.2222 20.3849 23.9258 20.3849 24.7936C20.3849 25.6615 21.0885 26.3651 21.9564 26.3651Z" fill="url(#paint0_linear)"/>
<defs>
<linearGradient id="paint0_linear" x1="21.7818" y1="11" x2="21.7818" y2="24.776" gradientUnits="userSpaceOnUse">
<stop stop-color="#D378E5"/>
<stop offset="1" stop-color="#7526C2"/>
</linearGradient>
</defs>
</svg>
