<svg fill="none" height="32" viewBox="0 0 32 32" width="32" xmlns="http://www.w3.org/2000/svg"><path clip-rule="evenodd" d="m16 32c8.8366 0 16-7.1634 16-16 0-8.83656-7.1634-16-16-16-8.83656 0-16 7.16344-16 16 0 8.8366 7.16344 16 16 16z" fill="#18204d" fill-rule="evenodd"/><g fill="#61dafb"><path d="m25 16.0167c0-1.1924-1.4933-2.3224-3.7827-3.0232.5283-2.3335.2935-4.18999-.7411-4.78437-.2385-.13942-.5174-.20546-.8219-.20546v.81818c.1688 0 .3045.03302.4183.09539.4989.28618.7154 1.37586.5466 2.77746-.0403.3448-.1064.7081-.1871 1.0786-.7191-.1761-1.5043-.3118-2.3298-.3999-.4953-.6787-1.0089-1.2951-1.5263-1.8345 1.1961-1.11167 2.3188-1.72072 3.082-1.72072v-.81818c-1.009 0-2.3298.71912-3.6653 1.96657-1.3355-1.24011-2.6564-1.95189-3.6653-1.95189v.81818c.7594 0 1.8858.60538 3.0819 1.70974-.5137.5393-1.0273 1.1521-1.5153 1.8308-.8292.0881-1.6143.2238-2.3335.4036-.0843-.3669-.1467-.7228-.1907-1.064-.1725-1.4015.0403-2.49123.5356-2.78108.1101-.06604.2532-.09539.422-.09539v-.81819c-.3082 0-.5871.06605-.8292.20547-1.031.59437-1.2622 2.44719-.7302 4.77329-2.28206.7045-3.768 1.8309-3.768 3.0196 0 1.1924 1.49327 2.3225 3.7827 3.0233-.5283 2.3334-.2935 4.1899.7411 4.7843.2385.1394.5174.2055.8256.2055 1.0089 0 2.3298-.7192 3.6653-1.9666 1.3355 1.2401 2.6563 1.9519 3.6653 1.9519.3082 0 .587-.0661.8292-.2055 1.031-.5944 1.2621-2.4472.7301-4.7733 2.2748-.7008 3.7607-1.8308 3.7607-3.0196zm-4.777-2.4472c-.1358.4733-.3045.9613-.4953 1.4493-.1504-.2936-.3082-.5871-.4807-.8806-.1687-.2935-.3485-.5797-.5283-.8585.521.077 1.0237.1724 1.5043.2898zm-1.6804 3.9075c-.2862.4953-.5797.9649-.8842 1.4015-.5467.0477-1.1007.0734-1.6584.0734-.554 0-1.108-.0257-1.651-.0697-.3046-.4366-.6018-.9026-.8879-1.3942-.2789-.4807-.532-.9686-.7632-1.4603.2275-.4916.4843-.9833.7595-1.4639.2862-.4953.5797-.9649.8842-1.4016.5467-.0476 1.1007-.0733 1.6584-.0733.554 0 1.108.0257 1.651.0697.3046.4366.6018.9025.8879 1.3942.2789.4806.532.9686.7632 1.4602-.2312.4917-.4843.9833-.7595 1.464zm1.1851-.477c.1981.4916.3669.9833.5063 1.4603-.4806.1174-.987.2164-1.5116.2935.1798-.2825.3595-.5724.5283-.8696.1688-.2935.3266-.5907.477-.8842zm-3.7204 3.9148c-.3412-.3522-.6824-.7448-1.0199-1.1741.3302.0147.6677.0257 1.0089.0257.3449 0 .6861-.0073 1.02-.0257-.3302.4293-.6714.8219-1.009 1.1741zm-2.7297-2.161c-.521-.0771-1.0236-.1725-1.5043-.2899.1358-.4733.3046-.9613.4954-1.4492.1504.2935.3081.587.4806.8805.1724.2935.3485.5797.5283.8586zm2.7114-7.6352c.3412.3523.6824.7448 1.02 1.1741-.3302-.0147-.6678-.0257-1.009-.0257-.3449 0-.6861.0074-1.02.0257.3302-.4293.6714-.8218 1.009-1.1741zm-2.715 2.1611c-.1798.2825-.3596.5723-.5284.8695-.1688.2935-.3265.587-.4769.8806-.1982-.4917-.3669-.9833-.5064-1.4603.4807-.1137.987-.2128 1.5117-.2898zm-3.32047 4.5935c-1.29882-.554-2.13902-1.2805-2.13902-1.8565s.8402-1.3061 2.13902-1.8565c.31557-.1357.66037-.2568 1.01627-.3706.2092.7192.4843 1.4676.8256 2.2345-.3376.7631-.6091 1.5079-.8146 2.2234-.3632-.1138-.7081-.2385-1.02727-.3743zm1.97387 5.243c-.4989-.2862-.7154-1.3759-.5466-2.7774.0403-.3449.1064-.7081.1871-1.0787.7191.1761 1.5043.3119 2.3298.3999.4953.6788 1.0089 1.2952 1.5263 1.8345-1.1961 1.1117-2.3188 1.7207-3.082 1.7207-.1651-.0036-.3045-.0366-.4146-.099zm8.7028-2.7958c.1725 1.4016-.0403 2.4913-.5356 2.7811-.1101.066-.2532.0954-.422.0954-.7594 0-1.8858-.6054-3.0819-1.7097.5137-.5394 1.0273-1.1521 1.5153-1.8309.8292-.088 1.6143-.2238 2.3335-.4035.0843.3705.1504.7264.1907 1.0676zm1.4126-2.4472c-.3155.1358-.6604.2568-1.0163.3706-.2091-.7191-.4843-1.4676-.8255-2.2344.3375-.7632.609-1.508.8145-2.2234.3632.1137.7081.2385 1.031.3742 1.2988.554 2.139 1.2805 2.139 1.8565-.0037.576-.8439 1.3062-2.1427 1.8565z"/><path d="m15.9961 17.6935c.926 0 1.6767-.7507 1.6767-1.6767s-.7507-1.6767-1.6767-1.6767c-.9261 0-1.6768.7507-1.6768 1.6767s.7507 1.6767 1.6768 1.6767z"/></g></svg>