<svg width="32" height="32" viewBox="0 0 32 32" fill="none" xmlns="http://www.w3.org/2000/svg">
<path fill-rule="evenodd" clip-rule="evenodd" d="M16 32C24.8366 32 32 24.8366 32 16C32 7.16344 24.8366 0 16 0C7.16344 0 0 7.16344 0 16C0 24.8366 7.16344 32 16 32Z" fill="black"/>
<path d="M10.9273 8.53629L16 8L21.0727 8.53629L25 13.8083L16 24.2887L7 13.8083L10.9273 8.53629Z" fill="#FDB300"/>
<path d="M10.6454 13.8083L16 24.2887L7 13.8083H10.6454Z" fill="#EA6C00"/>
<path d="M21.3546 13.8083L16 24.2887L25 13.8083H21.3546Z" fill="#EA6C00"/>
<path d="M10.6455 13.8083H21.3546L16.0001 24.2887L10.6455 13.8083Z" fill="#FDAD00"/>
<path d="M16.0001 8L10.9273 8.53628L10.6455 13.8083L16.0001 8Z" fill="#FDD231"/>
<path d="M16.0009 8L21.0737 8.53628L21.3555 13.8083L16.0009 8Z" fill="#FDD231"/>
<path d="M25 13.8084L21.0727 8.53638L21.3546 13.8084H25Z" fill="#FDAD00"/>
<path d="M7 13.8084L10.9273 8.53638L10.6454 13.8084H7Z" fill="#FDAD00"/>
<path d="M16.0001 8L10.6455 13.8083H21.3546L16.0001 8Z" fill="#FEEEB7"/>
</svg>
