<svg width="44" height="44" viewBox="0 0 44 44" fill="none" xmlns="http://www.w3.org/2000/svg">
<path fill-rule="evenodd" clip-rule="evenodd" d="M22 44C34.1503 44 44 34.1503 44 22C44 9.84974 34.1503 0 22 0C9.84974 0 0 9.84974 0 22C0 34.1503 9.84974 44 22 44Z" fill="#18204D"/>
<path d="M28.7843 20.9277L20.9285 28.7836L24.1458 32.0009L32.0017 24.1451L28.7843 20.9277Z" fill="#FFE458"/>
<path fill-rule="evenodd" clip-rule="evenodd" d="M12.2722 13.4389L18.8933 20.0601C18.8878 20.1093 18.885 20.1593 18.885 20.21C18.885 20.9417 19.4782 21.535 20.21 21.535C20.9417 21.535 21.535 20.9417 21.535 20.21C21.535 19.4782 20.9417 18.885 20.21 18.885C20.1593 18.885 20.1093 18.8878 20.0601 18.8933L13.4391 12.2723L25.2099 14.5H25.2199L27.3599 22.36L22.3599 27.36L14.4999 25.21L12.2722 13.4389Z" fill="#B5CDFB"/>
</svg>
