<svg width="44" height="44" viewBox="0 0 44 44" fill="none" xmlns="http://www.w3.org/2000/svg">
<path fill-rule="evenodd" clip-rule="evenodd" d="M22 44C34.1503 44 44 34.1503 44 22C44 9.84974 34.1503 0 22 0C9.84974 0 0 9.84974 0 22C0 34.1503 9.84974 44 22 44Z" fill="black"/>
<path fill-rule="evenodd" clip-rule="evenodd" d="M18.6888 11.4797C19.4961 11.0402 20.8041 11.0397 21.613 11.4797L28.5272 15.2402C29.3345 15.6796 29.9893 16.7799 29.9893 17.6965V25.0786C29.9893 25.9957 29.3362 27.0943 28.5272 27.5343L21.613 31.2948C20.8057 31.7343 19.4978 31.7353 18.6888 31.2948L11.7746 27.5343C10.9673 27.0949 10.3125 25.9946 10.3125 25.0786V17.6965C10.3125 16.7793 10.9657 15.6807 11.7746 15.2402L18.6888 11.4797V11.4797Z" fill="white"/>
<path d="M29.7151 20.4066C32.2804 20.4066 34.36 18.3009 34.36 15.7033C34.36 13.1057 32.2804 11 29.7151 11C27.1499 11 25.0703 13.1057 25.0703 15.7033C25.0703 18.3009 27.1499 20.4066 29.7151 20.4066Z" fill="#2F8BE6"/>
<path fill-rule="evenodd" clip-rule="evenodd" d="M23.0012 23.8156V18.9024C23.0012 18.4575 23.3379 18.1055 23.7632 18.1055C24.1884 18.1055 24.5246 18.4575 24.5246 18.9024V23.8161C24.5246 24.2605 24.1884 24.6125 23.7632 24.6125C23.3379 24.6125 23.0012 24.2605 23.0012 23.8156V23.8156ZM21.8124 21.3937C21.8124 23.5882 20.6351 24.6644 18.7762 24.6644C16.9162 24.6644 15.7793 23.5778 15.7793 21.4451V18.9024C15.7793 18.4575 16.1154 18.1055 16.5407 18.1055C16.9659 18.1055 17.3026 18.4575 17.3026 18.9024V21.4041C17.3026 22.5841 17.8656 23.1947 18.7959 23.1947C19.725 23.1947 20.2891 22.6044 20.2891 21.4554V18.9029C20.2891 18.4575 20.6253 18.1055 21.0505 18.1055C21.4757 18.1055 21.8124 18.4575 21.8124 18.9024V21.3937Z" fill="#353535"/>
<path fill-rule="evenodd" clip-rule="evenodd" d="M29.7161 17.559C28.9317 17.559 28.3496 17.1337 28.3496 16.4855V16.4745C28.3496 16.0231 28.5469 15.7574 28.9213 15.5771C28.648 15.4016 28.4709 15.1622 28.4709 14.7638V14.7528C28.4709 14.1849 28.9672 13.7329 29.7161 13.7329C30.4649 13.7329 30.9612 14.1795 30.9612 14.7534V14.7643C30.9612 15.1622 30.7841 15.4016 30.5108 15.5771C30.8699 15.7738 31.0825 16.0127 31.0825 16.4538V16.4647C31.0825 17.1545 30.5004 17.559 29.7161 17.559ZM29.7161 15.306C30.0249 15.306 30.2222 15.1147 30.2222 14.8539V14.843C30.2222 14.6151 30.0347 14.4079 29.7161 14.4079C29.3974 14.4079 29.2099 14.6102 29.2099 14.8381V14.849C29.2099 15.1092 29.4072 15.306 29.7161 15.306ZM29.7161 16.8839C30.1008 16.8839 30.3282 16.6817 30.3282 16.4215V16.4111C30.3282 16.1242 30.0702 15.9542 29.7161 15.9542C29.3619 15.9542 29.1039 16.1242 29.1039 16.4111V16.4221C29.1039 16.6768 29.3313 16.8839 29.7161 16.8839Z" fill="white"/>
</svg>
