<svg width="44" height="44" viewBox="0 0 44 44" fill="none" xmlns="http://www.w3.org/2000/svg">
<path d="M22 44C34.1503 44 44 34.1503 44 22C44 9.84974 34.1503 0 22 0C9.84974 0 0 9.84974 0 22C0 34.1503 9.84974 44 22 44Z" fill="#4353FF"/>
<path d="M28.4625 19.3875L26.4687 25.6712C26.4687 25.19 25.0937 14.7675 25.0937 14.7675C21.9312 14.7675 20.2537 17.0087 19.3737 19.3875L16.94 25.685C16.94 25.2312 16.5962 19.4425 16.5962 19.4425C16.4788 18.1893 15.906 17.0227 14.9861 16.1637C14.0662 15.3046 12.8632 14.8127 11.605 14.7812L14.19 30.5662C17.49 30.5662 19.2775 28.325 20.1987 25.9462L22.2612 20.5837C22.2612 20.8037 23.6362 30.5662 23.6362 30.5662C24.9856 30.5645 26.2994 30.1331 27.3872 29.3345C28.475 28.536 29.2802 27.4118 29.6862 26.125L34.3612 14.7675C31.0612 14.7675 29.3287 17.0087 28.4487 19.3875H28.4625Z" fill="white"/>
</svg>
