<svg width="44" height="44" viewBox="0 0 44 44" fill="none" xmlns="http://www.w3.org/2000/svg">
<path fill-rule="evenodd" clip-rule="evenodd" d="M22 44C34.1503 44 44 34.1503 44 22C44 9.84974 34.1503 0 22 0C9.84974 0 0 9.84974 0 22C0 34.1503 9.84974 44 22 44Z" fill="#2E001F"/>
<path d="M18.0825 21.3012L22.8099 30.4311C22.8943 30.5668 22.8436 30.7026 22.7086 30.7026H19.7709C19.5851 30.7026 19.5007 30.6517 19.4163 30.482C18.3358 28.2419 17.2383 26.0019 16.1072 23.5922H16.0734C15.0604 25.8661 13.9461 28.2589 12.8655 30.499C12.7811 30.6347 12.6967 30.6856 12.5616 30.6856H9.77587C9.60704 30.6856 9.59016 30.5499 9.67457 30.448L14.3006 21.5897L9.82652 12.6295C9.72522 12.4938 9.82652 12.392 9.92782 12.392H12.8318C13.0006 12.392 13.0681 12.4259 13.1357 12.5786C14.1993 14.8187 15.2799 17.1266 16.2929 19.3836H16.3266C17.3059 17.1436 18.3864 14.8187 19.4332 12.5956C19.5176 12.4598 19.5683 12.375 19.7371 12.375H22.4553C22.5904 12.375 22.641 12.4768 22.5566 12.6126L18.0825 21.3012ZM23.6372 24.0673C23.6372 20.1133 26.2541 17.0248 30.4074 17.0248C30.7619 17.0248 30.9477 17.0248 31.2853 17.0587V12.5617C31.2853 12.4598 31.3698 12.392 31.4542 12.392H34.1217C34.2568 12.392 34.2906 12.4429 34.2906 12.5277V28.1062C34.2906 28.5644 34.2906 29.1414 34.375 29.7692C34.375 29.8711 34.3412 29.905 34.2399 29.9559C32.8217 30.6347 31.336 30.9402 29.9178 30.9402C26.2541 30.9571 23.6372 28.6832 23.6372 24.0673ZM31.2853 19.723C31.049 19.6212 30.7113 19.5533 30.3061 19.5533C28.1788 19.5533 26.693 21.1994 26.693 23.9316C26.693 27.054 28.2126 28.3098 30.1204 28.3098C30.5256 28.3098 30.9646 28.2589 31.2853 28.1232V19.723Z" fill="#FF26BE"/>
</svg>
