<svg width="136" height="44" viewBox="0 0 136 44" fill="none" xmlns="http://www.w3.org/2000/svg">
<path fill-rule="evenodd" clip-rule="evenodd" d="M38.6674 30.2547C38.7377 30.4316 38.8081 30.6086 38.8784 30.7807C39.4264 32.3733 39.5954 33.8798 39.2584 35.3864C38.7944 38.5715 36.7274 41.3263 33.7754 42.5315C32.7214 43.005 31.5404 43.2202 30.3594 43.2202C30.0224 43.2202 29.6004 43.1771 29.2634 43.1341C27.8714 42.9619 26.4374 42.4885 25.0454 41.6706C23.3584 40.6806 21.6714 39.2602 19.8164 37.1942C17.9604 39.2602 16.3154 40.6806 14.5864 41.6706C13.1954 42.4885 11.7614 42.9619 10.3694 43.1341C10.0324 43.1771 9.61039 43.2202 9.27239 43.2202C8.09239 43.2202 6.95339 43.005 5.85639 42.5315C2.94639 41.3263 0.838391 38.6146 0.374391 35.3864C0.163391 33.8368 0.332391 32.3303 0.880391 30.7377C1.09139 30.1781 1.30239 29.6616 1.51339 29.1882C1.67157 28.8245 1.82976 28.4703 1.9837 28.1256C2.15772 27.736 2.32633 27.3584 2.48339 26.993L2.52539 26.9069C5.43539 20.4504 8.59839 13.9079 11.8454 7.45143L11.9714 7.19322C12.2948 6.57548 12.6172 5.91838 12.9405 5.25957L12.9844 5.17013C13.4054 4.39542 13.8694 3.57757 14.5024 2.80279C15.8944 1.16716 17.7914 0.220215 19.9004 0.220215C21.9674 0.220215 23.9074 1.16716 25.2564 2.88888C25.8811 3.6059 26.2891 4.35973 26.6801 5.08226L26.7744 5.25622L26.8201 5.34945L26.8203 5.34979C27.1429 6.00722 27.4647 6.66286 27.7864 7.27922L27.9134 7.53752C31.2024 13.994 34.3234 20.5365 37.2334 26.993L37.2754 27.036C37.4326 27.4018 37.6013 27.7796 37.7755 28.1696C37.9293 28.514 38.0874 28.8679 38.2454 29.2312C38.3861 29.5469 38.5267 29.9008 38.6674 30.2547ZM71.4364 11.024C71.4364 12.5735 70.2134 13.8218 68.6944 13.8218C67.1764 13.8218 65.9534 12.5735 65.9534 11.024C65.9534 9.47443 67.1344 8.22622 68.6944 8.22622C70.2554 8.26923 71.4364 9.51752 71.4364 11.024ZM60.1334 16.6626V17.3513C60.1334 17.3513 58.8264 15.6296 56.0434 15.6296C51.4464 15.6296 47.8614 19.2022 47.8614 24.1521C47.8614 29.059 51.4034 32.6746 56.0434 32.6746C58.8684 32.6746 60.1334 30.9099 60.1334 30.9099V31.6416C60.1334 31.986 60.3864 32.2442 60.7244 32.2442H64.1404V16.06H60.7244C60.3864 16.06 60.1334 16.3613 60.1334 16.6626ZM56.7174 28.8008C58.2364 28.8008 59.5014 27.983 60.1334 27.036V21.2682C59.5434 20.3643 58.1934 19.5035 56.7174 19.5035C54.0184 19.5035 51.9524 21.2252 51.9524 24.1521C51.9524 27.079 54.0184 28.8008 56.7174 28.8008ZM66.6704 16.06H70.7194V32.2442H66.6704V16.06ZM123.056 17.3513C123.056 17.3513 124.363 15.6296 127.147 15.6296C131.701 15.6296 135.286 19.2452 135.286 24.1521C135.286 29.059 131.701 32.6746 127.104 32.6746C124.321 32.6746 123.014 30.9099 123.014 30.9099V31.6416C123.014 31.9429 122.761 32.2442 122.423 32.2442H119.007V8.26923H123.056V17.3513ZM126.472 28.7577C124.911 28.7577 123.688 27.9399 123.056 26.993V21.2252C123.688 20.3643 125.038 19.4604 126.472 19.4604C129.171 19.4604 131.237 21.1822 131.237 24.1091C131.237 27.036 129.171 28.7577 126.472 28.7577ZM116.898 32.2873V22.6456C116.898 19.9339 116.35 18.3844 114.916 17.1791C113.735 16.1461 112.259 15.6296 110.488 15.6296C108.928 15.6296 107.367 16.1031 106.186 17.3513V16.6626C106.186 16.3613 105.933 16.06 105.596 16.06H102.391V32.2442H106.44V20.9669C107.241 20.02 108.506 19.3743 109.729 19.3743C112.006 19.3743 112.85 20.4504 112.85 23.1191V32.2873H116.898ZM92.5654 15.6296C89.7814 15.6296 88.4744 17.3513 88.4744 17.3513V8.26923H84.4254V32.2442H87.8414C88.1794 32.2442 88.4324 31.9429 88.4324 31.6416V30.9099C88.4324 30.9099 89.7394 32.6746 92.5224 32.6746C97.1194 32.6746 100.704 29.059 100.704 24.1521C100.746 19.2452 97.1614 15.6296 92.5654 15.6296ZM88.4744 26.993C89.1064 27.9399 90.3294 28.7577 91.8904 28.7577C94.5894 28.7577 96.6554 27.036 96.6554 24.1091C96.6554 21.1822 94.5894 19.4604 91.8904 19.4604C90.4564 19.4604 89.1064 20.3643 88.4744 21.2252V26.993ZM80.9254 15.6296C82.1484 15.6296 82.7804 15.8448 82.7804 15.8448V19.6756C82.7804 19.6756 79.4064 18.5135 77.2984 20.9669V32.2873H73.2494V16.06H76.6654C77.0034 16.06 77.2564 16.3613 77.2564 16.6626V17.3513C78.0154 16.4474 79.6604 15.6296 80.9254 15.6296ZM19.8584 33.019C17.5814 30.0921 16.1044 27.3373 15.5984 25.013C15.3884 24.023 15.3454 23.1621 15.4724 22.3874C15.5564 21.6987 15.8094 21.0961 16.1474 20.5795C16.9484 19.4174 18.2974 18.6857 19.8584 18.6857C21.4184 18.6857 22.8104 19.3743 23.5694 20.5795C23.9074 21.0961 24.1604 21.6987 24.2444 22.3874C24.3704 23.1621 24.3284 24.066 24.1174 25.013C23.6114 27.2943 22.1354 30.049 19.8584 33.019ZM32.8474 40.078C34.9144 39.2172 36.3904 37.2802 36.6854 35.042C36.8544 33.9229 36.7274 32.8468 36.3904 31.7277C36.3029 31.4313 36.1756 31.1347 36.0362 30.8101C35.9732 30.6634 35.9077 30.511 35.8424 30.3503C35.6723 30.0038 35.5132 29.6355 35.354 29.2674C35.1969 28.9038 35.0398 28.5404 34.8724 28.1982V28.1551C31.9624 21.7417 28.8414 15.1992 25.6364 8.78582L25.5094 8.52752C25.3409 8.20468 25.1721 7.8711 25.0034 7.53753C24.8346 7.20395 24.6659 6.87038 24.4974 6.54752C24.1604 5.85882 23.7804 5.21322 23.3164 4.65363C22.4304 3.62062 21.2504 3.06105 19.9424 3.06105C18.6354 3.06105 17.4544 3.62062 16.5684 4.65363C16.1044 5.21322 15.7254 5.85882 15.3884 6.54752C15.2194 6.87038 15.0506 7.20397 14.8819 7.53755C14.7131 7.87112 14.5444 8.20468 14.3754 8.52752L14.2494 8.78582C11.0024 15.1561 7.88139 21.6987 4.97139 28.1121L4.92939 28.1982C4.59139 28.9299 4.25439 29.6616 3.95939 30.3503C3.89482 30.5084 3.83026 30.6584 3.7681 30.8028C3.62712 31.1303 3.49853 31.429 3.41039 31.7277C2.98939 32.9329 2.90439 34.009 3.03139 35.0851C3.32639 37.3233 4.80239 39.2602 6.86939 40.1211C7.83939 40.5085 8.93539 40.6806 10.0744 40.5515C11.1284 40.4224 12.1824 40.078 13.2794 39.4324C14.7974 38.5715 16.3584 37.2372 18.0874 35.2572C15.3454 31.7707 13.6164 28.5425 12.9844 25.7017C12.6464 24.4104 12.6044 23.1621 12.7734 22.043C12.9414 20.9669 13.3214 19.9769 13.9114 19.1161C15.2194 17.2222 17.4124 16.06 19.8584 16.06C22.3044 16.06 24.4974 17.1791 25.8044 19.1161C26.3954 19.9769 26.7744 20.9669 26.9434 22.043C27.0704 23.1621 27.0274 24.3673 26.7324 25.7017C26.1004 28.5425 24.4134 31.7277 21.6294 35.2142C23.4004 37.1942 24.9194 38.5285 26.4374 39.3894C27.5334 40.035 28.5884 40.3793 29.6424 40.5085C30.7394 40.6376 31.8354 40.5085 32.8474 40.078Z" fill="black"/>
</svg>
