<svg width="107" height="33" viewBox="0 0 107 33" fill="none" xmlns="http://www.w3.org/2000/svg">
<path fill-rule="evenodd" clip-rule="evenodd" d="M65.9685 25.4847C59.8155 30.0205 50.8985 32.4405 43.2205 32.4405C32.4545 32.4405 22.7625 28.4578 15.4305 21.8339C14.8545 21.313 15.3705 20.6031 16.0615 21.0088C23.9745 25.6137 33.7585 28.3841 43.8655 28.3841C50.6815 28.3841 58.1795 26.9735 65.0745 24.0465C66.1155 23.604 66.9865 24.7287 65.9685 25.4847Z" fill="black"/>
<path fill-rule="evenodd" clip-rule="evenodd" d="M68.5265 22.5579C67.7425 21.553 63.3275 22.0831 61.3455 22.3182C60.7425 22.392 60.6495 21.8665 61.1935 21.4885C64.7105 19.0132 70.4805 19.7277 71.1525 20.5574C71.8255 21.3917 70.9775 27.1767 67.6735 29.9378C67.1665 30.3619 66.6825 30.136 66.9085 29.5737C67.6505 27.7206 69.3145 23.5674 68.5265 22.5579Z" fill="black"/>
<path fill-rule="evenodd" clip-rule="evenodd" d="M61.4843 4.01372V1.60752C61.4843 1.24332 61.7603 0.999023 62.0923 0.999023H72.8623C73.2083 0.999023 73.4843 1.24792 73.4843 1.60752V3.66792C73.4803 4.01372 73.1893 4.46542 72.6733 5.17992L67.0923 13.1498C69.1663 13.0991 71.3553 13.4079 73.2363 14.4681C73.6603 14.7078 73.7753 15.0581 73.8073 15.4039V17.9714C73.8073 18.3217 73.4203 18.732 73.0143 18.5199C69.7013 16.7821 65.3003 16.5931 61.6363 18.5384C61.2623 18.7412 60.8713 18.3355 60.8713 17.9852V15.5468C60.8713 15.1549 60.8753 14.4866 61.2673 13.8919L67.7333 4.61752H62.1063C61.7603 4.61752 61.4843 4.37322 61.4843 4.01372Z" fill="black"/>
<path fill-rule="evenodd" clip-rule="evenodd" d="M22.1955 19.0272H18.9195C18.6055 19.0041 18.3565 18.769 18.3335 18.4694V1.64923C18.3335 1.31273 18.6145 1.04533 18.9655 1.04533H22.0205C22.3385 1.05913 22.5925 1.30343 22.6155 1.60773V3.80643H22.6755C23.4725 1.68143 24.9705 0.69043 26.9885 0.69043C29.0395 0.69043 30.3205 1.68143 31.2425 3.80643C32.0355 1.68143 33.8375 0.69043 35.7685 0.69043C37.1415 0.69043 38.6435 1.25733 39.5615 2.52963C40.5975 3.94473 40.3855 6.00063 40.3855 7.80293L40.3815 18.4187C40.3815 18.7552 40.1005 19.0272 39.7495 19.0272H36.4775C36.1505 19.0041 35.8875 18.7414 35.8875 18.4187V9.50383C35.8875 8.79403 35.9525 7.02393 35.7955 6.35093C35.5515 5.22163 34.8185 4.90353 33.8695 4.90353C33.0765 4.90353 32.2475 5.43363 31.9105 6.28183C31.5745 7.12993 31.6065 8.54973 31.6065 9.50383V18.4187C31.6065 18.7552 31.3255 19.0272 30.9755 19.0272H27.7035C27.3715 19.0041 27.1135 18.7414 27.1135 18.4187L27.1085 9.50383C27.1085 7.62773 27.4175 4.86663 25.0905 4.86663C22.7355 4.86663 22.8275 7.55863 22.8275 9.50383V18.4187C22.8275 18.7552 22.5465 19.0272 22.1955 19.0272Z" fill="black"/>
<path fill-rule="evenodd" clip-rule="evenodd" d="M82.7573 0.69043C87.6193 0.69043 90.2503 4.86663 90.2503 10.1768C90.2503 15.3073 87.3423 19.3775 82.7573 19.3775C77.9823 19.3775 75.3833 15.2012 75.3833 9.99713C75.3833 4.76063 78.0153 0.69043 82.7573 0.69043ZM82.7853 4.12443C80.3703 4.12443 80.2183 7.41573 80.2183 9.46693C80.2183 11.5228 80.1853 15.9111 82.7573 15.9111C85.2963 15.9111 85.4163 12.3709 85.4163 10.2137C85.4163 8.79393 85.3563 7.09763 84.9283 5.75163C84.5593 4.58083 83.8263 4.12443 82.7853 4.12443Z" fill="black"/>
<path fill-rule="evenodd" clip-rule="evenodd" d="M96.5552 19.0272H93.2922C92.9652 19.0041 92.7022 18.7414 92.7022 18.4187L92.6982 1.59383C92.7252 1.28503 92.9972 1.04533 93.3292 1.04533H96.3662C96.6522 1.05913 96.8872 1.25273 96.9512 1.51553V4.08763H97.0112C97.9282 1.78743 99.2142 0.69043 101.477 0.69043C102.947 0.69043 104.38 1.22053 105.302 2.67253C106.159 4.01853 106.159 6.28183 106.159 7.90893V18.4971C106.122 18.7921 105.851 19.0272 105.528 19.0272H102.242C101.942 19.0041 101.694 18.7829 101.661 18.4971V9.36093C101.661 7.52173 101.873 4.82973 99.6112 4.82973C98.8132 4.82973 98.0802 5.36453 97.7162 6.17573C97.2562 7.20373 97.1962 8.22703 97.1962 9.36093V18.4187C97.1912 18.7552 96.9052 19.0272 96.5552 19.0272Z" fill="black"/>
<path fill-rule="evenodd" clip-rule="evenodd" d="M52.8984 10.9926C52.8984 12.2694 52.9304 13.3342 52.2854 14.4682C51.7644 15.3901 50.9354 15.9571 50.0174 15.9571C48.7594 15.9571 48.0224 14.9983 48.0224 13.5831C48.0224 10.7897 50.5244 10.2827 52.8984 10.2827V10.9926ZM56.2024 18.9808C55.9864 19.1744 55.6724 19.1883 55.4284 19.0592C54.3404 18.1557 54.1424 17.7363 53.5484 16.8743C51.7504 18.7089 50.4744 19.2574 48.1464 19.2574C45.3864 19.2574 43.2434 17.5565 43.2434 14.15C43.2434 11.4903 44.6814 9.67881 46.7364 8.79371C48.5154 8.01011 50.9994 7.87181 52.8984 7.65521V7.23111C52.8984 6.45211 52.9584 5.53021 52.4974 4.85721C52.1004 4.25331 51.3354 4.00441 50.6584 4.00441C49.4094 4.00441 48.2984 4.64511 48.0264 5.97271C47.9714 6.26771 47.7554 6.55811 47.4554 6.57191L44.2804 6.23081C44.0124 6.17091 43.7134 5.95421 43.7914 5.54401C44.5194 1.69041 48.0034 0.528809 51.1194 0.528809C52.7134 0.528809 54.7964 0.952909 56.0554 2.16061C57.6494 3.64951 57.4974 5.63621 57.4974 7.79811V12.9054C57.4974 14.4404 58.1334 15.1134 58.7324 15.9431C58.9404 16.2382 58.9864 16.5931 58.7184 16.8143C58.0504 17.3721 56.8614 18.4093 56.2074 18.9901L56.2024 18.9808Z" fill="black"/>
<path fill-rule="evenodd" clip-rule="evenodd" d="M9.94138 10.9926C9.94138 12.2694 9.97338 13.3342 9.32838 14.4682C8.80738 15.3901 7.98238 15.9571 7.06138 15.9571C5.80338 15.9571 5.07038 14.9983 5.07038 13.5831C5.07038 10.7897 7.57238 10.2827 9.94138 10.2827V10.9926ZM13.2454 18.9808C13.0294 19.1744 12.7154 19.1883 12.4714 19.0592C11.3844 18.1557 11.1904 17.7363 10.5914 16.8743C8.79338 18.7089 7.52238 19.2574 5.19038 19.2574C2.43438 19.2574 0.286377 17.5565 0.286377 14.15C0.286377 11.4903 1.72838 9.67881 3.77938 8.79371C5.55838 8.01011 8.04238 7.87181 9.94138 7.65521V7.23111C9.94138 6.45211 10.0014 5.53021 9.54538 4.85721C9.14438 4.25331 8.37938 4.00441 7.70638 4.00441C6.45738 4.00441 5.34238 4.64511 5.07038 5.97271C5.01438 6.26771 4.79838 6.55811 4.50338 6.57191L1.32338 6.23081C1.05638 6.17091 0.761377 5.95421 0.834377 5.54401C1.56738 1.69041 5.04738 0.528809 8.16238 0.528809C9.75738 0.528809 11.8404 0.952909 13.0984 2.16061C14.6924 3.64951 14.5404 5.63621 14.5404 7.79811V12.9054C14.5404 14.4404 15.1764 15.1134 15.7764 15.9431C15.9874 16.2382 16.0344 16.5931 15.7664 16.8143C15.0984 17.3721 13.9094 18.4093 13.2554 18.9901L13.2454 18.9808Z" fill="black"/>
</svg>
