<svg width="38" height="46" viewBox="0 0 38 46" fill="none" xmlns="http://www.w3.org/2000/svg">
<path fill-rule="evenodd" clip-rule="evenodd" d="M28.0415 0C28.3335 2.66054 27.2655 5.33448 25.6785 7.25528C24.0915 9.1773 21.4875 10.6701 18.9375 10.4728C18.5905 7.86496 19.8775 5.14396 21.3485 3.44394C22.9885 1.52419 25.7545 0.0919304 28.0415 0ZM37.4855 33.3314C37.2105 33.22 31.4595 30.8907 31.3965 24.1411C31.3465 18.5111 35.8975 15.7442 36.2885 15.5067C36.2965 15.5017 36.3035 15.4978 36.3075 15.495C33.6376 11.5861 29.4785 11.0493 27.9965 10.9876C25.8315 10.7682 23.7315 11.5967 22.0165 12.2732C20.9275 12.7027 19.9945 13.0709 19.2975 13.0709C18.5205 13.0709 17.5605 12.6902 16.4835 12.263C15.0735 11.7036 13.4625 11.0646 11.7985 11.0963C7.93955 11.1524 4.38455 13.3389 2.39555 16.7916C-1.60845 23.7444 1.37355 34.0446 5.27555 39.6862C7.18555 42.4442 9.46155 45.5507 12.4505 45.4376C13.7875 45.385 14.7385 44.9801 15.7215 44.5613C16.8555 44.0784 18.0325 43.5772 19.8955 43.5772C21.6745 43.5772 22.7995 44.064 23.8815 44.5321C24.9145 44.979 25.9085 45.4089 27.3945 45.3815C30.4915 45.3244 32.4565 42.5664 34.3505 39.7983C36.4715 36.6993 37.3855 33.6959 37.4875 33.3599C37.4916 33.3487 37.4935 33.3405 37.4955 33.3353C37.4945 33.3348 37.4915 33.3335 37.4855 33.3314Z" fill="black"/>
</svg>
