<svg width="112" height="38" viewBox="0 0 112 38" fill="none" xmlns="http://www.w3.org/2000/svg">
<path fill-rule="evenodd" clip-rule="evenodd" d="M38.6284 28.9374C43.6754 28.9374 47.7879 25.0148 47.7879 19.6916C47.7879 14.3308 43.6754 10.4458 38.6284 10.4458C33.5815 10.4458 29.469 14.3308 29.469 19.6916C29.469 25.0148 33.5815 28.9374 38.6284 28.9374ZM38.6284 14.0891C41.3948 14.0891 43.7783 16.3651 43.7783 19.6916C43.7783 22.9806 41.3948 25.2941 38.6284 25.2941C35.8621 25.2941 33.4786 22.9847 33.4786 19.6916C33.4786 16.3651 35.8621 14.0891 38.6284 14.0891Z" fill="black"/>
<path fill-rule="evenodd" clip-rule="evenodd" d="M58.3882 28.9374C63.4351 28.9374 67.5476 25.0148 67.5476 19.6916C67.5476 14.3308 63.4351 10.4458 58.3882 10.4458C53.3412 10.4458 49.2288 14.335 49.2288 19.6916C49.2288 25.0148 53.3412 28.9374 58.3882 28.9374ZM58.3882 14.0891C61.1545 14.0891 63.5381 16.3651 63.5381 19.6916C63.5381 22.9806 61.1545 25.2941 58.3882 25.2941C55.6218 25.2941 53.2383 22.9847 53.2383 19.6916C53.2383 16.3651 55.6218 14.0891 58.3882 14.0891Z" fill="black"/>
<path fill-rule="evenodd" clip-rule="evenodd" d="M86.4838 27.6035V11.0085H82.6759V12.5133H82.536C81.6344 11.4254 79.9055 10.4458 77.7278 10.4458C73.1625 10.4458 68.98 14.5059 68.98 19.7249C68.98 24.9064 73.1625 28.9332 77.7278 28.9332C79.9096 28.9332 81.6385 27.9536 82.536 26.8323H82.6759V28.1621C82.6759 31.7012 80.8111 33.5812 77.8019 33.5812C75.3484 33.5812 73.8252 31.8054 73.2036 30.3005L69.7127 31.772C70.7172 34.2231 73.3806 37.2203 77.806 37.2203C82.5071 37.2203 86.4838 34.4316 86.4838 27.6035ZM78.0859 14.0891C80.8152 14.0891 82.96 16.4693 82.96 19.7249C82.96 22.9472 80.8152 25.2941 78.0859 25.2941C75.3196 25.2941 73.0019 22.9472 73.0019 19.7249C73.0019 16.4693 75.3196 14.0891 78.0859 14.0891Z" fill="black"/>
<path d="M92.7616 1.2749V28.3704H88.8508V1.2749H92.7616Z" fill="black"/>
<path fill-rule="evenodd" clip-rule="evenodd" d="M111.113 24.8354L108.001 22.7344C106.964 24.2768 105.547 25.2939 103.506 25.2939C101.468 25.2939 100.015 24.3477 99.0806 22.4927L111.286 17.3737L110.87 16.3232C110.113 14.2598 107.795 10.4414 103.057 10.4414C98.3519 10.4414 94.4453 14.1889 94.4453 19.6872C94.4453 24.8729 98.319 28.9331 103.506 28.9331C107.688 28.9331 110.109 26.3402 111.113 24.8354ZM106.581 15.9772L98.4219 19.4079C98.319 15.8397 101.155 14.018 103.193 14.018C104.782 14.018 106.132 14.8225 106.581 15.9772Z" fill="black"/>
<path d="M14.6657 17.2862V13.3636H27.7194C27.847 14.0472 27.9129 14.8559 27.9129 15.7313C27.9129 18.6743 27.1184 22.3135 24.5579 24.9063C22.0673 27.5325 18.8852 28.9331 14.6698 28.9331C6.85647 28.9331 0.286377 22.4886 0.286377 14.5767C0.286377 6.66481 6.85647 0.220215 14.6698 0.220215C18.9922 0.220215 22.0714 1.93761 24.385 4.17611L21.6516 6.94411C19.9926 5.36831 17.7449 4.14281 14.6657 4.14281C8.96006 4.14281 4.49766 8.79911 4.49766 14.5767C4.49766 20.3543 8.96006 25.0105 14.6657 25.0105C18.3665 25.0105 20.4742 23.5057 21.8244 22.1384C22.9195 21.0296 23.6399 19.4455 23.9239 17.282L14.6657 17.2862Z" fill="black"/>
</svg>
