<svg width="133" height="33" viewBox="0 0 133 33" fill="none" xmlns="http://www.w3.org/2000/svg">
<path fill-rule="evenodd" clip-rule="evenodd" d="M62.907 12.998C63.929 12.2079 65.173 11.6819 66.479 11.6446C68.049 11.5222 69.624 12.0617 70.845 13.0356C71.3036 13.3392 71.6217 13.8207 71.9404 14.3029C72.0094 14.4074 72.0785 14.5119 72.149 14.6146V11.9829H74.36V31.7581H72.149C72.1494 30.6784 72.1491 29.5962 72.1487 28.5144C72.1483 27.1629 72.1479 25.8123 72.149 24.4684C72.123 24.1281 71.785 24.5649 71.809 24.6714C71.7777 24.7097 71.7461 24.7487 71.7141 24.7881C71.4071 25.1669 71.0652 25.5885 70.693 25.8181C69.054 27.0789 66.781 27.3972 64.819 26.7779C64.2074 26.6197 63.6278 26.2528 63.1113 25.9259C63.0222 25.8696 62.9351 25.8144 62.85 25.7617C62.137 25.1761 61.653 24.4905 61.202 23.7002C60.042 21.4782 59.913 18.7832 60.638 16.4031C60.889 15.5512 61.333 14.7887 61.856 14.075C62.097 13.6865 62.542 13.2576 62.907 12.998ZM70.145 14.5582C69.421 13.9195 68.269 13.6346 67.254 13.6371C66.796 13.6242 66.334 13.6704 65.897 13.8109C64.997 14.0224 64.262 14.6194 63.701 15.3101C62.867 16.4098 62.606 17.8275 62.551 19.1788C62.532 20.7358 62.839 22.436 63.915 23.6111C64.492 24.292 65.256 24.804 66.156 24.9576C67.515 25.1932 69.071 25.0404 70.145 24.1263C70.875 23.5436 71.432 22.7935 71.722 21.9056C72.368 20.0696 72.294 17.9675 71.468 16.1998C71.155 15.5157 70.723 15.0238 70.145 14.5582Z" fill="black"/>
<path d="M50.236 5.98651C48.553 6.05351 46.84 6.49231 45.492 7.52791C45.215 7.71071 44.909 8.04061 44.718 8.32731C43.895 9.36101 43.474 10.7044 43.605 12.0242C43.653 12.9844 44.009 13.9179 44.66 14.6335C44.851 14.9193 45.219 15.2438 45.519 15.4312C47.26 16.7771 49.524 17.0271 51.579 17.6391C52.862 18.0277 54.347 18.2914 55.187 19.4269C55.898 20.2907 55.878 21.5891 55.49 22.6037C55.157 23.4348 54.431 24.0289 53.656 24.4459C52.035 25.1437 50.156 25.0984 48.478 24.631C47.214 24.2463 46.093 23.4992 45.272 22.4633C45.062 22.1229 44.876 21.9037 44.547 22.2969C44.05 22.6436 43.552 22.9902 43.054 23.3368C43.454 23.9614 43.926 24.561 44.49 24.991C45.456 25.7253 46.502 26.3748 47.69 26.6794C49.911 27.3378 52.377 27.2692 54.526 26.382C55.393 25.9316 56.221 25.4765 56.834 24.7209C57.628 23.7883 58.137 22.4801 58.162 21.2054C58.227 19.9816 57.83 18.7403 57.02 17.8103C56.866 17.5684 56.587 17.3211 56.32 17.1665C55.916 16.8093 55.458 16.5852 54.962 16.3184C52.752 15.2185 50.231 14.9811 47.972 14.0198C47.281 13.6779 46.588 13.2043 46.229 12.5093C45.691 11.3226 46.11 9.82061 47.163 9.06791C48.083 8.33481 49.346 8.11911 50.512 8.11071C52.536 8.09011 54.589 8.96821 55.811 10.592C56.416 10.1408 57.02 9.68971 57.625 9.23851C57.095 8.50391 56.432 7.93481 55.706 7.44821C54.103 6.40001 52.152 5.88831 50.236 5.98651Z" fill="black"/>
<path d="M78.092 21.5697C78.094 22.8614 78.358 24.2035 79.15 25.2541C79.497 25.8143 80.18 26.2596 80.787 26.5894C82.375 27.3198 84.28 27.2082 85.851 26.4921C86.567 26.1068 87.255 25.6274 87.712 25.0097C87.921 24.8175 88.157 24.2719 88.279 24.2428C88.279 25.0749 88.279 25.907 88.279 26.7391C89.016 26.7391 89.753 26.7391 90.49 26.7391C90.49 21.8204 90.49 16.9016 90.49 11.9829C89.753 11.9829 89.016 11.9829 88.279 11.9829C88.263 14.9966 88.314 18.012 88.241 21.0246C88.062 22.2376 87.508 23.409 86.502 24.145C85.283 25.069 83.516 25.2935 82.08 24.7277C81.073 24.278 80.5 23.1799 80.428 22.1012C80.255 20.2143 80.378 18.3151 80.341 16.4229C80.341 14.9429 80.341 13.4629 80.341 11.9829C79.591 11.9829 78.841 11.9829 78.092 11.9829C78.092 15.1785 78.092 18.3741 78.092 21.5697Z" fill="black"/>
<path fill-rule="evenodd" clip-rule="evenodd" d="M94.18 13.4308C95.75 12.3277 97.65 11.707 99.57 11.645C101 11.5646 102.53 11.8204 103.73 12.6072C104.66 13.1184 105.22 14.204 105.39 15.2541C105.441 17.6896 105.435 20.1262 105.429 22.5627C105.426 23.9551 105.423 25.3474 105.43 26.7395H103.29V25.6117C103.264 25.5302 103.278 25.4179 103.291 25.3046C103.314 25.1081 103.338 24.9083 103.16 24.8598C103.025 24.9602 102.938 25.0936 102.849 25.2297C102.746 25.386 102.642 25.5458 102.46 25.6633C101.81 26.25 100.97 26.712 100.07 26.9171C98.53 27.2127 96.83 27.1489 95.45 26.3636C95.3512 26.2922 95.2481 26.2245 95.1458 26.1573C94.8653 25.973 94.5913 25.7929 94.43 25.5553C94.01 25.0253 93.67 24.442 93.53 23.7734C93.3 22.5887 93.35 21.2318 94.15 20.2543C94.52 19.6859 95.12 19.2443 95.76 18.944C96.7972 18.4772 97.929 18.3174 99.0563 18.1582C99.4833 18.0979 99.9097 18.0377 100.33 17.961C101.13 17.808 102.08 17.5897 102.63 17.0587C103.3 16.5518 103.38 15.5376 103 14.831C102.32 13.7896 100.93 13.5651 99.75 13.5811C98.13 13.6459 96.45 14.0527 95.15 15.0474L95.15 15.0473C94.83 14.5085 94.51 13.9696 94.18 13.4308ZM103.222 19.7869C103.213 19.3874 103.205 18.9898 103.22 18.6001V18.4686C102.98 18.7095 102.69 18.8756 102.37 19.0513C101.519 19.3803 100.623 19.5365 99.7273 19.6928C98.9281 19.8321 98.1285 19.9715 97.36 20.2338C96.67 20.4597 96.02 20.9059 95.81 21.6271C95.54 22.4585 95.65 23.487 96.21 24.1643C96.99 25.0981 98.34 25.2423 99.49 25.1467C100.79 25.0463 102.06 24.3679 102.69 23.2192C103.273 22.1623 103.247 20.9664 103.222 19.7869Z" fill="black"/>
<path d="M115.62 11.7014C114.44 11.7929 113.29 12.3286 112.47 13.0964C112.11 13.4895 111.78 13.9821 111.47 14.4646C111.47 13.6375 111.47 12.8104 111.47 11.9833C110.73 11.9833 109.99 11.9833 109.26 11.9833C109.26 16.9021 109.26 21.8208 109.26 26.7395C109.99 26.7395 110.73 26.7395 111.47 26.7395C111.49 23.8628 111.42 20.9828 111.51 18.1082C111.68 16.7162 112.27 15.2992 113.46 14.4835C114.52 13.6885 116.04 13.6276 117.27 14.1075C117.53 13.9742 117.43 13.523 117.57 13.2679C117.66 12.9023 117.76 12.5368 117.85 12.1713C117.19 11.787 116.39 11.6561 115.62 11.7014Z" fill="black"/>
<path fill-rule="evenodd" clip-rule="evenodd" d="M121.68 12.8294C122.75 12.1253 124 11.6672 125.29 11.6452C126.81 11.5523 128.43 11.9263 129.68 12.8106C129.7 12.8253 129.721 12.84 129.741 12.8547C130.192 13.179 130.653 13.5106 130.95 13.9611C132.22 15.5516 132.68 17.6731 132.43 19.6718H122.08C121.951 19.7081 121.795 19.6897 121.639 19.6714C121.384 19.6414 121.13 19.6115 121 19.8222C121.03 21.1622 121.36 22.6198 122.35 23.5718C123.54 24.9156 125.52 25.2776 127.24 24.9478C128.47 24.7328 129.59 24.0539 130.36 23.0742C130.85 23.5253 131.35 23.9765 131.85 24.4276C131.49 24.871 131.11 25.2335 130.66 25.5386C129.22 26.7367 127.28 27.1707 125.43 27.0683C124.05 27.0261 122.68 26.5901 121.55 25.7811C121.28 25.5918 120.97 25.3564 120.69 25.072C120.01 24.2911 119.37 23.317 119.07 22.2672C118.38 19.9766 118.51 17.4003 119.6 15.2543C120.01 14.5682 120.42 13.9124 120.98 13.3795C121.147 13.2349 121.329 13.0966 121.497 12.9694C121.56 12.921 121.622 12.8743 121.68 12.8294ZM129.67 15.7421C128.99 14.4361 127.56 13.6129 126.08 13.525C125.02 13.4506 123.91 13.6459 123.01 14.2289C122.922 14.3183 122.808 14.409 122.693 14.5006C122.507 14.6492 122.317 14.8005 122.23 14.9536C121.42 15.7359 121.16 16.899 121.02 17.98H130.2C130.19 17.2092 130 16.4381 129.67 15.7421Z" fill="black"/>
<path fill-rule="evenodd" clip-rule="evenodd" d="M27.312 0.720215H5.863C2.914 0.720215 0.5 3.12041 0.5 6.05431V27.3879C0.5 30.3204 2.914 32.7202 5.863 32.7202H27.312C30.261 32.7202 32.675 30.3204 32.675 27.3879V6.05431C32.675 3.12041 30.261 0.720215 27.312 0.720215ZM26.824 25.2076C26.824 26.1397 26.057 26.9008 25.119 26.9008H8.055C7.117 26.9008 6.349 26.1397 6.349 25.2076V8.23561C6.349 7.30301 7.117 6.53961 8.055 6.53961H25.119C26.057 6.53961 26.824 7.30301 26.824 8.23561V25.2076ZM20.002 21.0842C20.537 21.0842 20.976 20.6491 20.976 20.114V13.3268C20.976 12.7936 20.537 12.3576 20.002 12.3576H13.178C12.641 12.3576 12.204 12.7936 12.204 13.3268V20.114C12.204 20.6491 12.641 21.0842 13.178 21.0842H20.002Z" fill="black"/>
</svg>
